<?xml version="1.0" encoding="UTF-8" standalone="no"?>
<!-- Created with Inkscape (http://www.inkscape.org/) -->

<svg
   xmlns:dc="http://purl.org/dc/elements/1.1/"
   xmlns:cc="http://creativecommons.org/ns#"
   xmlns:rdf="http://www.w3.org/1999/02/22-rdf-syntax-ns#"
   xmlns:svg="http://www.w3.org/2000/svg"
   xmlns="http://www.w3.org/2000/svg"
   xmlns:sodipodi="http://sodipodi.sourceforge.net/DTD/sodipodi-0.dtd"
   xmlns:inkscape="http://www.inkscape.org/namespaces/inkscape"
   width="3877.4001"
   height="634.71338"
   viewBox="0 0 1025.8954 167.93459"
   version="1.1"
   id="svg8"
   inkscape:version="0.92.3 (2405546, 2018-03-11)"
   sodipodi:docname="uvod_dark.svg"
   inkscape:export-filename="/home/zuzana/Documents/Kasiopea/201819/diplomy/diplom2.png"
   inkscape:export-xdpi="90"
   inkscape:export-ydpi="90">
  <defs
     id="defs2" />
  <sodipodi:namedview
     id="base"
     pagecolor="#ffffff"
     bordercolor="#666666"
     borderopacity="1.0"
     inkscape:pageopacity="0.0"
     inkscape:pageshadow="2"
     inkscape:zoom="0.70710678"
     inkscape:cx="1933.1882"
     inkscape:cy="388.23801"
     inkscape:document-units="mm"
     inkscape:current-layer="layer1"
     showgrid="false"
     inkscape:window-width="1299"
     inkscape:window-height="713"
     inkscape:window-x="67"
     inkscape:window-y="27"
     inkscape:window-maximized="1"
     inkscape:measure-start="0,0"
     inkscape:measure-end="0,0"
     inkscape:lockguides="false"
     showguides="false"
     units="px"
     fit-margin-top="100.1"
     fit-margin-left="0"
     fit-margin-right="0"
     fit-margin-bottom="0" />
  <metadata
     id="metadata5">
    <rdf:RDF>
      <cc:Work
         rdf:about="">
        <dc:format>image/svg+xml</dc:format>
        <dc:type
           rdf:resource="http://purl.org/dc/dcmitype/StillImage" />
        <dc:title />
      </cc:Work>
    </rdf:RDF>
  </metadata>
  <g
     inkscape:label="Layer 1"
     inkscape:groupmode="layer"
     id="layer1"
     transform="translate(196.16626,-117.59553)">
    <path
       inkscape:export-ydpi="90"
       inkscape:export-xdpi="90"
       sodipodi:nodetypes="cczzzcccczcccc"
       inkscape:connector-curvature="0"
       id="path3475"
       d="m -193.90259,268.29233 c 40.42566,-3.52422 126.393949,-14.27068 134.255048,-58.08434 0,0 14.935873,64.76348 38.980277,61.23967 24.0443089,-3.52377 45.055526,-38.72744 66.418736,-25.09862 21.36326,13.62869 47.755468,17.60155 70.595829,20.37384 22.8404,2.77241 39.36451,-9.80113 56.82207,-22.45513 38.25286,81.07247 70.00612,-4.71264 111.68928,4.90165 20.20836,3.49135 16.63439,41.78638 37.36069,27.51989 48.35728,-39.2502 77.62624,-31.42624 123.03857,-1.72097 20.08997,13.15483 55.71894,2.55027 74.41445,-11.34623 18.69548,-13.89658 67.92455,44.53244 78.93184,5.24647 105.02865,45.6255 50.62256,-30.40433 90.91987,-43.34348 21.10248,-7.81002 29.50702,-79.2138 29.50702,-79.2138 9.98089,41.45391 56.58751,94.43048 108.4401,131.04395"
       style="fill:none;fill-opacity:1;fill-rule:evenodd;stroke:#cab2de;stroke-width:2.664;stroke-linecap:round;stroke-linejoin:round;stroke-miterlimit:4;stroke-dasharray:none;stroke-opacity:1" />
    <path
       sodipodi:nodetypes="cc"
       inkscape:export-ydpi="90"
       inkscape:export-xdpi="90"
       inkscape:connector-curvature="0"
       id="path3477"
       d="m 65.078658,203.03803 16.36145,57.79134"
       style="fill:none;stroke:#cab2de;stroke-width:2.133;stroke-linecap:round;stroke-linejoin:miter;stroke-miterlimit:4;stroke-dasharray:none;stroke-opacity:1" />
    <path
       sodipodi:nodetypes="cc"
       inkscape:export-ydpi="90"
       inkscape:export-xdpi="90"
       inkscape:connector-curvature="0"
       id="path3479"
       d="M 65.078658,203.03803 54.420653,250.57161"
       style="fill:none;stroke:#cab2de;stroke-width:2.13400006;stroke-linecap:round;stroke-linejoin:miter;stroke-miterlimit:4;stroke-dasharray:none;stroke-opacity:1" />
    <path
       inkscape:export-ydpi="90"
       inkscape:export-xdpi="90"
       transform="matrix(0.96669813,-0.25591937,0.25650684,0.96654242,0,0)"
       sodipodi:open="true"
       d="m 70.944586,192.31245 a 10.082984,12.284307 0 0 1 6.6344,11.54348 10.082984,12.284307 0 0 1 -6.6344,11.54347"
       sodipodi:end="1.2217305"
       sodipodi:start="5.0614548"
       sodipodi:ry="12.284307"
       sodipodi:rx="10.082984"
       sodipodi:cy="203.85593"
       sodipodi:cx="67.496002"
       sodipodi:type="arc"
       id="path3481"
       style="opacity:1;fill:none;fill-opacity:1;stroke:#cab2de;stroke-width:1.88300017;stroke-linecap:round;stroke-linejoin:bevel;stroke-miterlimit:4;stroke-dasharray:none;stroke-dashoffset:0;stroke-opacity:1" />
    <path
       inkscape:export-ydpi="90"
       inkscape:export-xdpi="90"
       inkscape:connector-curvature="0"
       id="path3483"
       d="m 117.43108,167.55586 -37.429336,12.47571 0.39128,1.76887 -37.322648,12.95812 0.177843,0.80404"
       style="fill:none;stroke:#cab2de;stroke-width:2.159;stroke-linecap:round;stroke-linejoin:round;stroke-miterlimit:4;stroke-dasharray:none;stroke-opacity:1" />
    <path
       inkscape:export-ydpi="90"
       inkscape:export-xdpi="90"
       inkscape:connector-curvature="0"
       id="path3485"
       d="m 123.62728,190.50252 -38.702323,7.67909 -0.537327,-1.73019 -38.84882,7.2072 -0.24423,-0.78645"
       style="fill:none;stroke:#cab2de;stroke-width:1.959;stroke-linecap:round;stroke-linejoin:round;stroke-miterlimit:4;stroke-dasharray:none;stroke-opacity:1" />
    <path
       inkscape:export-ydpi="90"
       inkscape:export-xdpi="90"
       transform="matrix(0.96669813,-0.25591937,0.25650684,0.96654242,0,0)"
       sodipodi:open="true"
       d="m 31.070291,196.3206 a 6.0558805,8.2096319 0 0 1 3.984647,7.71453 6.0558805,8.2096319 0 0 1 -3.984647,7.71453"
       sodipodi:end="1.2217305"
       sodipodi:start="5.0614548"
       sodipodi:ry="8.2096319"
       sodipodi:rx="6.0558805"
       sodipodi:cy="204.03513"
       sodipodi:cx="28.999058"
       sodipodi:type="arc"
       id="path3487"
       style="opacity:1;fill:none;fill-opacity:1;stroke:#cab2de;stroke-width:1.84964478;stroke-linecap:square;stroke-linejoin:bevel;stroke-miterlimit:4;stroke-dasharray:none;stroke-dashoffset:0;stroke-opacity:1" />
    <path
       inkscape:export-ydpi="90"
       inkscape:export-xdpi="90"
       inkscape:transform-center-y="0.14150011"
       inkscape:transform-center-x="0.56051561"
       transform="matrix(-0.83339641,0.5526757,0.39649648,0.91803624,0,0)"
       sodipodi:open="true"
       d="m 38.284929,189.09879 a 2.9614735,5.5168757 0 0 1 1.747444,3.18566 2.9614735,5.5168757 0 0 1 -0.134009,4.54785"
       sodipodi:end="0.48036027"
       sodipodi:start="5.0614548"
       sodipodi:ry="5.5168757"
       sodipodi:rx="2.9614735"
       sodipodi:cy="194.28296"
       sodipodi:cx="37.272045"
       sodipodi:type="arc"
       id="path3489"
       style="opacity:1;fill:none;fill-opacity:1;stroke:#cab2de;stroke-width:2.50584713;stroke-linecap:round;stroke-linejoin:bevel;stroke-miterlimit:4;stroke-dasharray:none;stroke-dashoffset:0;stroke-opacity:1" />
    <path
       sodipodi:nodetypes="cc"
       inkscape:export-ydpi="90"
       inkscape:export-xdpi="90"
       inkscape:connector-curvature="0"
       id="path3491"
       d="m 65.078658,203.03801 0.10959,52.70235"
       style="fill:none;stroke:#cab2de;stroke-width:2.1329999;stroke-linecap:round;stroke-linejoin:miter;stroke-miterlimit:4;stroke-dasharray:none;stroke-opacity:1" />
    <path
       inkscape:export-ydpi="90"
       inkscape:export-xdpi="90"
       transform="matrix(0.99162254,-0.1291694,-0.01660976,0.99986205,0,0)"
       sodipodi:open="true"
       d="m 124.42758,193.98973 a 4.5604448,7.1540747 0 0 1 3.00068,6.72263 4.5604448,7.1540747 0 0 1 -3.00068,6.72263"
       sodipodi:end="1.2217305"
       sodipodi:start="5.0614548"
       sodipodi:ry="7.1540747"
       sodipodi:rx="4.5604448"
       sodipodi:cy="200.71236"
       sodipodi:cx="122.86781"
       sodipodi:type="arc"
       id="path3493"
       style="opacity:1;fill:none;fill-opacity:1;stroke:#cab2de;stroke-width:1.58214962;stroke-linecap:round;stroke-linejoin:bevel;stroke-miterlimit:4;stroke-dasharray:none;stroke-dashoffset:0;stroke-opacity:1" />
    <path
       inkscape:export-ydpi="90"
       inkscape:export-xdpi="90"
       transform="matrix(0.99376576,-0.11148816,-0.01928462,0.99981403,0,0)"
       sodipodi:open="true"
       d="m 119.53454,193.90365 a 4.6201596,6.2559485 0 0 1 3.03997,5.87867 4.6201596,6.2559485 0 0 1 -3.03997,5.87867"
       sodipodi:end="1.2217305"
       sodipodi:start="5.0614548"
       sodipodi:ry="6.2559485"
       sodipodi:rx="4.6201596"
       sodipodi:cy="199.78232"
       sodipodi:cx="117.95435"
       sodipodi:type="arc"
       id="path3495"
       style="opacity:1;fill:none;fill-opacity:1;stroke:#cab2de;stroke-width:1.4891634;stroke-linecap:round;stroke-linejoin:bevel;stroke-miterlimit:4;stroke-dasharray:none;stroke-dashoffset:0;stroke-opacity:1" />
    <path
       inkscape:export-ydpi="90"
       inkscape:export-xdpi="90"
       transform="matrix(0.99450261,-0.10471178,-0.02054732,0.99978888,0,0)"
       sodipodi:open="true"
       d="m 115.01631,195.09133 a 4.5472374,5.783112 0 0 1 2.99199,5.43435 4.5472374,5.783112 0 0 1 -2.99199,5.43435"
       sodipodi:end="1.2217305"
       sodipodi:start="5.0614548"
       sodipodi:ry="5.783112"
       sodipodi:rx="4.5472374"
       sodipodi:cy="200.52568"
       sodipodi:cx="113.46106"
       sodipodi:type="arc"
       id="path3497"
       style="opacity:1;fill:none;fill-opacity:1;stroke:#cab2de;stroke-width:1.42043674;stroke-linecap:round;stroke-linejoin:bevel;stroke-miterlimit:4;stroke-dasharray:none;stroke-dashoffset:0;stroke-opacity:1" />
    <path
       inkscape:export-ydpi="90"
       inkscape:export-xdpi="90"
       transform="matrix(0.99438507,-0.10582215,-0.02032941,0.99979334,0,0)"
       sodipodi:open="true"
       d="m 110.34283,197.33986 a 3.6724887,4.7201247 0 0 1 2.41643,4.43547 3.6724887,4.7201247 0 0 1 -2.41643,4.43547"
       sodipodi:end="1.2217305"
       sodipodi:start="5.0614548"
       sodipodi:ry="4.7201247"
       sodipodi:rx="3.6724887"
       sodipodi:cy="201.77533"
       sodipodi:cx="109.08677"
       sodipodi:type="arc"
       id="path3499"
       style="opacity:1;fill:none;fill-opacity:1;stroke:#cab2de;stroke-width:1.15325201;stroke-linecap:round;stroke-linejoin:bevel;stroke-miterlimit:4;stroke-dasharray:none;stroke-dashoffset:0;stroke-opacity:1" />
    <path
       sodipodi:nodetypes="czcczc"
       inkscape:connector-curvature="0"
       id="path3503"
       d="m 602.53399,178.01458 c -3.97943,1.02923 -11.15364,2.79168 -10.79773,9.32054 0.3559,6.52884 7.57557,8.62166 13.28289,9.58222 17.92614,3.01732 43.18217,-1.90295 57.89207,-11.67484 3.82017,-2.53769 9.37795,-4.67804 10.60179,-9.9827 1.22384,-5.30471 -9.15745,-7.19986 -13.7973,-6.22441"
       style="fill:none;stroke:#cab2de;stroke-width:1.78;stroke-linecap:butt;stroke-linejoin:miter;stroke-miterlimit:4;stroke-dasharray:none;stroke-opacity:1" />
    <path
       inkscape:connector-curvature="0"
       id="path3505"
       d="m 606.46565,184.97341 c 3.14741,2.11922 10.45503,-0.24063 13.11694,-2.45641 1.3183,-1.09724 2.09479,-2.5835 3.27923,-3.76651"
       style="fill:none;stroke:#cab2de;stroke-width:1.31088936px;stroke-linecap:round;stroke-linejoin:miter;stroke-opacity:1" />
    <path
       inkscape:connector-curvature="0"
       id="path3507"
       d="m 632.21235,171.1321 c 1.68606,-0.38718 3.38218,0 5.08281,0 5.29468,0 10.56299,-2.66336 15.57636,-4.09399 1.51621,-0.43277 2.73275,-1.20094 3.93507,-1.80135 0.28001,-0.13952 1.75415,-0.9826 1.14774,-0.9826"
       style="fill:none;stroke:#cab2de;stroke-width:1.31088936px;stroke-linecap:round;stroke-linejoin:miter;stroke-opacity:1" />
    <path
       inkscape:connector-curvature="0"
       id="path3509"
       d="m 614.66374,169.25235 c 0.44037,-1.96474 2.76535,-0.46938 3.4432,-1.14632 1.08021,-1.07887 1.87315,-4.44465 -1.14774,-3.43896 -1.49127,0.4965 -0.86904,1.85058 -1.63961,2.6202 -0.52102,0.52035 -1.23002,0.81818 -0.65585,1.96508 z"
       style="fill:none;stroke:#cab2de;stroke-width:1.31088936px;stroke-linecap:round;stroke-linejoin:round;stroke-opacity:1" />
    <path
       inkscape:connector-curvature="0"
       id="path3511"
       d="m 625.78642,160.08491 c -0.31818,-0.97695 0.37975,-1.71739 1.14774,-2.29266 2.3435,-1.75549 1.87833,-1.58783 4.263,0 0.39655,0.26393 0.92941,0.43723 1.14772,0.65504 0.38308,0.38276 1.1528,-0.81372 1.3117,-0.65504 1.09704,1.09568 -0.90145,3.21354 -1.63962,3.76647 -0.54196,0.40604 -1.31561,0.3273 -1.96754,0.3273 -1.34656,0 -1.11627,-0.29612 -1.80358,-0.98257 -0.1092,-0.10893 -0.54654,0.10892 -0.65585,0 -0.41822,-0.41791 -1.11067,-0.6458 -1.80357,-0.8188 z"
       style="fill:none;stroke:#cab2de;stroke-width:1.31088936px;stroke-linecap:round;stroke-linejoin:round;stroke-opacity:1" />
    <path
       inkscape:connector-curvature="0"
       id="path3513"
       d="m 662.93105,175.92498 c -0.36919,0.37582 -0.71165,0.77938 -1.10763,1.12702 -0.0759,0.067 -3.3035,0.10963 -3.87672,-0.17541 -1.89154,-0.94096 -5.92981,-0.22259 -7.92966,0.17541 -5.01021,0.99693 -9.68792,0.83917 -14.44957,3.68162 -0.80129,0.47814 -2.12947,1.06671 -2.64322,1.57786 -1.30162,1.29496 -3.56679,4.91939 -6.34373,5.61007 -4.21352,1.04801 -7.59722,3.33595 -11.80637,4.38289 -1.18399,0.29472 -2.60955,0.70124 -3.87672,0.70124 -0.0727,0 -0.48197,-0.0477 -0.52865,0 -0.72339,0.71976 -4.96243,0.33662 -5.28643,0.17541"
       style="fill:none;stroke:#cab2de;stroke-width:1.40611601px;stroke-linecap:butt;stroke-linejoin:round;stroke-opacity:1" />
    <path
       inkscape:connector-curvature="0"
       id="path3515"
       d="m 617.12317,206.58983 c 1.18245,-4.63679 7.61114,-2.94769 11.14939,-2.94769 1.34953,0 3.41439,0.10396 4.75489,-0.16385 0.62964,-0.12592 1.22448,-0.49121 1.80357,-0.49121"
       style="fill:none;stroke:#cab2de;stroke-width:1.31088936px;stroke-linecap:round;stroke-linejoin:miter;stroke-opacity:1" />
    <path
       inkscape:connector-curvature="0"
       id="path3517"
       d="m 636.30669,194.63532 c -5.27137,-4.71348 3.48961,-9.33437 7.87016,-9.33437 0.99424,0 3.88438,0.54782 4.75489,0.98257 0.30633,0.15303 0.4256,0.78568 0.8198,0.98256 1.20965,0.60404 1.91269,0 2.6234,0 0.11686,0 0.11969,2.05364 0,2.29266"
       style="fill:none;stroke:#cab2de;stroke-width:1.31088936px;stroke-linecap:butt;stroke-linejoin:miter;stroke-opacity:1" />
    <path
       sodipodi:nodetypes="cccccccssc"
       inkscape:connector-curvature="0"
       id="path3519"
       d="m 638.22554,163.30732 c -1.33329,4.39525 -11.30739,3.23367 -11.36196,4.26939 -0.006,0.10892 -0.22423,-0.0346 -0.3279,0 -0.42774,0.14274 -0.73871,0.22532 -1.14774,0.32778 -1.63501,0.40801 -3.23733,1.21108 -4.59093,2.29266 -0.7356,0.58775 -1.78179,1.35935 -2.29546,2.12888 -1.07689,1.61335 -2.10986,4.68726 -4.263,5.4041 -3.88083,1.29204 -5.22715,2.45644 -9.50978,2.45644 -0.2446,0 -2.78735,0.41445 -2.78735,0.3273 0,-0.85615 0.44787,-1.65545 0.59257,-2.49929"
       style="fill:none;stroke:#cab2de;stroke-width:1.31088936px;stroke-linecap:round;stroke-linejoin:miter;stroke-opacity:1" />
    <path
       sodipodi:nodetypes="ccczcc"
       inkscape:connector-curvature="0"
       id="path3521"
       d="m 638.31521,202.41392 c 2.43226,-0.6307 3.708,-2.77289 4.54994,-3.19331 1.31732,-0.65787 2.72087,-0.55656 4.09904,-0.90069 0.45928,-0.11444 1.31228,-1.94446 2.13151,-2.25185 0.81924,-0.30749 3.63072,0.0211 3.8531,-0.20447 1.09992,-1.09856 1.74721,-1.56851 3.03329,-2.21076"
       style="fill:none;stroke:#cab2de;stroke-width:1.31088936px;stroke-linecap:round;stroke-linejoin:round;stroke-opacity:1" />
    <ellipse
       ry="30.582066"
       rx="30.490685"
       cy="179.27931"
       cx="632.47931"
       id="ellipse3523"
       style="opacity:1;fill:none;fill-opacity:1;stroke:#cab2de;stroke-width:2.195;stroke-linecap:round;stroke-linejoin:round;stroke-miterlimit:4;stroke-dasharray:none;stroke-dashoffset:0;stroke-opacity:1" />
    <g
       transform="matrix(3.7485922,0,0,3.7594649,-241.00527,-1003.9265)"
       id="g3551">
      <path
         style="fill:none;fill-opacity:1;stroke:#ec1d56;stroke-width:0.5511381;stroke-linecap:round;stroke-linejoin:round;stroke-miterlimit:4;stroke-dasharray:none;stroke-opacity:1"
         d="m 30.705567,323.78228 c -0.11414,-0.10745 -0.15875,-0.3045 0.0714,-0.38671 0.75685,-0.27037 0.85407,0.76642 0.28055,0.73459 -0.154,-0.009 -0.21066,-0.0585 -0.26852,-0.177 -0.0162,-0.0332 0.0992,-0.13489 0.10549,-0.21027"
         id="path3527"
         inkscape:connector-curvature="0" />
      <path
         style="fill:none;fill-opacity:1;stroke:#ec1d56;stroke-width:0.90317142;stroke-linecap:round;stroke-linejoin:round;stroke-miterlimit:4;stroke-dasharray:none;stroke-opacity:1"
         d="m 27.525337,323.09121 c -0.20805,-0.10733 -0.34365,-0.0647 -0.4991,0.0667 -0.60571,0.51189 0.39387,1.40844 0.73788,0.76789 0.13697,-0.25507 0.12328,-0.55353 -0.18217,-0.67222 -0.0103,-0.004 -0.11612,-0.007 -0.12786,-0.0296 -0.006,-0.012 0.0536,-0.11294 0.0712,-0.13269 z"
         id="path3529"
         inkscape:connector-curvature="0" />
      <path
         style="fill:none;fill-opacity:1;stroke:#ec1d56;stroke-width:0.59532845;stroke-linecap:round;stroke-linejoin:round;stroke-miterlimit:4;stroke-dasharray:none;stroke-opacity:1"
         d="m 27.064447,321.26497 c -0.0385,-0.0284 -0.10146,-0.0768 -0.11001,-0.13898 -0.0483,-0.35159 0.54868,-0.0899 0.67128,0.065 0.0384,0.0484 0.0723,0.0659 0.0647,0.14005 -0.006,0.0601 -0.0824,0.099 -0.12577,0.12433 -0.0596,0.0348 -0.14955,0.11421 -0.21639,0.12649 -0.13088,0.024 -0.53599,-0.24822 -0.28381,-0.31687 z"
         id="path3531"
         inkscape:connector-curvature="0" />
      <path
         style="fill:none;fill-opacity:1;stroke:#ec1d56;stroke-width:0.61320323;stroke-linecap:round;stroke-linejoin:round;stroke-miterlimit:4;stroke-dasharray:none;stroke-opacity:1"
         d="m 30.639627,321.23706 c -0.0777,-0.24761 0.21819,-0.38675 0.42813,-0.33194 0.14333,0.0374 0.10472,0.1115 0.12596,0.21782 0.0663,0.3315 -0.24014,0.45572 -0.47606,0.50431 -0.0858,0.0177 -0.51082,0.36093 -0.43059,0.0724 0.0359,-0.12901 0.0738,-0.20108 0.15586,-0.2921 0.0903,-0.10013 10e-4,-0.0193 0.19667,-0.17052 z"
         id="path3533"
         inkscape:connector-curvature="0" />
      <path
         style="fill:none;fill-opacity:1;stroke:#ec1d56;stroke-width:0.55539966;stroke-linecap:round;stroke-linejoin:round;stroke-miterlimit:4;stroke-dasharray:none;stroke-opacity:1"
         d="m 28.499117,322.2999 c 0.66531,0.32313 1.1272,0.29024 1.08773,1.11359 -0.003,0.0612 -0.0537,0.18833 -0.0247,0.24401 0.11566,0.22164 0.34111,-0.14568 0.33532,-0.23127 -0.0307,-0.44994 -1.2047,-1.28431 -1.26253,-1.25439 -0.0548,0.0283 -0.0906,0.0854 -0.13581,0.1281 z"
         id="path3535"
         inkscape:connector-curvature="0" />
      <ellipse
         ry="3.055742"
         rx="3.0683677"
         style="opacity:1;fill:none;fill-opacity:1;stroke:#ec1d56;stroke-width:0.56920075;stroke-linecap:round;stroke-linejoin:round;stroke-miterlimit:4;stroke-dasharray:none;stroke-dashoffset:0;stroke-opacity:1"
         id="ellipse3537"
         cx="29.05291"
         cy="322.25803" />
      <path
         style="fill:none;fill-opacity:1;stroke:#ec1d56;stroke-width:0.62015456;stroke-linecap:round;stroke-linejoin:round;stroke-miterlimit:4;stroke-dasharray:none;stroke-opacity:1"
         d="m 28.705947,320.11693 c -0.0864,-0.21341 -0.12013,-0.60484 0.054,-0.76814 0.57275,-0.53704 0.64633,1.52239 0.21231,1.45914 -0.11654,-0.017 -0.15942,-0.11621 -0.2032,-0.35158 -0.0123,-0.066 0.0751,-0.26791 0.0798,-0.41765"
         id="path3539"
         inkscape:connector-curvature="0" />
      <path
         style="opacity:1;fill:none;fill-opacity:1;stroke:#ec1d56;stroke-width:0.41199026;stroke-linecap:round;stroke-linejoin:round;stroke-miterlimit:4;stroke-dasharray:none;stroke-dashoffset:0;stroke-opacity:1"
         id="path3541"
         sodipodi:type="arc"
         sodipodi:cx="57.762104"
         sodipodi:cy="325.43719"
         sodipodi:rx="4.3114328"
         sodipodi:ry="4.4615097"
         sodipodi:start="0.27052603"
         sodipodi:end="4.1643556"
         d="m 61.916732,326.62948 a 4.3114328,4.4615097 0 0 1 -4.144595,3.26921 4.3114328,4.4615097 0 0 1 -4.159253,-3.24921 4.3114328,4.4615097 0 0 1 1.902922,-5.02041"
         sodipodi:open="true"
         transform="matrix(0.99885126,-0.04791822,-0.08615336,0.99628189,0,0)" />
      <path
         style="fill:none;stroke:#ec1d56;stroke-width:0.3973493;stroke-linecap:round;stroke-linejoin:miter;stroke-miterlimit:4;stroke-dasharray:none;stroke-opacity:1"
         d="m 27.742627,317.77297 c 5.51189,-3.90001 7.53799,-6.33549 7.43203,-7.87523"
         id="path3543"
         inkscape:connector-curvature="0"
         sodipodi:nodetypes="cc" />
      <path
         style="fill:none;stroke:#ec1d56;stroke-width:0.3973493;stroke-linecap:round;stroke-linejoin:miter;stroke-miterlimit:4;stroke-dasharray:none;stroke-opacity:1"
         d="m 33.705397,322.44807 c 2.78209,-6.13719 4.79198,-8.58596 6.32956,-8.77875"
         id="path3545"
         inkscape:connector-curvature="0"
         sodipodi:nodetypes="cc" />
      <path
         style="fill:none;stroke:#ec1d56;stroke-width:0.3973493;stroke-linecap:round;stroke-linejoin:miter;stroke-miterlimit:4;stroke-dasharray:none;stroke-opacity:1"
         d="m 32.553387,319.68948 c 3.82916,-5.54973 6.24261,-7.60545 7.79017,-7.5241"
         id="path3547"
         inkscape:connector-curvature="0"
         sodipodi:nodetypes="cc" />
      <path
         style="fill:none;stroke:#ec1d56;stroke-width:0.3973493;stroke-linecap:round;stroke-linejoin:miter;stroke-miterlimit:4;stroke-dasharray:none;stroke-opacity:1"
         d="m 30.959937,318.0408 c 4.90894,-4.63052 6.57246,-7.32465 6.25097,-8.83443"
         id="path3549"
         inkscape:connector-curvature="0"
         sodipodi:nodetypes="cc" />
    </g>
    <path
       style="fill:none;stroke:#ec1d56;stroke-width:1.394;stroke-linecap:round;stroke-linejoin:round;stroke-miterlimit:4;stroke-dasharray:none;stroke-opacity:1"
       d="m 468.91442,197.63015 c 0.19606,1.30984 -0.28564,2.72986 -0.68663,3.97285 -0.55674,1.72579 -1.58186,3.99756 -3.16906,5.0322 -1.59199,1.03784 -4.31136,0.63121 -5.80994,-0.37068 -1.10096,-0.73607 -1.58277,-2.01515 -2.48243,-2.9134 -0.27327,2.78166 1.55507,5.92074 0.39949,8.53748 -1.15554,2.6167 -9.00881,2.32139 -9.00881,2.32139 0,0 0.96058,0.1376 1.42608,0.37069 1.52617,0.76531 2.63489,3.06539 2.81426,5.26889 0.17918,2.20346 -3.27301,3.83725 -4.92115,5.26761 1.79392,1.1322 4.85974,1.18675 5.9098,2.57403 0.733,1.02915 0.54122,2.57591 -0.26428,3.78743 -0.70765,1.06375 -1.81015,1.75489 -2.64088,2.70152"
       id="path3553"
       inkscape:connector-curvature="0"
       sodipodi:nodetypes="csssczcczcccc"
       inkscape:export-xdpi="90"
       inkscape:export-ydpi="90" />
    <path
       style="fill:none;stroke:#ec1d56;stroke-width:1.394;stroke-linecap:round;stroke-linejoin:miter;stroke-miterlimit:4;stroke-dasharray:none;stroke-opacity:1"
       d="m 468.91442,197.63015 c 0.19306,0.21542 0.29539,1.84947 0.36961,2.17181 0.35537,1.54435 0.81195,3.31566 2.05989,4.39662 2.04778,1.77367 4.39733,1.52672 6.49661,0.0526 0.52646,-0.36956 1.39039,-0.82896 1.69013,-1.43021"
       id="path3555"
       inkscape:connector-curvature="0"
       sodipodi:nodetypes="ccccc"
       inkscape:export-xdpi="90"
       inkscape:export-ydpi="90" />
    <path
       style="fill:none;stroke:#ec1d56;stroke-width:1.394;stroke-linecap:round;stroke-linejoin:round;stroke-miterlimit:4;stroke-dasharray:none;stroke-opacity:1"
       d="m 479.53081,202.82133 c -0.62849,3.06246 1.73365,5.62905 4.96486,5.19119 2.13261,-0.28911 4.67566,-1.98812 5.9684,-3.65503 -1.39152,2.10782 -2.51103,5.89995 -0.63381,8.05157 0.78113,0.89528 1.91077,1.20739 3.0106,1.48318 0.95027,0.23798 1.96269,0.37636 2.85216,-0.1594 -6.31046,7.96529 -4.60759,11.76826 3.51318,11.54878"
       id="path3557"
       inkscape:connector-curvature="0"
       sodipodi:nodetypes="cccsccc"
       inkscape:export-xdpi="90"
       inkscape:export-ydpi="90" />
    <path
       style="fill:none;stroke:#ec1d56;stroke-width:1.394;stroke-linecap:round;stroke-linejoin:round;stroke-miterlimit:4;stroke-dasharray:none;stroke-opacity:1"
       d="m 499.2062,225.28211 c -1.29495,0.52008 -3.2311,0.98757 -5.41458,1.53502 -2.18352,0.54749 -4.46667,3.70593 -3.06346,6.83328 1.19456,2.70351 4.22586,3.72511 3.24493,3.26506 -1.69358,-0.84923 -5.50222,-0.74449 -7.05523,1.25957 -1.55304,2.00406 0.75703,5.59021 -0.0832,8.3885"
       id="path3559"
       inkscape:connector-curvature="0"
       sodipodi:nodetypes="czcczc"
       inkscape:export-xdpi="90"
       inkscape:export-ydpi="90" />
    <path
       style="fill:none;stroke:#ec1d56;stroke-width:1.394;stroke-linecap:round;stroke-linejoin:miter;stroke-miterlimit:4;stroke-dasharray:none;stroke-opacity:1"
       d="m 450.48106,234.18012 c 3.59614,-0.98235 5.7855,-0.42222 7.53407,1.8036 1.74853,2.2258 -1.56897,7.77525 -1.71577,8.06064"
       id="path3561"
       inkscape:connector-curvature="0"
       inkscape:export-xdpi="90"
       inkscape:export-ydpi="90"
       sodipodi:nodetypes="czc" />
    <path
       style="fill:none;stroke:#ec1d56;stroke-width:1.394;stroke-linecap:round;stroke-linejoin:round;stroke-miterlimit:4;stroke-dasharray:none;stroke-opacity:1"
       d="m 465.41695,248.65508 c 2.09692,-3.43912 5.2381,-2.31147 5.41173,-6.25113 0.36549,-0.66685 4.47972,7.40472 5.11612,6.97922 0.85494,-0.57159 0.0667,-6.62985 2.46316,-7.51096 2.39647,-0.8811 7.754,3.04562 8.42672,4.69136"
       id="path3563"
       inkscape:connector-curvature="0"
       sodipodi:nodetypes="ccczc"
       inkscape:export-xdpi="90"
       inkscape:export-ydpi="90" />
    <path
       style="fill:none;stroke:#ec1d56;stroke-width:1.394;stroke-linecap:round;stroke-linejoin:miter;stroke-miterlimit:4;stroke-dasharray:none;stroke-opacity:1"
       d="m 456.29936,244.04436 c 1.8927,-0.68002 5.67473,-2.85506 7.51162,-2.65577 1.73069,0.50001 1.43211,2.59723 1.40055,4.00778 -0.015,0.47114 -0.0866,0.93532 -0.11209,1.40461 -0.0337,0.60171 -0.03,1.33078 0.31751,1.8541"
       id="path3565"
       inkscape:connector-curvature="0"
       sodipodi:nodetypes="ccccc"
       inkscape:export-xdpi="90"
       inkscape:export-ydpi="90" />
    <ellipse
       style="opacity:1;fill:none;fill-opacity:1;stroke:#ec1d56;stroke-width:1.394;stroke-linecap:round;stroke-linejoin:round;stroke-miterlimit:4;stroke-dasharray:none;stroke-dashoffset:0;stroke-opacity:1"
       id="circle3567"
       cx="472.3493"
       cy="224.38933"
       inkscape:export-xdpi="90"
       inkscape:export-ydpi="90"
       rx="17.192305"
       ry="17.24217" />
    <path
       style="fill:#a15e5e;fill-opacity:1;stroke:#ffffff;stroke-width:2.11400008;stroke-linecap:square;stroke-linejoin:miter;stroke-miterlimit:4;stroke-dasharray:none;stroke-opacity:1"
       d="m 297.51557,193.46047 -4.50037,18.94451"
       id="path3463"
       inkscape:connector-curvature="0" />
    <path
       style="fill:#a15e5e;fill-opacity:1;stroke:#ffffff;stroke-width:2.11400008;stroke-linecap:square;stroke-linejoin:miter;stroke-miterlimit:4;stroke-dasharray:none;stroke-opacity:1"
       d="m 300.0081,183.91594 -0.33351,1.67746"
       id="path3465"
       inkscape:connector-curvature="0"
       sodipodi:nodetypes="cc" />
    <g
       id="g3473"
       transform="matrix(2.3460677,0,0,2.2201933,-34.57525,-184.85351)"
       style="stroke:#ffffff;stroke-width:0.92627364;stroke-miterlimit:4;stroke-dasharray:none;stroke-opacity:1">
      <path
         inkscape:connector-curvature="0"
         id="path3467"
         d="m 147.60443,168.18098 -1.91823,8.53282"
         style="fill:#a15e5e;fill-opacity:1;stroke:#ffffff;stroke-width:0.92627364;stroke-linecap:square;stroke-linejoin:miter;stroke-miterlimit:4;stroke-dasharray:none;stroke-opacity:1" />
      <path
         inkscape:connector-curvature="0"
         id="path3469"
         d="m 145.18662,170.37621 4.60629,-0.0248"
         style="fill:#a15e5e;fill-opacity:1;stroke:#ffffff;stroke-width:0.92627364;stroke-linecap:square;stroke-linejoin:miter;stroke-miterlimit:4;stroke-dasharray:none;stroke-opacity:1" />
      <path
         sodipodi:nodetypes="cc"
         inkscape:connector-curvature="0"
         id="path3471"
         d="m 145.6862,176.7138 c -1.56212,2.56419 1.9376,2.53768 3.42347,1.99939"
         style="fill:none;stroke:#ffffff;stroke-width:0.92627364;stroke-linecap:butt;stroke-linejoin:miter;stroke-miterlimit:4;stroke-dasharray:none;stroke-opacity:1" />
    </g>
    <path
       style="fill:none;fill-opacity:1;stroke:#ffffff;stroke-width:2.11400008;stroke-linecap:butt;stroke-linejoin:miter;stroke-miterlimit:4;stroke-dasharray:none;stroke-opacity:1"
       d="m 239.31501,184.2557 c -11.69102,-4.95457 -17.12013,-1.80945 -17.66663,5.39984 -0.54646,7.20936 12.46351,5.17233 11.412,14.33039 -1.05158,9.15805 -18.54453,4.9845 -18.54453,4.9845"
       id="path3571"
       inkscape:connector-curvature="0"
       sodipodi:nodetypes="czzc" />
    <path
       style="fill:none;stroke:#ffffff;stroke-width:2.11400008;stroke-linecap:butt;stroke-linejoin:miter;stroke-miterlimit:4;stroke-dasharray:none;stroke-opacity:1"
       d="m 255.0818,213.74722 4.60869,-22.11864 c 0,0 -8.891,-1.83655 -12.94823,1.5576 -4.05718,3.39419 -7.44102,11.27547 -2.74327,15.57647 4.69778,4.30099 12.28983,-3.53065 12.28983,-3.53065"
       id="path3573"
       inkscape:connector-curvature="0"
       sodipodi:nodetypes="cczzc" />
    <path
       style="fill:none;stroke:#ffffff;stroke-width:2.11400008;stroke-linecap:butt;stroke-linejoin:miter;stroke-miterlimit:4;stroke-dasharray:none;stroke-opacity:1"
       d="m 289.53723,191.9401 c 0,0 -14.42686,-2.41976 -17.88613,0.62312 -3.45923,3.0428 -2.43582,6.26781 0.76804,8.5151 3.20383,2.24738 7.86633,0.68343 9.54655,-1.86919 1.68033,-2.55255 0.65836,-7.37284 0.65836,-7.37284"
       id="path3575"
       inkscape:connector-curvature="0"
       sodipodi:nodetypes="czzzc" />
    <path
       style="fill:none;stroke:#ffffff;stroke-width:2.11400008;stroke-linecap:butt;stroke-linejoin:miter;stroke-miterlimit:4;stroke-dasharray:none;stroke-opacity:1"
       d="m 272.9679,201.38984 c 0,0 -4.09354,4.12085 -2.74324,6.85366 1.35022,2.73281 9.11765,0.70912 10.75353,3.53072 1.63594,2.82152 1.09611,6.18024 -2.08484,8.30744 -3.18092,2.12723 -11.79304,1.33322 -13.71638,-2.07686"
       id="path3577"
       inkscape:connector-curvature="0"
       sodipodi:nodetypes="czzzc" />
    <g
       transform="matrix(2.3460677,0,0,2.2201933,-16.37829,-184.85351)"
       id="g3585"
       style="stroke:#ffffff;stroke-width:0.92627364;stroke-miterlimit:4;stroke-dasharray:none;stroke-opacity:1">
      <path
         inkscape:connector-curvature="0"
         id="path3579"
         d="m 147.60443,168.18098 -1.91823,8.53282"
         style="fill:#a15e5e;fill-opacity:1;stroke:#ffffff;stroke-width:0.92627364;stroke-linecap:square;stroke-linejoin:miter;stroke-miterlimit:4;stroke-dasharray:none;stroke-opacity:1" />
      <path
         inkscape:connector-curvature="0"
         id="path3581"
         d="m 145.18662,170.37621 4.60629,-0.0248"
         style="fill:#a15e5e;fill-opacity:1;stroke:#ffffff;stroke-width:0.92627364;stroke-linecap:square;stroke-linejoin:miter;stroke-miterlimit:4;stroke-dasharray:none;stroke-opacity:1" />
      <path
         sodipodi:nodetypes="cc"
         inkscape:connector-curvature="0"
         id="path3583"
         d="m 145.6862,176.7138 c -1.56212,2.56419 1.9376,2.53768 3.42347,1.99939"
         style="fill:none;stroke:#ffffff;stroke-width:0.92627364;stroke-linecap:butt;stroke-linejoin:miter;stroke-miterlimit:4;stroke-dasharray:none;stroke-opacity:1" />
    </g>
    <path
       style="fill:none;stroke:#ffffff;stroke-width:1.61399996;stroke-linecap:butt;stroke-linejoin:miter;stroke-miterlimit:4;stroke-dasharray:none;stroke-opacity:1"
       d="m 353.51292,215.87809 4.60868,-22.11856 c 0,0 -8.891,-1.83663 -12.94826,1.55752 -4.05715,3.39422 -7.44098,11.27547 -2.74324,15.57647 4.69775,4.30106 12.28987,-3.53061 12.28987,-3.53061"
       id="path3587"
       inkscape:connector-curvature="0"
       sodipodi:nodetypes="cczzc" />
    <ellipse
       style="opacity:1;fill:none;fill-opacity:1;stroke:#ec1d56;stroke-width:2.06699991;stroke-linecap:round;stroke-linejoin:round;stroke-miterlimit:4;stroke-dasharray:none;stroke-dashoffset:0;stroke-opacity:1"
       id="circle3589"
       cx="373.01788"
       cy="190.77246"
       rx="3.9454248"
       ry="3.7337399" />
    <ellipse
       style="opacity:1;fill:none;fill-opacity:1;stroke:#ec1d56;stroke-width:2.06699991;stroke-linecap:round;stroke-linejoin:round;stroke-miterlimit:4;stroke-dasharray:none;stroke-dashoffset:0;stroke-opacity:1"
       id="circle3591"
       cx="395.75555"
       cy="200.92096"
       rx="3.9454248"
       ry="3.7337399" />
    <ellipse
       style="opacity:1;fill:none;fill-opacity:1;stroke:#ec1d56;stroke-width:2.06699991;stroke-linecap:round;stroke-linejoin:round;stroke-miterlimit:4;stroke-dasharray:none;stroke-dashoffset:0;stroke-opacity:1"
       id="circle3593"
       cx="386.91101"
       cy="210.68604"
       rx="3.9454248"
       ry="3.7337399" />
    <ellipse
       style="opacity:1;fill:none;fill-opacity:1;stroke:#ec1d56;stroke-width:2.06699991;stroke-linecap:round;stroke-linejoin:round;stroke-miterlimit:4;stroke-dasharray:none;stroke-dashoffset:0;stroke-opacity:1"
       id="circle3595"
       cx="347.99518"
       cy="173.57901"
       rx="3.9454248"
       ry="3.7337399" />
    <ellipse
       style="opacity:1;fill:none;fill-opacity:1;stroke:#ec1d56;stroke-width:2.06699991;stroke-linecap:round;stroke-linejoin:round;stroke-miterlimit:4;stroke-dasharray:none;stroke-dashoffset:0;stroke-opacity:1"
       id="circle3597"
       cx="332.36969"
       cy="161.02405"
       rx="3.9454248"
       ry="3.7337399" />
    <path
       style="fill:none;stroke:#ec1d56;stroke-width:2.06699991;stroke-linecap:butt;stroke-linejoin:miter;stroke-miterlimit:4;stroke-dasharray:none;stroke-opacity:1"
       d="m 334.94337,163.48917 10.2149,7.69403"
       id="path3599"
       inkscape:connector-curvature="0" />
    <path
       style="fill:none;stroke:#ec1d56;stroke-width:2.06699991;stroke-linecap:butt;stroke-linejoin:miter;stroke-miterlimit:4;stroke-dasharray:none;stroke-opacity:1"
       d="m 351.43722,175.52127 17.73274,12.99502"
       id="path3601"
       inkscape:connector-curvature="0"
       sodipodi:nodetypes="cc" />
    <path
       style="fill:none;stroke:#ec1d56;stroke-width:2.06699991;stroke-linecap:butt;stroke-linejoin:miter;stroke-miterlimit:4;stroke-dasharray:none;stroke-opacity:1"
       d="m 375.29063,194.55912 8.72077,12.4448"
       id="path3603"
       inkscape:connector-curvature="0"
       sodipodi:nodetypes="cc" />
    <path
       style="fill:none;stroke:#ec1d56;stroke-width:2.06699991;stroke-linecap:butt;stroke-linejoin:miter;stroke-miterlimit:4;stroke-dasharray:none;stroke-opacity:1"
       d="m 377.7621,192.82359 14.17019,6.56936"
       id="path3605"
       inkscape:connector-curvature="0"
       sodipodi:nodetypes="cc" />
  </g>
</svg>
