<?xml version="1.0" encoding="UTF-8" standalone="no"?>
<!-- Created with Inkscape (http://www.inkscape.org/) -->

<svg
   xmlns:dc="http://purl.org/dc/elements/1.1/"
   xmlns:cc="http://creativecommons.org/ns#"
   xmlns:rdf="http://www.w3.org/1999/02/22-rdf-syntax-ns#"
   xmlns:svg="http://www.w3.org/2000/svg"
   xmlns="http://www.w3.org/2000/svg"
   xmlns:sodipodi="http://sodipodi.sourceforge.net/DTD/sodipodi-0.dtd"
   xmlns:inkscape="http://www.inkscape.org/namespaces/inkscape"
   width="3100.0403"
   height="852.36163"
   viewBox="0 0 820.21895 225.5207"
   version="1.1"
   id="svg8"
   inkscape:version="0.92.3 (2405546, 2018-03-11)"
   sodipodi:docname="classification.svg"
   inkscape:export-filename="/home/zuzana/Documents/Kasiopea/201819/diplomy/diplom2.png"
   inkscape:export-xdpi="90"
   inkscape:export-ydpi="90">
  <defs
     id="defs2" />
  <sodipodi:namedview
     id="base"
     pagecolor="#ffffff"
     bordercolor="#666666"
     borderopacity="1.0"
     inkscape:pageopacity="0.0"
     inkscape:pageshadow="2"
     inkscape:zoom="0.25000001"
     inkscape:cx="1649.5515"
     inkscape:cy="530.21579"
     inkscape:document-units="mm"
     inkscape:current-layer="layer1"
     showgrid="false"
     inkscape:window-width="1839"
     inkscape:window-height="1025"
     inkscape:window-x="81"
     inkscape:window-y="27"
     inkscape:window-maximized="1"
     inkscape:measure-start="0,0"
     inkscape:measure-end="0,0"
     inkscape:lockguides="false"
     showguides="true"
     units="px"
     fit-margin-top="50"
     fit-margin-left="50"
     fit-margin-right="50"
     fit-margin-bottom="50" />
  <metadata
     id="metadata5">
    <rdf:RDF>
      <cc:Work
         rdf:about="">
        <dc:format>image/svg+xml</dc:format>
        <dc:type
           rdf:resource="http://purl.org/dc/dcmitype/StillImage" />
        <dc:title />
      </cc:Work>
    </rdf:RDF>
  </metadata>
  <g
     inkscape:label="Layer 1"
     inkscape:groupmode="layer"
     id="layer1"
     transform="translate(501.12671,97.123223)">
    <rect
       style="opacity:1;fill:none;fill-opacity:1;stroke:#000000;stroke-width:7.0105381;stroke-linecap:round;stroke-linejoin:round;stroke-miterlimit:4;stroke-dasharray:none;stroke-dashoffset:0;stroke-opacity:1"
       id="rect862"
       width="72.724304"
       height="80.628777"
       x="-313.19586"
       y="33.453156"
       rx="2.4550478"
       ry="2.7218893" />
    <rect
       style="opacity:1;fill:none;fill-opacity:1;stroke:#000000;stroke-width:7.0105381;stroke-linecap:round;stroke-linejoin:round;stroke-miterlimit:4;stroke-dasharray:none;stroke-dashoffset:0;stroke-opacity:1"
       id="rect862-3"
       width="72.724304"
       height="80.628777"
       x="-240.47159"
       y="33.453156"
       rx="2.4550478"
       ry="2.7218893" />
    <rect
       style="opacity:1;fill:none;fill-opacity:1;stroke:#000000;stroke-width:7.0105381;stroke-linecap:round;stroke-linejoin:round;stroke-miterlimit:4;stroke-dasharray:none;stroke-dashoffset:0;stroke-opacity:1"
       id="rect862-6"
       width="72.724304"
       height="80.628777"
       x="-167.74725"
       y="33.453156"
       rx="2.4550478"
       ry="2.7218893" />
    <rect
       style="opacity:1;fill:none;fill-opacity:1;stroke:#000000;stroke-width:7.0105381;stroke-linecap:round;stroke-linejoin:round;stroke-miterlimit:4;stroke-dasharray:none;stroke-dashoffset:0;stroke-opacity:1"
       id="rect862-3-7"
       width="72.724304"
       height="80.628777"
       x="-95.022942"
       y="33.453156"
       rx="2.4550478"
       ry="2.7218893" />
    <rect
       style="opacity:1;fill:none;fill-opacity:1;stroke:#000000;stroke-width:7.0105381;stroke-linecap:round;stroke-linejoin:round;stroke-miterlimit:4;stroke-dasharray:none;stroke-dashoffset:0;stroke-opacity:1"
       id="rect862-5"
       width="72.724304"
       height="80.628777"
       x="-22.29863"
       y="33.453156"
       rx="2.4550478"
       ry="2.7218893" />
    <rect
       style="opacity:1;fill:none;fill-opacity:1;stroke:#000000;stroke-width:7.0105381;stroke-linecap:round;stroke-linejoin:round;stroke-miterlimit:4;stroke-dasharray:none;stroke-dashoffset:0;stroke-opacity:1"
       id="rect862-3-3"
       width="72.724304"
       height="80.628777"
       x="50.425674"
       y="33.453156"
       rx="2.4550478"
       ry="2.7218893" />
    <rect
       style="opacity:1;fill:none;fill-opacity:1;stroke:#000000;stroke-width:7.0105381;stroke-linecap:round;stroke-linejoin:round;stroke-miterlimit:4;stroke-dasharray:none;stroke-dashoffset:0;stroke-opacity:1"
       id="rect862-56"
       width="72.724304"
       height="80.628777"
       x="123.14999"
       y="33.453156"
       rx="2.4550478"
       ry="2.7218893" />
    <rect
       style="opacity:1;fill:none;fill-opacity:1;stroke:#000000;stroke-width:7.0105381;stroke-linecap:round;stroke-linejoin:round;stroke-miterlimit:4;stroke-dasharray:none;stroke-dashoffset:0;stroke-opacity:1"
       id="rect862-3-2"
       width="72.724304"
       height="80.628777"
       x="195.8743"
       y="33.453156"
       rx="2.4550478"
       ry="2.7218893" />
    <rect
       style="opacity:1;fill:none;fill-opacity:1;stroke:#000000;stroke-width:7.0105381;stroke-linecap:round;stroke-linejoin:round;stroke-miterlimit:4;stroke-dasharray:none;stroke-dashoffset:0;stroke-opacity:1"
       id="rect862-9"
       width="72.724304"
       height="80.628777"
       x="-458.64453"
       y="33.453156"
       rx="2.4550478"
       ry="2.7218893" />
    <rect
       style="opacity:1;fill:none;fill-opacity:1;stroke:#000000;stroke-width:7.0105381;stroke-linecap:round;stroke-linejoin:round;stroke-miterlimit:4;stroke-dasharray:none;stroke-dashoffset:0;stroke-opacity:1"
       id="rect862-3-1"
       width="72.724304"
       height="80.628777"
       x="-385.92023"
       y="33.453156"
       rx="2.4550478"
       ry="2.7218893" />
    <path
       style="fill:none;stroke:#655871;stroke-width:3.265;stroke-linecap:round;stroke-linejoin:round;stroke-miterlimit:4;stroke-dasharray:none;stroke-opacity:0.9627451"
       d="m -405.87671,61.457875 c -6.85143,-9.982521 -11.06622,-13.397171 -18.52084,-11.906249 -5.15342,1.030687 -7.66698,3.562982 -10.58333,7.9375 -7.37613,11.064192 -4.50317,22.484325 4.7625,31.749999 2.39955,2.399546 3.77419,4.685975 7.40833,5.291667 15.32874,2.55479 23.78477,-23.090396 16.93334,-33.072917 z"
       id="path970"
       inkscape:connector-curvature="0"
       sodipodi:nodetypes="zsscsz" />
    <path
       style="fill:none;stroke:#655871;stroke-width:3.265;stroke-linecap:round;stroke-linejoin:round;stroke-opacity:0.96274507;stroke-miterlimit:4;stroke-dasharray:none"
       d="m -338.67255,52.197459 c 1.61694,14.167667 -9.24608,36.820102 -5.29167,48.683331"
       id="path972"
       inkscape:connector-curvature="0" />
    <path
       style="fill:none;stroke:#655871;stroke-width:3.265;stroke-linecap:round;stroke-linejoin:round;stroke-miterlimit:4;stroke-dasharray:none;stroke-opacity:0.9627451"
       d="m -282.05172,65.426626 c 0.9777,-2.505769 1.80193,-6.316562 4.23334,-7.9375 12.77535,-8.516903 20.21782,3.162813 16.40416,15.874999 -2.22559,7.418652 -6.04755,14.226919 -10.05416,20.6375 -0.38174,0.610778 -6.28609,6.943085 -5.82084,7.408335 0.67185,0.67184 5.35633,0 6.35,0 4.34322,0 19.12223,-1.65974 20.90208,-3.43958"
       id="path974"
       inkscape:connector-curvature="0"
       sodipodi:nodetypes="cssccsc" />
    <path
       style="fill:none;stroke:#655871;stroke-width:3.265;stroke-linecap:round;stroke-linejoin:round;stroke-miterlimit:4;stroke-dasharray:none;stroke-opacity:0.9627451"
       d="m -215.90588,64.368292 c 0.8428,-12.567499 21.40064,-11.296126 23.28333,0 0.52721,3.163274 -0.44709,8.329877 -2.11666,11.1125 -0.46911,0.781831 -3.70417,2.71939 -3.70417,3.175 0,1.247256 2.58858,-0.02863 3.70417,0.529167 3.52681,1.763411 7.40328,3.956137 8.99583,7.9375 5.35948,13.398741 -17.53521,10.472652 -23.8125,10.054166"
       id="path976"
       inkscape:connector-curvature="0"
       sodipodi:nodetypes="cscsscc" />
    <path
       style="fill:none;stroke:#655871;stroke-width:3.265;stroke-linecap:round;stroke-linejoin:round;stroke-opacity:0.96274507;stroke-miterlimit:4;stroke-dasharray:none"
       d="m -140.23505,57.489126 c 0.29964,11.86186 -5.20745,22.754166 11.1125,22.754166 4.26204,0 9.38046,0.866013 13.22917,-1.058333"
       id="path978"
       inkscape:connector-curvature="0" />
    <path
       style="fill:none;stroke:#655871;stroke-width:3.265;stroke-linecap:round;stroke-linejoin:round;stroke-opacity:0.96274507;stroke-miterlimit:4;stroke-dasharray:none"
       d="m -115.36421,55.372459 c -2.55977,14.330537 0,28.929261 0,43.391666"
       id="path980"
       inkscape:connector-curvature="0" />
    <path
       style="fill:none;stroke:#655871;stroke-width:3.265;stroke-linecap:round;stroke-linejoin:round;stroke-miterlimit:4;stroke-dasharray:none;stroke-opacity:0.9627451"
       d="m -42.868382,57.489126 c -0.705565,-0.17639 -1.399302,-0.409604 -2.116667,-0.529167 -3.91959,-0.653264 -8.713867,-0.34118 -12.170833,-2.645833 -0.614627,-0.409742 -3.364415,-3.704167 -3.175,-3.704167 1.234704,0 -0.202989,2.486245 0,3.704167 0.437012,2.622203 1.009756,5.337728 1.5875,7.9375 0.493395,2.220362 -0.04112,8.425566 1.5875,10.054166 0.7561,0.756105 1.503362,-1.503373 1.5875,-1.5875 1.160462,-1.160484 4.265983,-1.447046 5.820833,-1.058333 9.379664,2.344917 15.946331,15.471886 8.995833,23.8125 -7.595208,9.114241 -14.750044,4.289263 -23.01875,-3.175"
       id="path982"
       inkscape:connector-curvature="0"
       sodipodi:nodetypes="cccsccccscc" />
    <path
       style="fill:none;stroke:#655871;stroke-width:3.265;stroke-linecap:round;stroke-linejoin:round;stroke-miterlimit:4;stroke-dasharray:none;stroke-opacity:0.9627451"
       d="m 27.510757,64.897459 c 0.127741,-3.130312 -2.316004,-5.754867 -5.291667,-6.35 C 7.0717476,55.51799 -5.1685123,83.633353 1.0524503,94.001625 c 2.52476,4.207965 7.5436412,4.177067 11.6416397,4.7625 1.746118,0.249441 3.4739,0.89272 5.291667,0.529167 11.552132,-2.310424 12.082119,-23.346254 0.529167,-21.695833 -3.605636,0.515091 -9.2274765,5.407498 -12.1708335,6.879166"
       id="path984"
       inkscape:connector-curvature="0"
       sodipodi:nodetypes="csccssc" />
    <path
       style="fill:none;stroke:#655871;stroke-width:3.265;stroke-linecap:round;stroke-linejoin:round;stroke-opacity:0.96274507;stroke-miterlimit:4;stroke-dasharray:none"
       d="m 76.19409,56.430792 c 5.614299,0.08124 19.533525,1.450541 19.579166,1.5875 1.767364,5.30206 -0.505248,24.607933 -1.058333,30.691667 -0.387297,4.260466 1.751383,12.901441 1.058333,14.287501"
       id="path986"
       inkscape:connector-curvature="0" />
    <path
       style="fill:none;stroke:#655871;stroke-width:3.265;stroke-linecap:round;stroke-linejoin:round;stroke-miterlimit:4;stroke-dasharray:none;stroke-opacity:0.9627451"
       d="m 173.56076,63.309959 c -0.56865,-4.801105 -3.05827,-7.349977 -7.40834,-9.525 -15.3003,-7.65016 -21.11981,16.174715 -11.64166,23.283333 6.99529,5.24646 20.84652,-6.572326 19.05,-13.758333"
       id="path988"
       inkscape:connector-curvature="0"
       sodipodi:nodetypes="cccc" />
    <path
       style="fill:none;stroke:#655871;stroke-width:3.265;stroke-linecap:round;stroke-linejoin:round;stroke-miterlimit:4;stroke-dasharray:none;stroke-opacity:0.9627451"
       d="m 177.79409,84.476625 c -0.72824,-3.888761 -9.55043,-4.901149 -13.22917,-5.820833 -15.8804,-3.970102 -20.10479,29.104168 -2.11666,29.104168 3.93805,0 7.38682,-0.0972 11.1125,-1.5875 11.98436,-2.62512 7.67734,-21.40787 4.23333,-21.695835"
       id="path990"
       inkscape:connector-curvature="0"
       sodipodi:nodetypes="csscc" />
    <path
       style="fill:none;stroke:#655871;stroke-width:3.265;stroke-linecap:round;stroke-linejoin:round;stroke-miterlimit:4;stroke-dasharray:none;stroke-opacity:0.9627451"
       d="m 243.93992,68.601625 c 2.46838,-4.230893 1.61306,-8.893632 0.52917,-13.229166 -1.65113,-6.604548 -12.85582,-8.917916 -17.99167,-6.35 -3.01506,1.507535 -3.76428,8.298302 -4.23333,11.1125 -2.07838,12.470413 17.61095,20.721273 21.69583,8.466664"
       id="path992"
       inkscape:connector-curvature="0"
       sodipodi:nodetypes="ccccc" />
    <path
       style="fill:none;stroke:#655871;stroke-width:3.265;stroke-linecap:round;stroke-linejoin:round;stroke-opacity:0.96274507;stroke-miterlimit:4;stroke-dasharray:none"
       d="m 243.93992,68.601623 c 0.17637,-2.116667 0.31782,-4.236535 0.52917,-6.349997 0.0878,-0.877568 0.0878,1.768266 0,2.645833 -0.49676,4.967536 -0.52917,9.815838 -0.52917,14.816666 0,8.678122 -0.52917,17.232508 -0.52917,25.929165"
       id="path994"
       inkscape:connector-curvature="0" />
    <path
       style="fill:none;stroke:#ff0052;stroke-width:5.558;stroke-linecap:round;stroke-linejoin:round;stroke-miterlimit:4;stroke-dasharray:none;stroke-opacity:1"
       d="m -110.93086,-57.970415 c 2.32421,-5.429814 6.79757,-13.006712 12.65543,-16.837955 5.557032,-3.634477 13.212172,3.858992 15.884722,7.791836 11.19406,16.472874 8.29996,39.552125 -9.80701,61.9847475 -18.106972,22.4326225 -36.181622,-7.2057845 -18.176822,-5.3168085 18.004802,1.888976 40.077782,24.897225 53.860729,2.9187973"
       id="path997"
       inkscape:connector-curvature="0"
       sodipodi:nodetypes="ccszzc" />
    <g
       id="g1082"
       transform="matrix(-0.8289513,0.30654161,-0.33513384,-0.75822862,-327.27606,34.319306)">
      <path
         inkscape:connector-curvature="0"
         id="path1292-2"
         d="M -240.34776,-8.7068777 H -97.892387"
         style="fill:none;stroke:#000000;stroke-width:6.52700043;stroke-linecap:round;stroke-linejoin:round;stroke-miterlimit:4;stroke-dasharray:none;stroke-opacity:1" />
      <path
         inkscape:connector-curvature="0"
         id="path1292-5-7"
         d="m -132.61201,-25.54359 71.335707,16.5262925"
         style="fill:none;stroke:#000000;stroke-width:6.52700043;stroke-linecap:round;stroke-linejoin:round;stroke-miterlimit:4;stroke-dasharray:none;stroke-opacity:1" />
      <path
         inkscape:connector-curvature="0"
         id="path1292-5-5-0"
         d="M -132.61201,7.5090069 -61.276303,-9.0172975"
         style="fill:none;stroke:#000000;stroke-width:6.52700043;stroke-linecap:round;stroke-linejoin:round;stroke-miterlimit:4;stroke-dasharray:none;stroke-opacity:1" />
    </g>
  </g>
</svg>
