<?xml version="1.0" encoding="UTF-8" standalone="no"?>
<!-- Created with Inkscape (http://www.inkscape.org/) -->

<svg
   xmlns:dc="http://purl.org/dc/elements/1.1/"
   xmlns:cc="http://creativecommons.org/ns#"
   xmlns:rdf="http://www.w3.org/1999/02/22-rdf-syntax-ns#"
   xmlns:svg="http://www.w3.org/2000/svg"
   xmlns="http://www.w3.org/2000/svg"
   xmlns:sodipodi="http://sodipodi.sourceforge.net/DTD/sodipodi-0.dtd"
   xmlns:inkscape="http://www.inkscape.org/namespaces/inkscape"
   width="3100.0403"
   height="852.36163"
   viewBox="0 0 820.21895 225.5207"
   version="1.1"
   id="svg8"
   inkscape:version="0.92.3 (2405546, 2018-03-11)"
   sodipodi:docname="classification.svg"
   inkscape:export-filename="/home/zuzana/Documents/Kasiopea/201819/diplomy/diplom2.png"
   inkscape:export-xdpi="90"
   inkscape:export-ydpi="90">
  <defs
     id="defs2" />
  <sodipodi:namedview
     id="base"
     pagecolor="#ffffff"
     bordercolor="#666666"
     borderopacity="1.0"
     inkscape:pageopacity="0.0"
     inkscape:pageshadow="2"
     inkscape:zoom="0.25000001"
     inkscape:cx="1777.5515"
     inkscape:cy="-109.78418"
     inkscape:document-units="mm"
     inkscape:current-layer="layer1"
     showgrid="false"
     inkscape:window-width="1839"
     inkscape:window-height="1025"
     inkscape:window-x="81"
     inkscape:window-y="27"
     inkscape:window-maximized="1"
     inkscape:measure-start="0,0"
     inkscape:measure-end="0,0"
     inkscape:lockguides="false"
     showguides="true"
     units="px"
     fit-margin-top="50"
     fit-margin-left="50"
     fit-margin-right="50"
     fit-margin-bottom="50" />
  <metadata
     id="metadata5">
    <rdf:RDF>
      <cc:Work
         rdf:about="">
        <dc:format>image/svg+xml</dc:format>
        <dc:type
           rdf:resource="http://purl.org/dc/dcmitype/StillImage" />
        <dc:title></dc:title>
      </cc:Work>
    </rdf:RDF>
  </metadata>
  <g
     inkscape:label="Layer 1"
     inkscape:groupmode="layer"
     id="layer1"
     transform="translate(501.12671,97.123223)">
    <g
       id="g861"
       transform="matrix(0.87978942,0,0,1,2.1258775,2.1166666)">
      <path
         style="opacity:1;fill:none;fill-opacity:1;stroke:#000000;stroke-width:7.0105381;stroke-linecap:round;stroke-linejoin:round;stroke-miterlimit:4;stroke-dasharray:none;stroke-dashoffset:0;stroke-opacity:1"
         d="m -310.74081,33.453156 h 67.8142 c 1.3601,0 2.45505,1.213962 2.45505,2.721889 v 75.184995 c 0,1.50793 -1.09495,2.72189 -2.45505,2.72189 h -67.8142 c -1.3601,0 -2.45505,-1.21396 -2.45505,-2.72189 V 36.175045 c 0,-1.507927 1.09495,-2.721889 2.45505,-2.721889 z"
         id="rect862" />
      <path
         style="opacity:1;fill:none;fill-opacity:1;stroke:#000000;stroke-width:7.0105381;stroke-linecap:round;stroke-linejoin:round;stroke-miterlimit:4;stroke-dasharray:none;stroke-dashoffset:0;stroke-opacity:1"
         d="m -238.01654,33.453156 h 67.81421 c 1.36009,0 2.45505,1.213962 2.45505,2.721889 v 75.184995 c 0,1.50793 -1.09496,2.72189 -2.45505,2.72189 h -67.81421 c -1.3601,0 -2.45505,-1.21396 -2.45505,-2.72189 V 36.175045 c 0,-1.507927 1.09495,-2.721889 2.45505,-2.721889 z"
         id="rect862-3" />
      <path
         style="opacity:1;fill:none;fill-opacity:1;stroke:#000000;stroke-width:7.0105381;stroke-linecap:round;stroke-linejoin:round;stroke-miterlimit:4;stroke-dasharray:none;stroke-dashoffset:0;stroke-opacity:1"
         d="m -165.29221,33.453156 h 67.814213 c 1.360096,0 2.455048,1.213962 2.455048,2.721889 v 75.184995 c 0,1.50793 -1.094952,2.72189 -2.455048,2.72189 h -67.814213 c -1.36009,0 -2.45504,-1.21396 -2.45504,-2.72189 V 36.175045 c 0,-1.507927 1.09495,-2.721889 2.45504,-2.721889 z"
         id="rect862-6" />
      <path
         style="opacity:1;fill:none;fill-opacity:1;stroke:#000000;stroke-width:7.0105381;stroke-linecap:round;stroke-linejoin:round;stroke-miterlimit:4;stroke-dasharray:none;stroke-dashoffset:0;stroke-opacity:1"
         d="m -92.567894,33.453156 h 67.814209 c 1.360096,0 2.455048,1.213962 2.455048,2.721889 v 75.184995 c 0,1.50793 -1.094952,2.72189 -2.455048,2.72189 h -67.814209 c -1.360096,0 -2.455048,-1.21396 -2.455048,-2.72189 V 36.175045 c 0,-1.507927 1.094952,-2.721889 2.455048,-2.721889 z"
         id="rect862-3-7" />
      <path
         style="opacity:1;fill:none;fill-opacity:1;stroke:#000000;stroke-width:7.0105381;stroke-linecap:round;stroke-linejoin:round;stroke-miterlimit:4;stroke-dasharray:none;stroke-dashoffset:0;stroke-opacity:1"
         d="m -19.843582,33.453156 h 67.814209 c 1.360096,0 2.455047,1.213962 2.455047,2.721889 v 75.184995 c 0,1.50793 -1.094951,2.72189 -2.455047,2.72189 h -67.814209 c -1.360096,0 -2.455048,-1.21396 -2.455048,-2.72189 V 36.175045 c 0,-1.507927 1.094952,-2.721889 2.455048,-2.721889 z"
         id="rect862-5" />
      <path
         style="opacity:1;fill:none;fill-opacity:1;stroke:#000000;stroke-width:7.0105381;stroke-linecap:round;stroke-linejoin:round;stroke-miterlimit:4;stroke-dasharray:none;stroke-dashoffset:0;stroke-opacity:1"
         d="m 52.880722,33.453156 h 67.814208 c 1.3601,0 2.45505,1.213962 2.45505,2.721889 v 75.184995 c 0,1.50793 -1.09495,2.72189 -2.45505,2.72189 H 52.880722 c -1.360096,0 -2.455048,-1.21396 -2.455048,-2.72189 V 36.175045 c 0,-1.507927 1.094952,-2.721889 2.455048,-2.721889 z"
         id="rect862-3-3" />
      <path
         style="opacity:1;fill:none;fill-opacity:1;stroke:#000000;stroke-width:7.0105381;stroke-linecap:round;stroke-linejoin:round;stroke-miterlimit:4;stroke-dasharray:none;stroke-dashoffset:0;stroke-opacity:1"
         d="m 125.60503,33.453156 h 67.81421 c 1.3601,0 2.45505,1.213962 2.45505,2.721889 v 75.184995 c 0,1.50793 -1.09495,2.72189 -2.45505,2.72189 h -67.81421 c -1.36009,0 -2.45504,-1.21396 -2.45504,-2.72189 V 36.175045 c 0,-1.507927 1.09495,-2.721889 2.45504,-2.721889 z"
         id="rect862-56" />
      <path
         style="opacity:1;fill:none;fill-opacity:1;stroke:#000000;stroke-width:7.0105381;stroke-linecap:round;stroke-linejoin:round;stroke-miterlimit:4;stroke-dasharray:none;stroke-dashoffset:0;stroke-opacity:1"
         d="m 198.32935,33.453156 h 67.8142 c 1.3601,0 2.45505,1.213962 2.45505,2.721889 v 75.184995 c 0,1.50793 -1.09495,2.72189 -2.45505,2.72189 h -67.8142 c -1.3601,0 -2.45505,-1.21396 -2.45505,-2.72189 V 36.175045 c 0,-1.507927 1.09495,-2.721889 2.45505,-2.721889 z"
         id="rect862-3-2" />
      <path
         style="opacity:1;fill:none;fill-opacity:1;stroke:#000000;stroke-width:7.0105381;stroke-linecap:round;stroke-linejoin:round;stroke-miterlimit:4;stroke-dasharray:none;stroke-dashoffset:0;stroke-opacity:1"
         d="m -456.18948,33.453156 h 67.81421 c 1.36009,0 2.45504,1.213962 2.45504,2.721889 v 75.184995 c 0,1.50793 -1.09495,2.72189 -2.45504,2.72189 h -67.81421 c -1.3601,0 -2.45505,-1.21396 -2.45505,-2.72189 V 36.175045 c 0,-1.507927 1.09495,-2.721889 2.45505,-2.721889 z"
         id="rect862-9" />
      <path
         style="opacity:1;fill:none;fill-opacity:1;stroke:#000000;stroke-width:7.0105381;stroke-linecap:round;stroke-linejoin:round;stroke-miterlimit:4;stroke-dasharray:none;stroke-dashoffset:0;stroke-opacity:1"
         d="m -383.46518,33.453156 h 67.81421 c 1.3601,0 2.45505,1.213962 2.45505,2.721889 v 75.184995 c 0,1.50793 -1.09495,2.72189 -2.45505,2.72189 h -67.81421 c -1.3601,0 -2.45505,-1.21396 -2.45505,-2.72189 V 36.175045 c 0,-1.507927 1.09495,-2.721889 2.45505,-2.721889 z"
         id="rect862-3-1" />
    </g>
    <path
       style="fill:none;stroke:#ff0052;stroke-width:7.65799999;stroke-linecap:round;stroke-linejoin:round;stroke-miterlimit:4;stroke-dasharray:none;stroke-opacity:1"
       d="m -104.05165,-57.970415 c 2.32421,-5.429814 6.797552,-13.006712 12.655391,-16.837955 5.557032,-3.634477 13.212172,3.858992 15.884722,7.791836 11.19406,16.472874 8.29996,39.552125 -9.80701,61.9847475 -18.106933,22.4326225 -36.181583,-7.2057845 -18.176783,-5.3168085 18.004763,1.888976 40.077743,24.897225 53.86069,2.9187973"
       id="path997"
       inkscape:connector-curvature="0"
       sodipodi:nodetypes="ccszzc" />
    <g
       id="g1082"
       transform="matrix(-0.67550656,0.24744897,-0.2730982,-0.61206337,-286.12271,32.524314)">
      <path
         inkscape:connector-curvature="0"
         id="path1292-2"
         d="M -240.34776,-8.7068777 H -97.892387"
         style="fill:none;stroke:#000000;stroke-width:6.52700043;stroke-linecap:round;stroke-linejoin:round;stroke-miterlimit:4;stroke-dasharray:none;stroke-opacity:1" />
      <path
         inkscape:connector-curvature="0"
         id="path1292-5-7"
         d="m -132.61201,-25.54359 71.335707,16.5262925"
         style="fill:none;stroke:#000000;stroke-width:6.52700043;stroke-linecap:round;stroke-linejoin:round;stroke-miterlimit:4;stroke-dasharray:none;stroke-opacity:1" />
      <path
         inkscape:connector-curvature="0"
         id="path1292-5-5-0"
         d="M -132.61201,7.5090069 -61.276303,-9.0172975"
         style="fill:none;stroke:#000000;stroke-width:6.52700043;stroke-linecap:round;stroke-linejoin:round;stroke-miterlimit:4;stroke-dasharray:none;stroke-opacity:1" />
    </g>
    <g
       aria-label="0 1 2 3 4 5 6 7 8 9 "
       transform="matrix(0.42919484,0,0,0.42919484,-360.91677,-445.23553)"
       style="font-style:normal;font-weight:normal;font-size:40px;line-height:1.25;font-family:sans-serif;letter-spacing:0px;word-spacing:0px;fill:#000000;fill-opacity:1;stroke:none"
       id="flowRoot843">
      <path
         d="m -55.104,1166.103 q 12.48,-15.744 36.864,-15.744 24.384,0 36.672,15.744 12.48,15.744 12.48,50.688 0,34.752 -12.288,49.92 -12.288,14.976 -36.864,14.976 -24.576,0 -36.864,-14.976 -12.288,-15.168 -12.288,-49.92 0,-34.944 12.288,-50.688 z m 58.752,50.112 q 0,-23.808 -4.992,-33.216 -4.992,-9.6 -16.896,-9.6 -11.712,0 -16.896,9.6 -4.992,9.6 -4.992,33.216 0,23.616 5.184,33.024 5.184,9.408 16.896,9.408 11.712,0 16.704,-9.408 4.992,-9.408 4.992,-33.024 z"
         style="font-style:normal;font-variant:normal;font-weight:normal;font-stretch:normal;font-size:192px;font-family:'Titillium Web';-inkscape-font-specification:'Titillium Web';fill:#7e7e7e;fill-opacity:1"
         id="path863" />
      <path
         d="m 158.256,1152.663 v 126.72 H 131.76 v -96.768 l -27.456,17.664 -12.096,-19.776 41.856,-27.84 z"
         style="font-style:normal;font-variant:normal;font-weight:normal;font-stretch:normal;font-size:192px;font-family:'Titillium Web';-inkscape-font-specification:'Titillium Web';fill:#7e7e7e;fill-opacity:1"
         id="path865" />
      <path
         d="M 322.656,1279.383 H 240.48 v -22.464 l 27.072,-27.456 q 14.4,-14.784 19.968,-22.656 5.76,-7.872 5.76,-16.704 0,-9.024 -4.8,-12.672 -4.608,-3.648 -13.248,-3.648 -12.864,0 -28.032,2.304 l -4.608,0.576 -1.344,-20.544 q 18.816,-5.76 38.976,-5.76 40.32,0 40.32,36.288 0,14.208 -6.144,24.576 -6.144,10.368 -22.272,25.152 l -22.08,19.968 h 52.608 z"
         style="font-style:normal;font-variant:normal;font-weight:normal;font-stretch:normal;font-size:192px;font-family:'Titillium Web';-inkscape-font-specification:'Titillium Web';fill:#7e7e7e;fill-opacity:1"
         id="path867" />
      <path
         d="m 389.904,1157.271 q 17.664,-6.912 39.36,-6.912 21.888,0 31.872,8.448 9.984,8.256 9.984,26.688 0,18.432 -14.784,28.224 9.216,4.992 13.056,10.368 4.032,5.376 4.032,17.088 0,20.544 -10.368,30.528 -10.176,9.984 -32.832,9.984 -16.704,0 -35.136,-4.992 l -6.144,-1.536 1.344,-20.16 q 21.504,3.648 36.096,3.648 19.776,0 19.776,-16.896 0,-7.104 -5.184,-11.328 -4.992,-4.224 -13.248,-4.224 h -25.536 v -21.888 h 25.536 q 6.336,0 11.136,-5.376 4.992,-5.376 4.992,-11.904 0,-13.632 -19.008,-13.632 -13.248,0 -28.224,2.688 l -4.992,0.768 z"
         style="font-style:normal;font-variant:normal;font-weight:normal;font-stretch:normal;font-size:192px;font-family:'Titillium Web';-inkscape-font-specification:'Titillium Web';fill:#7e7e7e;fill-opacity:1"
         id="path869" />
      <path
         d="m 589.44,1279.383 v -20.928 h -53.76 v -20.16 l 31.296,-85.632 h 29.184 l -33.984,82.752 h 27.264 v -35.52 h 26.496 v 35.52 h 12.096 v 23.04 h -12.096 v 20.928 z"
         style="font-style:normal;font-variant:normal;font-weight:normal;font-stretch:normal;font-size:192px;font-family:'Titillium Web';-inkscape-font-specification:'Titillium Web';fill:#7e7e7e;fill-opacity:1"
         id="path871" />
      <path
         d="m 772.08,1152.663 v 23.04 h -56.64 l -3.264,27.456 q 11.904,-4.608 22.656,-4.608 41.088,0 41.088,38.208 0,21.504 -11.328,33.216 -11.328,11.712 -32.064,11.712 -8.832,0 -20.16,-1.728 -11.136,-1.728 -17.856,-3.648 l -6.912,-1.728 2.88,-19.584 q 23.232,3.648 38.784,3.648 9.408,0 14.4,-4.992 4.992,-4.992 4.992,-14.208 0,-9.408 -4.224,-13.632 -4.224,-4.224 -11.904,-4.224 -12.864,0 -22.656,2.496 l -2.88,0.768 -15.744,-3.648 3.456,-68.544 z"
         style="font-style:normal;font-variant:normal;font-weight:normal;font-stretch:normal;font-size:192px;font-family:'Titillium Web';-inkscape-font-specification:'Titillium Web';fill:#7e7e7e;fill-opacity:1"
         id="path873" />
      <path
         d="m 923.232,1176.279 q -19.584,-2.88 -33.984,-2.88 -27.264,0 -27.264,29.568 l 4.032,-1.152 q 12.672,-3.648 20.16,-3.648 21.696,0 32.64,9.984 10.944,9.984 10.944,31.104 0,20.928 -12.288,31.68 -12.288,10.752 -35.712,10.752 -23.232,0 -35.136,-16.896 -11.904,-17.088 -11.904,-50.112 0,-33.024 13.632,-48.576 13.632,-15.744 39.168,-15.744 14.976,0 32.064,4.224 l 5.952,1.344 z m -39.36,44.928 q -9.024,0 -18.816,3.264 l -3.264,0.96 q 0,33.216 21.504,33.216 9.216,0 14.208,-4.992 4.992,-5.184 4.992,-14.4 0,-18.048 -18.624,-18.048 z"
         style="font-style:normal;font-variant:normal;font-weight:normal;font-stretch:normal;font-size:192px;font-family:'Titillium Web';-inkscape-font-specification:'Titillium Web';fill:#7e7e7e;fill-opacity:1"
         id="path875" />
      <path
         d="m 991.248,1176.279 v -23.616 h 81.024 v 29.952 l -45.12,99.072 -24.576,-6.912 43.2,-92.352 v -6.144 z"
         style="font-style:normal;font-variant:normal;font-weight:normal;font-stretch:normal;font-size:192px;font-family:'Titillium Web';-inkscape-font-specification:'Titillium Web';fill:#7e7e7e;fill-opacity:1"
         id="path877" />
      <path
         d="m 1147.968,1159.575 q 12.48,-9.216 33.408,-9.216 20.928,0 33.792,9.216 12.864,9.216 12.864,25.536 0,11.136 -2.688,16.704 -2.688,5.568 -11.136,12.288 8.448,7.104 12.096,13.44 3.648,6.336 3.648,17.472 0,18.816 -13.44,27.84 -13.44,8.832 -35.136,8.832 -48,0 -48,-34.56 0,-12.288 3.648,-19.008 3.84,-6.912 12.288,-14.016 -8.064,-6.528 -10.944,-12.672 -2.88,-6.336 -2.88,-16.512 0,-16.32 12.48,-25.344 z m 13.824,81.408 q 0,16.896 19.776,16.896 19.968,0 19.968,-16.896 0,-9.984 -11.328,-14.4 h -16.896 q -11.52,4.416 -11.52,14.4 z m 19.968,-66.816 q -8.64,0 -13.248,3.84 -4.608,3.84 -4.608,11.712 0,7.872 9.408,14.4 h 16.896 q 9.408,-6.528 9.408,-14.976 0,-14.976 -17.856,-14.976 z"
         style="font-style:normal;font-variant:normal;font-weight:normal;font-stretch:normal;font-size:192px;font-family:'Titillium Web';-inkscape-font-specification:'Titillium Web';fill:#7e7e7e;fill-opacity:1"
         id="path879" />
      <path
         d="m 1325.616,1258.647 q 25.536,0 25.536,-31.104 l -4.032,1.344 q -13.248,4.416 -20.16,4.416 -20.928,0 -32.256,-10.176 -11.328,-10.176 -11.328,-30.144 0,-20.16 12.48,-31.296 12.48,-11.328 35.328,-11.328 23.04,0 35.136,17.088 12.096,16.896 12.096,50.496 0,33.408 -13.44,48.576 -13.44,15.168 -39.36,15.168 -14.976,0 -32.064,-4.224 l -5.952,-1.344 2.304,-20.352 q 19.584,2.88 35.712,2.88 z m 3.648,-48.384 q 8.832,0 19.008,-3.456 l 3.072,-0.96 q 0,-32.448 -21.504,-32.448 -9.216,0 -14.208,5.184 -4.992,4.992 -4.992,14.208 0,17.472 18.624,17.472 z"
         style="font-style:normal;font-variant:normal;font-weight:normal;font-stretch:normal;font-size:192px;font-family:'Titillium Web';-inkscape-font-specification:'Titillium Web';fill:#7e7e7e;fill-opacity:1"
         id="path881" />
    </g>
  </g>
</svg>
