<?xml version="1.0" encoding="UTF-8" standalone="no"?>
<!-- Created with Inkscape (http://www.inkscape.org/) -->

<svg
   xmlns:dc="http://purl.org/dc/elements/1.1/"
   xmlns:cc="http://creativecommons.org/ns#"
   xmlns:rdf="http://www.w3.org/1999/02/22-rdf-syntax-ns#"
   xmlns:svg="http://www.w3.org/2000/svg"
   xmlns="http://www.w3.org/2000/svg"
   xmlns:sodipodi="http://sodipodi.sourceforge.net/DTD/sodipodi-0.dtd"
   xmlns:inkscape="http://www.inkscape.org/namespaces/inkscape"
   width="3877.4001"
   height="634.71338"
   viewBox="0 0 1025.8954 167.93459"
   version="1.1"
   id="svg8"
   inkscape:version="0.92.3 (2405546, 2018-03-11)"
   sodipodi:docname="header_contacts.svg"
   inkscape:export-filename="/home/zuzana/Documents/Kasiopea/201819/diplomy/diplom2.png"
   inkscape:export-xdpi="90"
   inkscape:export-ydpi="90">
  <defs
     id="defs2" />
  <sodipodi:namedview
     id="base"
     pagecolor="#ffffff"
     bordercolor="#666666"
     borderopacity="1.0"
     inkscape:pageopacity="0.0"
     inkscape:pageshadow="2"
     inkscape:zoom="0.5"
     inkscape:cx="2863.7135"
     inkscape:cy="322.27312"
     inkscape:document-units="mm"
     inkscape:current-layer="layer1"
     showgrid="false"
     inkscape:window-width="1839"
     inkscape:window-height="1025"
     inkscape:window-x="81"
     inkscape:window-y="27"
     inkscape:window-maximized="1"
     inkscape:measure-start="0,0"
     inkscape:measure-end="0,0"
     inkscape:lockguides="false"
     showguides="false"
     units="px"
     fit-margin-top="100.1"
     fit-margin-left="0"
     fit-margin-right="0"
     fit-margin-bottom="0" />
  <metadata
     id="metadata5">
    <rdf:RDF>
      <cc:Work
         rdf:about="">
        <dc:format>image/svg+xml</dc:format>
        <dc:type
           rdf:resource="http://purl.org/dc/dcmitype/StillImage" />
        <dc:title />
      </cc:Work>
    </rdf:RDF>
  </metadata>
  <g
     inkscape:label="Layer 1"
     inkscape:groupmode="layer"
     id="layer1"
     transform="translate(196.16626,-117.59553)">
    <path
       inkscape:export-ydpi="90"
       inkscape:export-xdpi="90"
       sodipodi:nodetypes="cczzzcccczcccc"
       inkscape:connector-curvature="0"
       id="path3475"
       d="m -193.90259,268.29233 c 40.42566,-3.52422 126.393949,-14.27068 134.255048,-58.08434 0,0 14.935873,64.76348 38.980277,61.23967 24.0443089,-3.52377 45.055526,-38.72744 66.418736,-25.09862 21.36326,13.62869 47.755468,17.60155 70.595829,20.37384 22.8404,2.77241 39.36451,-9.80113 56.82207,-22.45513 38.25286,81.07247 70.00612,-4.71264 111.68928,4.90165 20.20836,3.49135 16.63439,41.78638 37.36069,27.51989 48.35728,-39.2502 77.62624,-31.42624 123.03857,-1.72097 20.08997,13.15483 55.71894,2.55027 74.41445,-11.34623 18.69548,-13.89658 67.92455,44.53244 78.93184,5.24647 105.02865,45.6255 50.62256,-30.40433 90.91987,-43.34348 21.10248,-7.81002 29.50702,-79.2138 29.50702,-79.2138 9.98089,41.45391 56.58751,94.43048 108.4401,131.04395"
       style="fill:none;fill-opacity:1;fill-rule:evenodd;stroke:#cab2de;stroke-width:2.664;stroke-linecap:round;stroke-linejoin:round;stroke-miterlimit:4;stroke-dasharray:none;stroke-opacity:1" />
    <path
       style="fill:#a15e5e;fill-opacity:1;stroke:#ffffff;stroke-width:2.11400008;stroke-linecap:square;stroke-linejoin:miter;stroke-miterlimit:4;stroke-dasharray:none;stroke-opacity:1"
       d="m 297.51557,193.46047 -4.50037,18.94451"
       id="path3463"
       inkscape:connector-curvature="0" />
    <path
       style="fill:#a15e5e;fill-opacity:1;stroke:#ffffff;stroke-width:2.11400008;stroke-linecap:square;stroke-linejoin:miter;stroke-miterlimit:4;stroke-dasharray:none;stroke-opacity:1"
       d="m 300.0081,183.91594 -0.33351,1.67746"
       id="path3465"
       inkscape:connector-curvature="0"
       sodipodi:nodetypes="cc" />
    <g
       id="g3473"
       transform="matrix(2.3460677,0,0,2.2201933,-34.57525,-184.85351)"
       style="stroke:#ffffff;stroke-width:0.92627364;stroke-miterlimit:4;stroke-dasharray:none;stroke-opacity:1">
      <path
         inkscape:connector-curvature="0"
         id="path3467"
         d="m 147.60443,168.18098 -1.91823,8.53282"
         style="fill:#a15e5e;fill-opacity:1;stroke:#ffffff;stroke-width:0.92627364;stroke-linecap:square;stroke-linejoin:miter;stroke-miterlimit:4;stroke-dasharray:none;stroke-opacity:1" />
      <path
         inkscape:connector-curvature="0"
         id="path3469"
         d="m 145.18662,170.37621 4.60629,-0.0248"
         style="fill:#a15e5e;fill-opacity:1;stroke:#ffffff;stroke-width:0.92627364;stroke-linecap:square;stroke-linejoin:miter;stroke-miterlimit:4;stroke-dasharray:none;stroke-opacity:1" />
      <path
         sodipodi:nodetypes="cc"
         inkscape:connector-curvature="0"
         id="path3471"
         d="m 145.6862,176.7138 c -1.56212,2.56419 1.9376,2.53768 3.42347,1.99939"
         style="fill:none;stroke:#ffffff;stroke-width:0.92627364;stroke-linecap:butt;stroke-linejoin:miter;stroke-miterlimit:4;stroke-dasharray:none;stroke-opacity:1" />
    </g>
    <path
       style="fill:none;fill-opacity:1;stroke:#ffffff;stroke-width:2.11400008;stroke-linecap:butt;stroke-linejoin:miter;stroke-miterlimit:4;stroke-dasharray:none;stroke-opacity:1"
       d="m 239.31501,184.2557 c -11.69102,-4.95457 -17.12013,-1.80945 -17.66663,5.39984 -0.54646,7.20936 12.46351,5.17233 11.412,14.33039 -1.05158,9.15805 -18.54453,4.9845 -18.54453,4.9845"
       id="path3571"
       inkscape:connector-curvature="0"
       sodipodi:nodetypes="czzc" />
    <path
       style="fill:none;stroke:#ffffff;stroke-width:2.11400008;stroke-linecap:butt;stroke-linejoin:miter;stroke-miterlimit:4;stroke-dasharray:none;stroke-opacity:1"
       d="m 255.0818,213.74722 4.60869,-22.11864 c 0,0 -8.891,-1.83655 -12.94823,1.5576 -4.05718,3.39419 -7.44102,11.27547 -2.74327,15.57647 4.69778,4.30099 12.28983,-3.53065 12.28983,-3.53065"
       id="path3573"
       inkscape:connector-curvature="0"
       sodipodi:nodetypes="cczzc" />
    <path
       style="fill:none;stroke:#ffffff;stroke-width:2.11400008;stroke-linecap:butt;stroke-linejoin:miter;stroke-miterlimit:4;stroke-dasharray:none;stroke-opacity:1"
       d="m 289.53723,191.9401 c 0,0 -14.42686,-2.41976 -17.88613,0.62312 -3.45923,3.0428 -2.43582,6.26781 0.76804,8.5151 3.20383,2.24738 7.86633,0.68343 9.54655,-1.86919 1.68033,-2.55255 0.65836,-7.37284 0.65836,-7.37284"
       id="path3575"
       inkscape:connector-curvature="0"
       sodipodi:nodetypes="czzzc" />
    <path
       style="fill:none;stroke:#ffffff;stroke-width:2.11400008;stroke-linecap:butt;stroke-linejoin:miter;stroke-miterlimit:4;stroke-dasharray:none;stroke-opacity:1"
       d="m 272.9679,201.38984 c 0,0 -4.09354,4.12085 -2.74324,6.85366 1.35022,2.73281 9.11765,0.70912 10.75353,3.53072 1.63594,2.82152 1.09611,6.18024 -2.08484,8.30744 -3.18092,2.12723 -11.79304,1.33322 -13.71638,-2.07686"
       id="path3577"
       inkscape:connector-curvature="0"
       sodipodi:nodetypes="czzzc" />
    <g
       transform="matrix(2.3460677,0,0,2.2201933,-16.37829,-184.85351)"
       id="g3585"
       style="stroke:#ffffff;stroke-width:0.92627364;stroke-miterlimit:4;stroke-dasharray:none;stroke-opacity:1">
      <path
         inkscape:connector-curvature="0"
         id="path3579"
         d="m 147.60443,168.18098 -1.91823,8.53282"
         style="fill:#a15e5e;fill-opacity:1;stroke:#ffffff;stroke-width:0.92627364;stroke-linecap:square;stroke-linejoin:miter;stroke-miterlimit:4;stroke-dasharray:none;stroke-opacity:1" />
      <path
         inkscape:connector-curvature="0"
         id="path3581"
         d="m 145.18662,170.37621 4.60629,-0.0248"
         style="fill:#a15e5e;fill-opacity:1;stroke:#ffffff;stroke-width:0.92627364;stroke-linecap:square;stroke-linejoin:miter;stroke-miterlimit:4;stroke-dasharray:none;stroke-opacity:1" />
      <path
         sodipodi:nodetypes="cc"
         inkscape:connector-curvature="0"
         id="path3583"
         d="m 145.6862,176.7138 c -1.56212,2.56419 1.9376,2.53768 3.42347,1.99939"
         style="fill:none;stroke:#ffffff;stroke-width:0.92627364;stroke-linecap:butt;stroke-linejoin:miter;stroke-miterlimit:4;stroke-dasharray:none;stroke-opacity:1" />
    </g>
    <path
       style="fill:none;stroke:#ffffff;stroke-width:1.61399996;stroke-linecap:butt;stroke-linejoin:miter;stroke-miterlimit:4;stroke-dasharray:none;stroke-opacity:1"
       d="m 353.51292,215.87809 4.60868,-22.11856 c 0,0 -8.891,-1.83663 -12.94826,1.55752 -4.05715,3.39422 -7.44098,11.27547 -2.74324,15.57647 4.69775,4.30106 12.28987,-3.53061 12.28987,-3.53061"
       id="path3587"
       inkscape:connector-curvature="0"
       sodipodi:nodetypes="cczzc" />
    <ellipse
       style="opacity:1;fill:none;fill-opacity:1;stroke:#ec1d56;stroke-width:2.06699991;stroke-linecap:round;stroke-linejoin:round;stroke-miterlimit:4;stroke-dasharray:none;stroke-dashoffset:0;stroke-opacity:1"
       id="circle3589"
       cx="373.01788"
       cy="190.77246"
       rx="3.9454248"
       ry="3.7337399" />
    <ellipse
       style="opacity:1;fill:none;fill-opacity:1;stroke:#ec1d56;stroke-width:2.06699991;stroke-linecap:round;stroke-linejoin:round;stroke-miterlimit:4;stroke-dasharray:none;stroke-dashoffset:0;stroke-opacity:1"
       id="circle3591"
       cx="395.75555"
       cy="200.92096"
       rx="3.9454248"
       ry="3.7337399" />
    <ellipse
       style="opacity:1;fill:none;fill-opacity:1;stroke:#ec1d56;stroke-width:2.06699991;stroke-linecap:round;stroke-linejoin:round;stroke-miterlimit:4;stroke-dasharray:none;stroke-dashoffset:0;stroke-opacity:1"
       id="circle3593"
       cx="386.91101"
       cy="210.68604"
       rx="3.9454248"
       ry="3.7337399" />
    <ellipse
       style="opacity:1;fill:none;fill-opacity:1;stroke:#ec1d56;stroke-width:2.06699991;stroke-linecap:round;stroke-linejoin:round;stroke-miterlimit:4;stroke-dasharray:none;stroke-dashoffset:0;stroke-opacity:1"
       id="circle3595"
       cx="347.99518"
       cy="173.57901"
       rx="3.9454248"
       ry="3.7337399" />
    <ellipse
       style="opacity:1;fill:none;fill-opacity:1;stroke:#ec1d56;stroke-width:2.06699991;stroke-linecap:round;stroke-linejoin:round;stroke-miterlimit:4;stroke-dasharray:none;stroke-dashoffset:0;stroke-opacity:1"
       id="circle3597"
       cx="332.36969"
       cy="161.02405"
       rx="3.9454248"
       ry="3.7337399" />
    <path
       style="fill:none;stroke:#ec1d56;stroke-width:2.06699991;stroke-linecap:butt;stroke-linejoin:miter;stroke-miterlimit:4;stroke-dasharray:none;stroke-opacity:1"
       d="m 334.94337,163.48917 10.2149,7.69403"
       id="path3599"
       inkscape:connector-curvature="0" />
    <path
       style="fill:none;stroke:#ec1d56;stroke-width:2.06699991;stroke-linecap:butt;stroke-linejoin:miter;stroke-miterlimit:4;stroke-dasharray:none;stroke-opacity:1"
       d="m 351.43722,175.52127 17.73274,12.99502"
       id="path3601"
       inkscape:connector-curvature="0"
       sodipodi:nodetypes="cc" />
    <path
       style="fill:none;stroke:#ec1d56;stroke-width:2.06699991;stroke-linecap:butt;stroke-linejoin:miter;stroke-miterlimit:4;stroke-dasharray:none;stroke-opacity:1"
       d="m 375.29063,194.55912 8.72077,12.4448"
       id="path3603"
       inkscape:connector-curvature="0"
       sodipodi:nodetypes="cc" />
    <path
       style="fill:none;stroke:#ec1d56;stroke-width:2.06699991;stroke-linecap:butt;stroke-linejoin:miter;stroke-miterlimit:4;stroke-dasharray:none;stroke-opacity:1"
       d="m 377.7621,192.82359 14.17019,6.56936"
       id="path3605"
       inkscape:connector-curvature="0"
       sodipodi:nodetypes="cc" />
    <rect
       style="opacity:1;fill:none;fill-opacity:1;stroke:#cab2de;stroke-width:1.79916667;stroke-linecap:round;stroke-linejoin:round;stroke-miterlimit:4;stroke-dasharray:none;stroke-dashoffset:0;stroke-opacity:1"
       id="rect1102-7"
       width="61.524452"
       height="33.370636"
       x="629.26318"
       y="158.77812" />
    <path
       style="fill:none;stroke:#cab2de;stroke-width:1.79916667;stroke-linecap:round;stroke-linejoin:round;stroke-miterlimit:4;stroke-dasharray:none;stroke-opacity:1"
       d="m 629.26318,158.77812 30.36538,19.67403 31.15908,-19.67403"
       id="path1104-0"
       inkscape:connector-curvature="0" />
    <path
       style="fill:none;stroke:#cab2de;stroke-width:1.79916667;stroke-linecap:round;stroke-linejoin:round;stroke-miterlimit:4;stroke-dasharray:none;stroke-opacity:1"
       d="m 629.26318,192.14875 19.64975,-20.57577"
       id="path1106-9"
       inkscape:connector-curvature="0" />
    <path
       style="fill:none;stroke:#cab2de;stroke-width:1.79916667;stroke-linecap:round;stroke-linejoin:round;stroke-miterlimit:4;stroke-dasharray:none;stroke-opacity:1"
       d="m 690.78764,192.14876 -20.31117,-20.1789"
       id="path1108-3"
       inkscape:connector-curvature="0" />
    <rect
       style="opacity:1;fill:none;fill-opacity:1;stroke:#ec1d56;stroke-width:1.64225912;stroke-linecap:round;stroke-linejoin:round;stroke-miterlimit:4;stroke-dasharray:none;stroke-dashoffset:0;stroke-opacity:1"
       id="rect902"
       width="48.075665"
       height="66.525665"
       x="-150.9957"
       y="155.58568"
       ry="2.4000001"
       rx="2.4000001" />
    <g
       id="g960"
       transform="matrix(0.98686505,0,0,0.98686505,131.68451,50.265577)">
      <rect
         y="116.77613"
         x="-278.48526"
         height="8.6060791"
         width="8.6060791"
         id="rect904"
         style="opacity:1;fill:none;fill-opacity:1;stroke:#ec1d56;stroke-width:1.85208333;stroke-linecap:round;stroke-linejoin:round;stroke-miterlimit:4;stroke-dasharray:none;stroke-dashoffset:0;stroke-opacity:1" />
      <rect
         y="133.98828"
         x="-278.48526"
         height="8.6060791"
         width="8.6060791"
         id="rect904-3-6"
         style="opacity:1;fill:none;fill-opacity:1;stroke:#ec1d56;stroke-width:1.85208333;stroke-linecap:round;stroke-linejoin:round;stroke-miterlimit:4;stroke-dasharray:none;stroke-dashoffset:0;stroke-opacity:1" />
      <rect
         y="151.20044"
         x="-278.48526"
         height="8.6060791"
         width="8.6060791"
         id="rect904-3-6-5"
         style="opacity:1;fill:none;fill-opacity:1;stroke:#ec1d56;stroke-width:1.85208333;stroke-linecap:round;stroke-linejoin:round;stroke-miterlimit:4;stroke-dasharray:none;stroke-dashoffset:0;stroke-opacity:1" />
    </g>
    <g
       id="g1006"
       transform="translate(-24.341666,-10.583333)">
      <g
         style="fill:none;stroke:#cab2de;stroke-width:1.68625605;stroke-miterlimit:4;stroke-dasharray:none;stroke-opacity:1"
         transform="matrix(0.8822904,0.31199952,-0.27505075,0.77780454,76.317369,55.381892)"
         id="g867">
        <circle
           style="opacity:1;fill:none;fill-opacity:1;stroke:#cab2de;stroke-width:1.68625605;stroke-linecap:round;stroke-linejoin:round;stroke-miterlimit:4;stroke-dasharray:none;stroke-dashoffset:0;stroke-opacity:1"
           id="path834"
           cx="50.451393"
           cy="205.11157"
           r="0.8504464"
           transform="rotate(-5.926758)" />
        <path
           style="fill:none;fill-opacity:1;stroke:#cab2de;stroke-width:1.68625605;stroke-linecap:butt;stroke-linejoin:miter;stroke-miterlimit:4;stroke-dasharray:none;stroke-opacity:1"
           d="m 71.821029,182.18965 2.913657,-0.30247 1.030675,9.01317 c -2.586325,2.00269 -3.434468,5.41661 -4.414509,8.72343 -0.595965,-4.39448 -0.966466,-11.35712 0.470177,-17.43413 z"
           id="path832"
           inkscape:connector-curvature="0"
           sodipodi:nodetypes="ccccc" />
      </g>
      <rect
         transform="matrix(0.95498056,0.2966684,-0.31068432,0.95051315,0,0)"
         ry="2.6347685"
         rx="2.0750165"
         y="134.18449"
         x="152.26935"
         height="49.082645"
         width="4.4817538"
         id="rect836"
         style="opacity:1;fill:none;fill-opacity:1;stroke:#cab2de;stroke-width:1.48174679;stroke-linecap:round;stroke-linejoin:round;stroke-miterlimit:4;stroke-dasharray:none;stroke-dashoffset:0;stroke-opacity:1" />
      <rect
         style="opacity:1;fill:none;fill-opacity:1;stroke:none;stroke-width:1.48174679;stroke-linecap:round;stroke-linejoin:round;stroke-miterlimit:4;stroke-dasharray:none;stroke-dashoffset:0;stroke-opacity:1"
         id="rect908"
         width="4.4817538"
         height="49.082645"
         x="152.26935"
         y="134.18449"
         rx="2.0750165"
         ry="2.6347685"
         transform="matrix(0.95498056,0.2966684,-0.31068432,0.95051315,0,0)" />
      <ellipse
         style="opacity:1;fill:none;fill-opacity:1;stroke:#cab2de;stroke-width:1.76201355;stroke-linecap:round;stroke-linejoin:round;stroke-miterlimit:4;stroke-dasharray:none;stroke-dashoffset:0;stroke-opacity:1"
         id="ellipse910"
         cx="226.00809"
         cy="-18.063646"
         rx="1.129918"
         ry="10.909909"
         transform="matrix(0.43867903,0.89864382,-0.32523883,0.94563191,0,0)" />
    </g>
    <path
       style="fill:none;stroke:#ec1d56;stroke-width:2.2590125;stroke-linecap:round;stroke-linejoin:round;stroke-miterlimit:4;stroke-dasharray:none;stroke-opacity:1"
       d="m 509.20252,217.7151 c 0,0 -8.71561,-1.07531 -11.88266,6.64624 -3.16705,7.72154 1.15664,11.96643 5.84063,12.08406 4.68398,0.11763 6.04203,-18.7303 6.04203,-18.7303 0,0 -2.97297,15.619 1.81261,17.9247 4.78559,2.3057 10.00606,-2.00089 10.47286,-9.26445 0.46679,-7.26356 -6.94926,-17.05896 -17.9247,-15.70929 -10.97544,1.34968 -18.68691,13.41073 -13.49387,24.36953 5.19304,10.95882 22.95972,6.04204 22.95972,6.04204"
       id="path1010"
       inkscape:connector-curvature="0"
       sodipodi:nodetypes="czzczzzzc" />
  </g>
</svg>
