<?xml version="1.0" encoding="UTF-8" standalone="no"?>
<!-- Created with Inkscape (http://www.inkscape.org/) -->

<svg
   xmlns:dc="http://purl.org/dc/elements/1.1/"
   xmlns:cc="http://creativecommons.org/ns#"
   xmlns:rdf="http://www.w3.org/1999/02/22-rdf-syntax-ns#"
   xmlns:svg="http://www.w3.org/2000/svg"
   xmlns="http://www.w3.org/2000/svg"
   xmlns:sodipodi="http://sodipodi.sourceforge.net/DTD/sodipodi-0.dtd"
   xmlns:inkscape="http://www.inkscape.org/namespaces/inkscape"
   width="3877.4001"
   height="634.71338"
   viewBox="0 0 1025.8954 167.93459"
   version="1.1"
   id="svg8"
   inkscape:version="0.92.3 (2405546, 2018-03-11)"
   sodipodi:docname="header_activities.svg"
   inkscape:export-filename="/home/zuzana/Documents/Kasiopea/201819/diplomy/diplom2.png"
   inkscape:export-xdpi="90"
   inkscape:export-ydpi="90">
  <defs
     id="defs2" />
  <sodipodi:namedview
     id="base"
     pagecolor="#ffffff"
     bordercolor="#666666"
     borderopacity="1.0"
     inkscape:pageopacity="0.0"
     inkscape:pageshadow="2"
     inkscape:zoom="0.25"
     inkscape:cx="1715.7086"
     inkscape:cy="748.28789"
     inkscape:document-units="mm"
     inkscape:current-layer="layer1"
     showgrid="false"
     inkscape:window-width="1839"
     inkscape:window-height="1025"
     inkscape:window-x="81"
     inkscape:window-y="27"
     inkscape:window-maximized="1"
     inkscape:measure-start="0,0"
     inkscape:measure-end="0,0"
     inkscape:lockguides="false"
     showguides="false"
     units="px"
     fit-margin-top="100.1"
     fit-margin-left="0"
     fit-margin-right="0"
     fit-margin-bottom="0" />
  <metadata
     id="metadata5">
    <rdf:RDF>
      <cc:Work
         rdf:about="">
        <dc:format>image/svg+xml</dc:format>
        <dc:type
           rdf:resource="http://purl.org/dc/dcmitype/StillImage" />
        <dc:title />
      </cc:Work>
    </rdf:RDF>
  </metadata>
  <g
     inkscape:label="Layer 1"
     inkscape:groupmode="layer"
     id="layer1"
     transform="translate(196.16626,-117.59553)">
    <path
       inkscape:export-ydpi="90"
       inkscape:export-xdpi="90"
       sodipodi:nodetypes="cczzzcccczcccc"
       inkscape:connector-curvature="0"
       id="path3475"
       d="m -193.90259,268.29233 c 40.42566,-3.52422 126.393949,-14.27068 134.255048,-58.08434 0,0 14.935873,64.76348 38.980277,61.23967 24.0443089,-3.52377 45.055526,-38.72744 66.418736,-25.09862 21.36326,13.62869 47.755468,17.60155 70.595829,20.37384 22.8404,2.77241 39.36451,-9.80113 56.82207,-22.45513 38.25286,81.07247 70.00612,-4.71264 111.68928,4.90165 20.20836,3.49135 16.63439,41.78638 37.36069,27.51989 48.35728,-39.2502 77.62624,-31.42624 123.03857,-1.72097 20.08997,13.15483 55.71894,2.55027 74.41445,-11.34623 18.69548,-13.89658 67.92455,44.53244 78.93184,5.24647 105.02865,45.6255 50.62256,-30.40433 90.91987,-43.34348 21.10248,-7.81002 29.50702,-79.2138 29.50702,-79.2138 9.98089,41.45391 56.58751,94.43048 108.4401,131.04395"
       style="fill:none;fill-opacity:1;fill-rule:evenodd;stroke:#cab2de;stroke-width:2.664;stroke-linecap:round;stroke-linejoin:round;stroke-miterlimit:4;stroke-dasharray:none;stroke-opacity:1" />
    <path
       style="fill:#a15e5e;fill-opacity:1;stroke:#ffffff;stroke-width:2.11400008;stroke-linecap:square;stroke-linejoin:miter;stroke-miterlimit:4;stroke-dasharray:none;stroke-opacity:1"
       d="m 297.51557,193.46047 -4.50037,18.94451"
       id="path3463"
       inkscape:connector-curvature="0" />
    <path
       style="fill:#a15e5e;fill-opacity:1;stroke:#ffffff;stroke-width:2.11400008;stroke-linecap:square;stroke-linejoin:miter;stroke-miterlimit:4;stroke-dasharray:none;stroke-opacity:1"
       d="m 300.0081,183.91594 -0.33351,1.67746"
       id="path3465"
       inkscape:connector-curvature="0"
       sodipodi:nodetypes="cc" />
    <g
       id="g3473"
       transform="matrix(2.3460677,0,0,2.2201933,-34.57525,-184.85351)"
       style="stroke:#ffffff;stroke-width:0.92627364;stroke-miterlimit:4;stroke-dasharray:none;stroke-opacity:1">
      <path
         inkscape:connector-curvature="0"
         id="path3467"
         d="m 147.60443,168.18098 -1.91823,8.53282"
         style="fill:#a15e5e;fill-opacity:1;stroke:#ffffff;stroke-width:0.92627364;stroke-linecap:square;stroke-linejoin:miter;stroke-miterlimit:4;stroke-dasharray:none;stroke-opacity:1" />
      <path
         inkscape:connector-curvature="0"
         id="path3469"
         d="m 145.18662,170.37621 4.60629,-0.0248"
         style="fill:#a15e5e;fill-opacity:1;stroke:#ffffff;stroke-width:0.92627364;stroke-linecap:square;stroke-linejoin:miter;stroke-miterlimit:4;stroke-dasharray:none;stroke-opacity:1" />
      <path
         sodipodi:nodetypes="cc"
         inkscape:connector-curvature="0"
         id="path3471"
         d="m 145.6862,176.7138 c -1.56212,2.56419 1.9376,2.53768 3.42347,1.99939"
         style="fill:none;stroke:#ffffff;stroke-width:0.92627364;stroke-linecap:butt;stroke-linejoin:miter;stroke-miterlimit:4;stroke-dasharray:none;stroke-opacity:1" />
    </g>
    <path
       style="fill:none;fill-opacity:1;stroke:#ffffff;stroke-width:2.11400008;stroke-linecap:butt;stroke-linejoin:miter;stroke-miterlimit:4;stroke-dasharray:none;stroke-opacity:1"
       d="m 239.31501,184.2557 c -11.69102,-4.95457 -17.12013,-1.80945 -17.66663,5.39984 -0.54646,7.20936 12.46351,5.17233 11.412,14.33039 -1.05158,9.15805 -18.54453,4.9845 -18.54453,4.9845"
       id="path3571"
       inkscape:connector-curvature="0"
       sodipodi:nodetypes="czzc" />
    <path
       style="fill:none;stroke:#ffffff;stroke-width:2.11400008;stroke-linecap:butt;stroke-linejoin:miter;stroke-miterlimit:4;stroke-dasharray:none;stroke-opacity:1"
       d="m 255.0818,213.74722 4.60869,-22.11864 c 0,0 -8.891,-1.83655 -12.94823,1.5576 -4.05718,3.39419 -7.44102,11.27547 -2.74327,15.57647 4.69778,4.30099 12.28983,-3.53065 12.28983,-3.53065"
       id="path3573"
       inkscape:connector-curvature="0"
       sodipodi:nodetypes="cczzc" />
    <path
       style="fill:none;stroke:#ffffff;stroke-width:2.11400008;stroke-linecap:butt;stroke-linejoin:miter;stroke-miterlimit:4;stroke-dasharray:none;stroke-opacity:1"
       d="m 289.53723,191.9401 c 0,0 -14.42686,-2.41976 -17.88613,0.62312 -3.45923,3.0428 -2.43582,6.26781 0.76804,8.5151 3.20383,2.24738 7.86633,0.68343 9.54655,-1.86919 1.68033,-2.55255 0.65836,-7.37284 0.65836,-7.37284"
       id="path3575"
       inkscape:connector-curvature="0"
       sodipodi:nodetypes="czzzc" />
    <path
       style="fill:none;stroke:#ffffff;stroke-width:2.11400008;stroke-linecap:butt;stroke-linejoin:miter;stroke-miterlimit:4;stroke-dasharray:none;stroke-opacity:1"
       d="m 272.9679,201.38984 c 0,0 -4.09354,4.12085 -2.74324,6.85366 1.35022,2.73281 9.11765,0.70912 10.75353,3.53072 1.63594,2.82152 1.09611,6.18024 -2.08484,8.30744 -3.18092,2.12723 -11.79304,1.33322 -13.71638,-2.07686"
       id="path3577"
       inkscape:connector-curvature="0"
       sodipodi:nodetypes="czzzc" />
    <g
       transform="matrix(2.3460677,0,0,2.2201933,-16.37829,-184.85351)"
       id="g3585"
       style="stroke:#ffffff;stroke-width:0.92627364;stroke-miterlimit:4;stroke-dasharray:none;stroke-opacity:1">
      <path
         inkscape:connector-curvature="0"
         id="path3579"
         d="m 147.60443,168.18098 -1.91823,8.53282"
         style="fill:#a15e5e;fill-opacity:1;stroke:#ffffff;stroke-width:0.92627364;stroke-linecap:square;stroke-linejoin:miter;stroke-miterlimit:4;stroke-dasharray:none;stroke-opacity:1" />
      <path
         inkscape:connector-curvature="0"
         id="path3581"
         d="m 145.18662,170.37621 4.60629,-0.0248"
         style="fill:#a15e5e;fill-opacity:1;stroke:#ffffff;stroke-width:0.92627364;stroke-linecap:square;stroke-linejoin:miter;stroke-miterlimit:4;stroke-dasharray:none;stroke-opacity:1" />
      <path
         sodipodi:nodetypes="cc"
         inkscape:connector-curvature="0"
         id="path3583"
         d="m 145.6862,176.7138 c -1.56212,2.56419 1.9376,2.53768 3.42347,1.99939"
         style="fill:none;stroke:#ffffff;stroke-width:0.92627364;stroke-linecap:butt;stroke-linejoin:miter;stroke-miterlimit:4;stroke-dasharray:none;stroke-opacity:1" />
    </g>
    <path
       style="fill:none;stroke:#ffffff;stroke-width:1.61399996;stroke-linecap:butt;stroke-linejoin:miter;stroke-miterlimit:4;stroke-dasharray:none;stroke-opacity:1"
       d="m 353.51292,215.87809 4.60868,-22.11856 c 0,0 -8.891,-1.83663 -12.94826,1.55752 -4.05715,3.39422 -7.44098,11.27547 -2.74324,15.57647 4.69775,4.30106 12.28987,-3.53061 12.28987,-3.53061"
       id="path3587"
       inkscape:connector-curvature="0"
       sodipodi:nodetypes="cczzc" />
    <ellipse
       style="opacity:1;fill:none;fill-opacity:1;stroke:#ec1d56;stroke-width:2.06699991;stroke-linecap:round;stroke-linejoin:round;stroke-miterlimit:4;stroke-dasharray:none;stroke-dashoffset:0;stroke-opacity:1"
       id="circle3589"
       cx="373.01788"
       cy="190.77246"
       rx="3.9454248"
       ry="3.7337399" />
    <ellipse
       style="opacity:1;fill:none;fill-opacity:1;stroke:#ec1d56;stroke-width:2.06699991;stroke-linecap:round;stroke-linejoin:round;stroke-miterlimit:4;stroke-dasharray:none;stroke-dashoffset:0;stroke-opacity:1"
       id="circle3591"
       cx="395.75555"
       cy="200.92096"
       rx="3.9454248"
       ry="3.7337399" />
    <ellipse
       style="opacity:1;fill:none;fill-opacity:1;stroke:#ec1d56;stroke-width:2.06699991;stroke-linecap:round;stroke-linejoin:round;stroke-miterlimit:4;stroke-dasharray:none;stroke-dashoffset:0;stroke-opacity:1"
       id="circle3593"
       cx="386.91101"
       cy="210.68604"
       rx="3.9454248"
       ry="3.7337399" />
    <ellipse
       style="opacity:1;fill:none;fill-opacity:1;stroke:#ec1d56;stroke-width:2.06699991;stroke-linecap:round;stroke-linejoin:round;stroke-miterlimit:4;stroke-dasharray:none;stroke-dashoffset:0;stroke-opacity:1"
       id="circle3595"
       cx="347.99518"
       cy="173.57901"
       rx="3.9454248"
       ry="3.7337399" />
    <ellipse
       style="opacity:1;fill:none;fill-opacity:1;stroke:#ec1d56;stroke-width:2.06699991;stroke-linecap:round;stroke-linejoin:round;stroke-miterlimit:4;stroke-dasharray:none;stroke-dashoffset:0;stroke-opacity:1"
       id="circle3597"
       cx="332.36969"
       cy="161.02405"
       rx="3.9454248"
       ry="3.7337399" />
    <path
       style="fill:none;stroke:#ec1d56;stroke-width:2.06699991;stroke-linecap:butt;stroke-linejoin:miter;stroke-miterlimit:4;stroke-dasharray:none;stroke-opacity:1"
       d="m 334.94337,163.48917 10.2149,7.69403"
       id="path3599"
       inkscape:connector-curvature="0" />
    <path
       style="fill:none;stroke:#ec1d56;stroke-width:2.06699991;stroke-linecap:butt;stroke-linejoin:miter;stroke-miterlimit:4;stroke-dasharray:none;stroke-opacity:1"
       d="m 351.43722,175.52127 17.73274,12.99502"
       id="path3601"
       inkscape:connector-curvature="0"
       sodipodi:nodetypes="cc" />
    <path
       style="fill:none;stroke:#ec1d56;stroke-width:2.06699991;stroke-linecap:butt;stroke-linejoin:miter;stroke-miterlimit:4;stroke-dasharray:none;stroke-opacity:1"
       d="m 375.29063,194.55912 8.72077,12.4448"
       id="path3603"
       inkscape:connector-curvature="0"
       sodipodi:nodetypes="cc" />
    <path
       style="fill:none;stroke:#ec1d56;stroke-width:2.06699991;stroke-linecap:butt;stroke-linejoin:miter;stroke-miterlimit:4;stroke-dasharray:none;stroke-opacity:1"
       d="m 377.7621,192.82359 14.17019,6.56936"
       id="path3605"
       inkscape:connector-curvature="0"
       sodipodi:nodetypes="cc" />
    <g
       id="g1085"
       transform="matrix(0.79317721,0,0,0.79317721,597.46325,-41.800353)">
      <ellipse
         ry="16.35148"
         rx="17.278532"
         cy="301.18927"
         cx="-112.13303"
         id="circle3593-6-3-5"
         style="opacity:1;fill:none;fill-opacity:1;stroke:#ec1d56;stroke-width:1.64041662;stroke-linecap:round;stroke-linejoin:round;stroke-miterlimit:4;stroke-dasharray:none;stroke-dashoffset:0;stroke-opacity:0.99411777" />
      <path
         inkscape:connector-curvature="0"
         id="path1013-3"
         d="m -107.98242,310.02403 30.956248,28.31043 -12.17083,2.64583 6.08541,12.7 -7.40833,3.43958 -6.08542,-13.75833 -10.583328,9.26042 z"
         style="fill:none;stroke:#ec1d56;stroke-width:1.64041662;stroke-linecap:butt;stroke-linejoin:miter;stroke-miterlimit:4;stroke-dasharray:none;stroke-opacity:0.99411777" />
      <path
         sodipodi:nodetypes="cc"
         inkscape:connector-curvature="0"
         id="path1015-5"
         d="m -126.23867,309.49487 c 15.72594,-8.58269 17.02208,-16.44388 19.05,-24.34167"
         style="fill:none;stroke:#ec1d56;stroke-width:1.64041662;stroke-linecap:butt;stroke-linejoin:miter;stroke-miterlimit:4;stroke-dasharray:none;stroke-opacity:0.99411777" />
      <path
         sodipodi:nodetypes="cc"
         inkscape:connector-curvature="0"
         id="path1015-6-6"
         d="m -95.183992,297.77002 c -8.934778,-1.42014 -10.882588,-4.94052 -13.184728,-8.3544"
         style="fill:none;stroke:#ec1d56;stroke-width:1.64041662;stroke-linecap:butt;stroke-linejoin:miter;stroke-miterlimit:4;stroke-dasharray:none;stroke-opacity:0.99411777" />
      <path
         sodipodi:nodetypes="cccc"
         inkscape:connector-curvature="0"
         id="path1032-2"
         d="m -129.14908,311.87612 c -4.01158,4.45382 -3.74768,8.90764 0,13.36146 2.71339,-1.95004 3.98666,-5.19618 3.175,-10.31876 z"
         style="fill:none;stroke:#ec1d56;stroke-width:1.64041662;stroke-linecap:butt;stroke-linejoin:miter;stroke-miterlimit:4;stroke-dasharray:none;stroke-opacity:0.99411777" />
      <path
         sodipodi:nodetypes="cccc"
         inkscape:connector-curvature="0"
         id="path1032-7-9"
         d="m -92.181612,297.99059 c 5.90914,1.00569 8.46445,4.66309 8.28697,10.48117 -3.33792,0.1532 -6.35001,-1.60347 -8.89042,-6.1252 z"
         style="fill:none;stroke:#ec1d56;stroke-width:1.64041662;stroke-linecap:butt;stroke-linejoin:miter;stroke-miterlimit:4;stroke-dasharray:none;stroke-opacity:0.99411777" />
    </g>
    <g
       id="g1296"
       transform="translate(8.4666666,-14.816667)">
      <rect
         y="173.59479"
         x="620.79651"
         height="33.370636"
         width="61.524452"
         id="rect1102-7"
         style="opacity:1;fill:none;fill-opacity:1;stroke:#cab2de;stroke-width:2.14312506;stroke-linecap:round;stroke-linejoin:round;stroke-miterlimit:4;stroke-dasharray:none;stroke-dashoffset:0;stroke-opacity:1" />
      <path
         inkscape:connector-curvature="0"
         id="path1104-0"
         d="m 620.79651,173.59479 30.36538,19.67403 31.15908,-19.67403"
         style="fill:none;stroke:#cab2de;stroke-width:2.14312506;stroke-linecap:round;stroke-linejoin:round;stroke-miterlimit:4;stroke-dasharray:none;stroke-opacity:1" />
      <path
         inkscape:connector-curvature="0"
         id="path1106-9"
         d="m 620.79651,206.96542 19.64975,-20.57577"
         style="fill:none;stroke:#cab2de;stroke-width:2.14312506;stroke-linecap:round;stroke-linejoin:round;stroke-miterlimit:4;stroke-dasharray:none;stroke-opacity:1" />
      <path
         inkscape:connector-curvature="0"
         id="path1108-3"
         d="M 682.32097,206.96543 662.0098,186.78653"
         style="fill:none;stroke:#cab2de;stroke-width:2.14312506;stroke-linecap:round;stroke-linejoin:round;stroke-miterlimit:4;stroke-dasharray:none;stroke-opacity:1" />
    </g>
    <g
       id="g1185"
       transform="matrix(0.77430859,0,0,0.77430859,45.348089,181.97993)">
      <path
         sodipodi:nodetypes="zzzz"
         inkscape:connector-curvature="0"
         id="path831-6-7-3-6-2-7-0-7"
         d="m 82.673958,35.460155 c -1.016034,-4.240583 2.107514,-8.701449 6.604295,-8.255475 4.496933,0.445974 7.981445,6.023844 4.292883,9.906563 -3.688563,3.882734 -9.881144,2.589479 -10.897178,-1.651088 z"
         style="fill:#cab2de;fill-opacity:1;fill-rule:evenodd;stroke:#cab2de;stroke-width:12.22500706;stroke-linecap:butt;stroke-linejoin:miter;stroke-miterlimit:4;stroke-dasharray:none;stroke-opacity:1" />
      <path
         sodipodi:nodetypes="zzzz"
         inkscape:connector-curvature="0"
         id="path831-6-7-3-6-2-7-0-6-3"
         d="M 6.8247058,33.554327 C 6.3798615,31.6972 7.7476747,29.74359 9.7170967,29.938891 c 1.9694223,0.195316 3.4953553,2.638119 1.8799713,4.338526 -1.6153838,1.700422 -4.3273674,1.134052 -4.7723622,-0.72309 z"
         style="fill:#cab2de;fill-opacity:1;fill-rule:evenodd;stroke:#cab2de;stroke-width:5.54022264;stroke-linecap:butt;stroke-linejoin:miter;stroke-miterlimit:4;stroke-dasharray:none;stroke-opacity:1" />
      <path
         sodipodi:nodetypes="zzzz"
         inkscape:connector-curvature="0"
         id="path831-6-7-3-6-2-7-0-6-2-61"
         d="m 29.785836,59.931797 c -0.492431,-2.05565 1.021605,-4.218084 3.201553,-4.001911 2.179947,0.216187 3.86897,2.920129 2.081009,4.802299 -1.788111,1.8822 -4.789981,1.255277 -5.282562,-0.800388 z"
         style="fill:#cab2de;fill-opacity:1;fill-rule:evenodd;stroke:#cab2de;stroke-width:6.13245583;stroke-linecap:butt;stroke-linejoin:miter;stroke-miterlimit:4;stroke-dasharray:none;stroke-opacity:1" />
      <path
         sodipodi:nodetypes="zzzz"
         inkscape:connector-curvature="0"
         id="path831-6-7-3-6-2-7-0-6-2-6-2"
         d="m 29.845168,7.6623905 c -0.492431,-2.0556502 1.021606,-4.218084 3.201553,-4.0019114 2.179948,0.2161877 3.86897,2.9201297 2.08101,4.8022997 C 33.33962,10.344979 30.33775,9.7180557 29.845168,7.6623905 Z"
         style="fill:#cab2de;fill-opacity:1;fill-rule:evenodd;stroke:#cab2de;stroke-width:6.13245583;stroke-linecap:butt;stroke-linejoin:miter;stroke-miterlimit:4;stroke-dasharray:none;stroke-opacity:1" />
      <path
         sodipodi:nodetypes="zzzz"
         inkscape:connector-curvature="0"
         id="path831-6-7-3-6-2-7-0-6-2-6-1-9"
         d="m 29.569136,34.276875 c -0.550559,-2.298282 1.142078,-4.715966 3.579385,-4.474269 2.437156,0.241698 4.32571,3.264802 2.326622,5.369123 -1.999088,2.104366 -5.355298,1.403458 -5.906007,-0.894854 z"
         style="fill:#cab2de;fill-opacity:1;fill-rule:evenodd;stroke:#cab2de;stroke-width:6.85629511;stroke-linecap:butt;stroke-linejoin:miter;stroke-miterlimit:4;stroke-dasharray:none;stroke-opacity:1" />
      <path
         sodipodi:nodetypes="zzzz"
         inkscape:connector-curvature="0"
         id="path831-6-7-3-6-2-7-0-6-2-6-1-8-3"
         d="m 55.445245,5.1210108 c -0.698589,-2.9159132 1.448982,-5.98330533 4.541206,-5.67664291 3.092074,0.30663229 5.488269,4.14215621 2.951874,6.81195941 -2.536244,2.6698785 -6.79434,1.7806268 -7.49308,-1.1353165 z"
         style="fill:#cab2de;fill-opacity:1;fill-rule:evenodd;stroke:#cab2de;stroke-width:8.69879818;stroke-linecap:butt;stroke-linejoin:miter;stroke-miterlimit:4;stroke-dasharray:none;stroke-opacity:1" />
      <path
         sodipodi:nodetypes="zzzz"
         inkscape:connector-curvature="0"
         id="path831-6-7-3-6-2-7-0-6-2-6-1-8-7-1"
         d="m 55.298871,63.025407 c -0.698589,-2.915913 1.448982,-5.983305 4.541206,-5.676643 3.092074,0.306632 5.48827,4.142156 2.951874,6.811959 -2.536244,2.669879 -6.79434,1.780627 -7.49308,-1.135316 z"
         style="fill:#cab2de;fill-opacity:1;fill-rule:evenodd;stroke:#cab2de;stroke-width:8.69879818;stroke-linecap:butt;stroke-linejoin:miter;stroke-miterlimit:4;stroke-dasharray:none;stroke-opacity:1" />
      <path
         sodipodi:nodetypes="zzzz"
         inkscape:connector-curvature="0"
         id="path831-6-7-3-6-2-7-0-6-2-6-1-8-7-9-9"
         d="m 55.331399,34.008432 c -0.698589,-2.915913 1.448981,-5.983305 4.541206,-5.676643 3.092074,0.306633 5.488269,4.142157 2.951874,6.81196 -2.536245,2.669878 -6.79434,1.780627 -7.49308,-1.135317 z"
         style="fill:#cab2de;fill-opacity:1;fill-rule:evenodd;stroke:#cab2de;stroke-width:8.69879818;stroke-linecap:butt;stroke-linejoin:miter;stroke-miterlimit:4;stroke-dasharray:none;stroke-opacity:1" />
    </g>
    <g
       id="g68"
       transform="matrix(0.66763451,0,0,0.66763451,-272.73818,162.5914)">
      <circle
         id="circle50"
         r="4.368"
         cy="52.678001"
         cx="154.789"
         stroke-miterlimit="10"
         style="fill:none;stroke:#ed1a55;stroke-width:3;stroke-linecap:round;stroke-linejoin:round;stroke-miterlimit:10" />
      <circle
         id="circle52"
         r="4.368"
         cy="55.800999"
         cx="185.759"
         stroke-miterlimit="10"
         style="fill:none;stroke:#ed1a55;stroke-width:3;stroke-linecap:round;stroke-linejoin:round;stroke-miterlimit:10" />
      <circle
         id="circle54"
         r="4.368"
         cy="36.528999"
         cx="200.03101"
         stroke-miterlimit="10"
         style="fill:none;stroke:#ed1a55;stroke-width:3;stroke-linecap:round;stroke-linejoin:round;stroke-miterlimit:10" />
      <circle
         id="circle56"
         r="4.368"
         cy="42.898998"
         cx="230.33"
         stroke-miterlimit="10"
         style="fill:none;stroke:#ed1a55;stroke-width:3;stroke-linecap:round;stroke-linejoin:round;stroke-miterlimit:10" />
      <circle
         id="circle58"
         r="4.368"
         cy="10.161"
         cx="231.228"
         stroke-miterlimit="10"
         style="fill:none;stroke:#ed1a55;stroke-width:3;stroke-linecap:round;stroke-linejoin:round;stroke-miterlimit:10" />
      <line
         id="line60"
         y2="55.800999"
         x2="181.39101"
         y1="54.067001"
         x1="158.927"
         stroke-miterlimit="10"
         style="fill:none;stroke:#ed1a55;stroke-width:3;stroke-linecap:round;stroke-linejoin:round;stroke-miterlimit:10" />
      <line
         id="line62"
         y2="40.418999"
         x2="198.05099"
         y1="52.678001"
         x1="188.811"
         stroke-miterlimit="10"
         style="fill:none;stroke:#ed1a55;stroke-width:3;stroke-linecap:round;stroke-linejoin:round;stroke-miterlimit:10" />
      <line
         id="line64"
         y2="42.898998"
         x2="225.96201"
         y1="38.530998"
         x1="203.91"
         stroke-miterlimit="10"
         style="fill:none;stroke:#ed1a55;stroke-width:3;stroke-linecap:round;stroke-linejoin:round;stroke-miterlimit:10" />
      <line
         id="line66"
         y2="14.529"
         x2="231.228"
         y1="38.530998"
         x1="230.33"
         stroke-miterlimit="10"
         style="fill:none;stroke:#ed1a55;stroke-width:3;stroke-linecap:round;stroke-linejoin:round;stroke-miterlimit:10" />
    </g>
  </g>
</svg>
