<?xml version="1.0" encoding="UTF-8" standalone="no"?>
<!-- Created with Inkscape (http://www.inkscape.org/) -->

<svg
   xmlns:dc="http://purl.org/dc/elements/1.1/"
   xmlns:cc="http://creativecommons.org/ns#"
   xmlns:rdf="http://www.w3.org/1999/02/22-rdf-syntax-ns#"
   xmlns:svg="http://www.w3.org/2000/svg"
   xmlns="http://www.w3.org/2000/svg"
   xmlns:sodipodi="http://sodipodi.sourceforge.net/DTD/sodipodi-0.dtd"
   xmlns:inkscape="http://www.inkscape.org/namespaces/inkscape"
   width="223.23119"
   height="233.19446"
   viewBox="0 0 59.063249 61.699368"
   version="1.1"
   id="svg1763"
   inkscape:version="0.92.3 (2405546, 2018-03-11)"
   sodipodi:docname="hruska.svg">
  <defs
     id="defs1757" />
  <sodipodi:namedview
     id="base"
     pagecolor="#ffffff"
     bordercolor="#666666"
     borderopacity="1.0"
     inkscape:pageopacity="0.0"
     inkscape:pageshadow="2"
     inkscape:zoom="1.979899"
     inkscape:cx="219.84887"
     inkscape:cy="34.586617"
     inkscape:document-units="mm"
     inkscape:current-layer="layer1"
     showgrid="false"
     fit-margin-top="10"
     fit-margin-left="10"
     fit-margin-right="10"
     fit-margin-bottom="10"
     inkscape:window-width="1839"
     inkscape:window-height="1025"
     inkscape:window-x="81"
     inkscape:window-y="27"
     inkscape:window-maximized="1"
     units="px" />
  <metadata
     id="metadata1760">
    <rdf:RDF>
      <cc:Work
         rdf:about="">
        <dc:format>image/svg+xml</dc:format>
        <dc:type
           rdf:resource="http://purl.org/dc/dcmitype/StillImage" />
        <dc:title></dc:title>
      </cc:Work>
    </rdf:RDF>
  </metadata>
  <g
     inkscape:label="Vrstva 1"
     inkscape:groupmode="layer"
     id="layer1"
     transform="translate(-18.407564,-92.551847)">
    <path
       style="fill:none;stroke:#000000;stroke-width:0.76499999;stroke-linecap:round;stroke-linejoin:miter;stroke-miterlimit:4;stroke-dasharray:none;stroke-opacity:1"
       d="m 23.242462,95.610503 c -1.148943,6.138997 -1.024204,8.191627 -1.469985,14.432557 -0.525213,7.35301 1.297941,11.108 -0.267268,18.30796 -0.45477,2.09194 1.575676,9.37631 2.138155,11.62622 0.694261,2.77704 9.663985,0.55185 11.626225,0.40091 3.171573,-0.24397 5.598998,-0.18715 8.686259,0.4009 7.862009,1.49753 16.234104,1.42262 24.321528,0.26727 0.384744,-0.055 3.794075,-0.1046 4.009043,-0.53454 0.772483,-1.54496 0.167167,-20.98415 0.267269,-23.78698 0.174244,-4.87882 0.265655,-9.87929 1.069078,-14.69983 0.05621,-0.33727 0.955667,-2.786102 0.801809,-2.939962 C 71.854752,96.515184 63.15745,96.405882 59.724751,95.877774 54.08179,95.009626 48.539534,96.37306 42.753137,96.011409 36.445391,96.69734 27.87444,98.000902 23.242462,95.610503"
       id="path815"
       inkscape:connector-curvature="0"
       sodipodi:nodetypes="cssssscssccscc" />
    <path
       style="fill:#000000;fill-opacity:1;stroke:#000000;stroke-width:0.33670422px;stroke-linecap:butt;stroke-linejoin:miter;stroke-opacity:1"
       d="m 47.454878,103.91884 c 0.06099,-0.81869 0.354266,-1.60744 0.711611,-2.34177 0.559925,-1.15061 0.306614,-2.343475 2.029042,-1.861144 0.10221,0.02866 0.710224,0.189883 0.740539,0.346994 0.02271,0.11771 -0.603373,0.70102 -0.701214,0.80889 -0.348422,0.38413 -0.828022,0.76871 -1.116545,1.19519 -0.125541,0.18557 -0.256057,0.46344 -0.428807,0.63385 -0.327142,0.32274 -1.003759,0.57322 -1.232555,0.9114 -0.05868,0.0868 -0.03849,0.11759 -0.002,0.30658 z"
       id="path821"
       inkscape:connector-curvature="0" />
    <path
       style="fill:#fdff0d;fill-opacity:1;stroke:#000000;stroke-width:0.7190094;stroke-linecap:butt;stroke-linejoin:miter;stroke-miterlimit:4;stroke-dasharray:none;stroke-opacity:1"
       d="m 41.825005,107.8533 c 1.553254,-4.55649 6.657287,-7.12147 9.350942,-1.80427 2.064217,4.0747 0.14493,7.96283 1.607527,12.19825 1.098465,3.18095 1.833902,4.66016 2.873546,8.00605 2.141173,6.89093 -5.983608,12.93598 -12.529297,10.79227 -2.028,-0.66416 -3.966488,-1.25058 -5.416527,-2.93843 -2.861955,-3.33134 -3.451702,-10.02808 0.827619,-14.24932 4.279317,-4.22124 2.069614,-7.96426 3.28619,-12.00455 z"
       id="path819"
       inkscape:connector-curvature="0"
       sodipodi:nodetypes="cssscczc" />
    <g
       transform="matrix(1.2495355,-0.24109854,0.24109854,1.2495355,-75.486134,64.915266)"
       id="g840">
      <path
         inkscape:connector-curvature="0"
         id="path831"
         d="m 82.111783,72.013217 1.761133,-0.07442"
         style="fill:none;stroke:#000000;stroke-width:0.26499999;stroke-linecap:round;stroke-linejoin:miter;stroke-miterlimit:4;stroke-dasharray:none;stroke-opacity:1" />
      <path
         inkscape:connector-curvature="0"
         id="path833"
         d="M 83.542186,72.434896 82.368098,71.34349"
         style="fill:none;stroke:#000000;stroke-width:0.26499999;stroke-linecap:round;stroke-linejoin:miter;stroke-miterlimit:4;stroke-dasharray:none;stroke-opacity:1" />
      <path
         inkscape:connector-curvature="0"
         id="path835"
         d="M 82.475585,72.401823 83.566991,71.48405"
         style="fill:none;stroke:#000000;stroke-width:0.26499999;stroke-linecap:round;stroke-linejoin:miter;stroke-miterlimit:4;stroke-dasharray:none;stroke-opacity:1" />
    </g>
    <g
       aria-label="?"
       style="font-style:normal;font-weight:normal;font-size:10.58333302px;line-height:1.25;font-family:sans-serif;letter-spacing:0px;word-spacing:0px;fill:#000000;fill-opacity:1;stroke:none;stroke-width:0.26458332"
       id="text2578">
      <path
         d="m 48.882197,144.28171 q 1.016,0 1.524,0.41275 0.518584,0.41275 0.518584,1.23825 0,0.8255 -0.169334,1.2065 -0.15875,0.37042 -0.687916,0.77258 -0.529167,0.39159 -0.66675,0.60325 -0.137584,0.21167 -0.137584,0.46567 v 0.32808 h -1.132416 q -0.328084,-0.35983 -0.328084,-0.96308 0,-0.381 0.66675,-0.92075 0.677334,-0.53975 0.8255,-0.74083 0.15875,-0.21167 0.15875,-0.508 0,-0.62442 -0.899583,-0.62442 -0.635,0 -1.30175,0.127 l -0.22225,0.0423 -0.07408,-1.06891 q 0.910166,-0.37042 1.926166,-0.37042 z m -0.98425,7.32367 v -1.70392 h 1.524 v 1.70392 z"
         style="font-style:normal;font-variant:normal;font-weight:normal;font-stretch:normal;font-family:'Titillium Web';-inkscape-font-specification:'Titillium Web';stroke-width:0.26458332"
         id="path2580"
         inkscape:connector-curvature="0" />
    </g>
    <path
       sodipodi:nodetypes="cssssscssccscc"
       inkscape:connector-curvature="0"
       id="path2583"
       d="m 23.242462,95.610503 c -1.148943,6.138997 -1.024204,8.191627 -1.469985,14.432557 -0.525213,7.35301 1.297941,11.108 -0.267268,18.30796 -0.45477,2.09194 1.575676,9.37631 2.138155,11.62622 0.694261,2.77704 9.663985,0.55185 11.626225,0.40091 3.171573,-0.24397 5.598998,-0.18715 8.686259,0.4009 7.862009,1.49753 16.234104,1.42262 24.321528,0.26727 0.384744,-0.055 3.794075,-0.1046 4.009043,-0.53454 0.772483,-1.54496 0.167167,-20.98415 0.267269,-23.78698 0.174244,-4.87882 0.265655,-9.87929 1.069078,-14.69983 0.05621,-0.33727 0.955667,-2.786102 0.801809,-2.939962 C 71.854752,96.515184 63.15745,96.405882 59.724751,95.877774 54.08179,95.009626 48.539534,96.37306 42.753137,96.011409 36.445391,96.69734 27.87444,98.000902 23.242462,95.610503"
       style="fill:none;stroke:#000000;stroke-width:0.76499999;stroke-linecap:round;stroke-linejoin:miter;stroke-miterlimit:4;stroke-dasharray:none;stroke-opacity:1" />
    <path
       inkscape:connector-curvature="0"
       id="path2585"
       d="m 47.454878,103.91884 c 0.06099,-0.81869 0.354266,-1.60744 0.711611,-2.34177 0.559925,-1.15061 0.306614,-2.343475 2.029042,-1.861144 0.10221,0.02866 0.710224,0.189883 0.740539,0.346994 0.02271,0.11771 -0.603373,0.70102 -0.701214,0.80889 -0.348422,0.38413 -0.828022,0.76871 -1.116545,1.19519 -0.125541,0.18557 -0.256057,0.46344 -0.428807,0.63385 -0.327142,0.32274 -1.003759,0.57322 -1.232555,0.9114 -0.05868,0.0868 -0.03849,0.11759 -0.002,0.30658 z"
       style="fill:#000000;fill-opacity:1;stroke:#000000;stroke-width:0.33670422px;stroke-linecap:butt;stroke-linejoin:miter;stroke-opacity:1" />
    <path
       sodipodi:nodetypes="cssscczc"
       inkscape:connector-curvature="0"
       id="path2587"
       d="m 41.825005,107.8533 c 1.553254,-4.55649 6.657287,-7.12147 9.350942,-1.80427 2.064217,4.0747 0.14493,7.96283 1.607527,12.19825 1.098465,3.18095 1.833902,4.66016 2.873546,8.00605 2.141173,6.89093 -5.983608,12.93598 -12.529297,10.79227 -2.028,-0.66416 -3.966488,-1.25058 -5.416527,-2.93843 -2.861955,-3.33134 -3.451702,-10.02808 0.827619,-14.24932 4.279317,-4.22124 2.069614,-7.96426 3.28619,-12.00455 z"
       style="fill:#fdff0d;fill-opacity:1;stroke:#000000;stroke-width:0.7190094;stroke-linecap:butt;stroke-linejoin:miter;stroke-miterlimit:4;stroke-dasharray:none;stroke-opacity:1" />
    <g
       id="g2595"
       transform="matrix(1.2495355,-0.24109854,0.24109854,1.2495355,-75.486134,64.915266)">
      <path
         style="fill:none;stroke:#000000;stroke-width:0.26499999;stroke-linecap:round;stroke-linejoin:miter;stroke-miterlimit:4;stroke-dasharray:none;stroke-opacity:1"
         d="m 82.111783,72.013217 1.761133,-0.07442"
         id="path2589"
         inkscape:connector-curvature="0" />
      <path
         style="fill:none;stroke:#000000;stroke-width:0.26499999;stroke-linecap:round;stroke-linejoin:miter;stroke-miterlimit:4;stroke-dasharray:none;stroke-opacity:1"
         d="M 83.542186,72.434896 82.368098,71.34349"
         id="path2591"
         inkscape:connector-curvature="0" />
      <path
         style="fill:none;stroke:#000000;stroke-width:0.26499999;stroke-linecap:round;stroke-linejoin:miter;stroke-miterlimit:4;stroke-dasharray:none;stroke-opacity:1"
         d="M 82.475585,72.401823 83.566991,71.48405"
         id="path2593"
         inkscape:connector-curvature="0" />
    </g>
    <g
       id="g2599"
       style="font-style:normal;font-weight:normal;font-size:10.58333302px;line-height:1.25;font-family:sans-serif;letter-spacing:0px;word-spacing:0px;fill:#000000;fill-opacity:1;stroke:none;stroke-width:0.26458332"
       aria-label="?">
      <path
         id="path2597"
         style="font-style:normal;font-variant:normal;font-weight:normal;font-stretch:normal;font-family:'Titillium Web';-inkscape-font-specification:'Titillium Web';stroke-width:0.26458332"
         d="m 48.882197,144.28171 q 1.016,0 1.524,0.41275 0.518584,0.41275 0.518584,1.23825 0,0.8255 -0.169334,1.2065 -0.15875,0.37042 -0.687916,0.77258 -0.529167,0.39159 -0.66675,0.60325 -0.137584,0.21167 -0.137584,0.46567 v 0.32808 h -1.132416 q -0.328084,-0.35983 -0.328084,-0.96308 0,-0.381 0.66675,-0.92075 0.677334,-0.53975 0.8255,-0.74083 0.15875,-0.21167 0.15875,-0.508 0,-0.62442 -0.899583,-0.62442 -0.635,0 -1.30175,0.127 l -0.22225,0.0423 -0.07408,-1.06891 q 0.910166,-0.37042 1.926166,-0.37042 z m -0.98425,7.32367 v -1.70392 h 1.524 v 1.70392 z"
         inkscape:connector-curvature="0" />
    </g>
  </g>
</svg>
