<?xml version="1.0" encoding="UTF-8" standalone="no"?>
<svg
   xmlns:dc="http://purl.org/dc/elements/1.1/"
   xmlns:cc="http://creativecommons.org/ns#"
   xmlns:rdf="http://www.w3.org/1999/02/22-rdf-syntax-ns#"
   xmlns:svg="http://www.w3.org/2000/svg"
   xmlns="http://www.w3.org/2000/svg"
   xmlns:sodipodi="http://sodipodi.sourceforge.net/DTD/sodipodi-0.dtd"
   xmlns:inkscape="http://www.inkscape.org/namespaces/inkscape"
   width="1183.0762"
   height="739.24927"
   viewBox="0 0 1183.0762 739.24927"
   version="1.1"
   id="svg821"
   sodipodi:docname="neurons.svg"
   inkscape:version="0.92.3 (2405546, 2018-03-11)">
  <metadata
     id="metadata827">
    <rdf:RDF>
      <cc:Work
         rdf:about="">
        <dc:format>image/svg+xml</dc:format>
        <dc:type
           rdf:resource="http://purl.org/dc/dcmitype/StillImage" />
        <dc:title></dc:title>
      </cc:Work>
    </rdf:RDF>
  </metadata>
  <defs
     id="defs825" />
  <sodipodi:namedview
     pagecolor="#ffffff"
     bordercolor="#666666"
     borderopacity="1"
     objecttolerance="10"
     gridtolerance="10"
     guidetolerance="10"
     inkscape:pageopacity="0"
     inkscape:pageshadow="2"
     inkscape:window-width="1839"
     inkscape:window-height="1025"
     id="namedview823"
     showgrid="false"
     fit-margin-top="0"
     fit-margin-left="0"
     fit-margin-right="0"
     fit-margin-bottom="0"
     inkscape:zoom="0.51375786"
     inkscape:cx="876.86562"
     inkscape:cy="323.75003"
     inkscape:window-x="81"
     inkscape:window-y="27"
     inkscape:window-maximized="1"
     inkscape:current-layer="g819"
     inkscape:measure-start="0,0"
     inkscape:measure-end="0,0" />
  <g
     id="g819"
     style="fill:none;fill-rule:evenodd"
     transform="translate(1250.72,978.93334)">
    <path
       style="fill:none;stroke:#000000;stroke-width:13.98226261;stroke-linecap:butt;stroke-linejoin:miter;stroke-miterlimit:4;stroke-dasharray:none;stroke-opacity:1"
       d="m -661.57183,-843.16613 -383.49347,289.16642 383.49347,-12.37074"
       id="path968"
       inkscape:connector-curvature="0" />
    <path
       style="fill:none;stroke:#000000;stroke-width:13.98226261;stroke-linecap:butt;stroke-linejoin:miter;stroke-miterlimit:4;stroke-dasharray:none;stroke-opacity:1"
       d="m -1045.0653,-553.99971 371.12261,270.61032"
       id="path970"
       inkscape:connector-curvature="0" />
    <path
       style="fill:none;stroke:#000000;stroke-width:13.98226261;stroke-linecap:butt;stroke-linejoin:miter;stroke-miterlimit:4;stroke-dasharray:none;stroke-opacity:1"
       d="m -661.57183,-843.16613 344.83495,463.90341"
       id="path972"
       inkscape:connector-curvature="0" />
    <path
       style="fill:none;stroke:#000000;stroke-width:13.98226261;stroke-linecap:butt;stroke-linejoin:miter;stroke-miterlimit:4;stroke-dasharray:none;stroke-opacity:1"
       d="m -673.94269,-283.38939 368.03035,-388.13248"
       id="path974"
       inkscape:connector-curvature="0" />
    <path
       style="fill:none;stroke:#000000;stroke-width:13.98226261;stroke-linecap:butt;stroke-linejoin:miter;stroke-miterlimit:4;stroke-dasharray:none;stroke-opacity:1"
       d="m -661.57183,-566.37045 355.65949,-105.15142"
       id="path976"
       inkscape:connector-curvature="0" />
    <path
       style="fill:none;stroke:#000000;stroke-width:13.98226261;stroke-linecap:butt;stroke-linejoin:miter;stroke-miterlimit:4;stroke-dasharray:none;stroke-opacity:1"
       d="m -661.57183,-566.37045 344.83495,187.10773"
       id="path978"
       inkscape:connector-curvature="0" />
    <path
       style="fill:none;stroke:#000000;stroke-width:13.98226261;stroke-linecap:butt;stroke-linejoin:miter;stroke-miterlimit:4;stroke-dasharray:none;stroke-opacity:1"
       d="m -661.57183,-843.16613 355.65949,171.64426"
       id="path980"
       inkscape:connector-curvature="0" />
    <path
       style="fill:none;stroke:#000000;stroke-width:13.98226261;stroke-linecap:butt;stroke-linejoin:miter;stroke-miterlimit:4;stroke-dasharray:none;stroke-opacity:1"
       d="m -673.94269,-283.38939 357.20581,-95.87333"
       id="path982"
       inkscape:connector-curvature="0" />
    <path
       style="fill:#000000;fill-opacity:1;fill-rule:evenodd;stroke:#ec1d56;stroke-width:54.4669075;stroke-linecap:butt;stroke-linejoin:miter;stroke-miterlimit:4;stroke-dasharray:none;stroke-opacity:1"
       d="m -694.81385,-284.59358 c -4.52667,-18.89336 9.38975,-38.76813 29.42491,-36.78119 20.03515,1.98697 35.56009,26.83845 19.12617,44.13743 -16.43366,17.29901 -44.0244,11.53705 -48.55108,-7.35624 z"
       id="path831-6-7-3-5"
       inkscape:connector-curvature="0"
       sodipodi:nodetypes="zzzz" />
    <path
       style="fill:#000000;fill-opacity:1;fill-rule:evenodd;stroke:#ec1d56;stroke-width:54.4669075;stroke-linecap:butt;stroke-linejoin:miter;stroke-miterlimit:4;stroke-dasharray:none;stroke-opacity:1"
       d="m -691.72119,-835.09226 c -4.52667,-18.89339 9.38974,-38.76816 29.4249,-36.7812 20.03515,1.98697 35.56009,26.83843 19.12617,44.13743 -16.43366,17.29901 -44.0244,11.53703 -48.55107,-7.35623 z"
       id="path831-6-7-3-6"
       inkscape:connector-curvature="0"
       sodipodi:nodetypes="zzzz" />
    <path
       style="fill:#000000;fill-opacity:1;fill-rule:evenodd;stroke:#ec1d56;stroke-width:54.4669075;stroke-linecap:butt;stroke-linejoin:miter;stroke-miterlimit:4;stroke-dasharray:none;stroke-opacity:1"
       d="m -697.9065,-569.12096 c -4.52667,-18.89339 9.38975,-38.76816 29.4249,-36.78122 20.03516,1.98697 35.56009,26.83845 19.12618,44.13743 -16.43366,17.299 -44.02441,11.53705 -48.55108,-7.35621 z"
       id="path831-6-7-3-6-2"
       inkscape:connector-curvature="0"
       sodipodi:nodetypes="zzzz" />
    <path
       style="fill:#000000;fill-opacity:1;fill-rule:evenodd;stroke:#ec1d56;stroke-width:54.4669075;stroke-linecap:butt;stroke-linejoin:miter;stroke-miterlimit:4;stroke-dasharray:none;stroke-opacity:1"
       d="m -345.34017,-380.46691 c -4.52667,-18.89339 9.38974,-38.76816 29.4249,-36.78122 20.03516,1.98696 35.55983,26.83845 19.12592,44.13743 -16.43366,17.29903 -44.02441,11.53705 -48.55082,-7.35621 z"
       id="path831-6-7-3-6-9"
       inkscape:connector-curvature="0"
       sodipodi:nodetypes="zzzz" />
    <path
       style="fill:#000000;fill-opacity:1;fill-rule:evenodd;stroke:#ec1d56;stroke-width:54.4669075;stroke-linecap:butt;stroke-linejoin:miter;stroke-miterlimit:4;stroke-dasharray:none;stroke-opacity:1"
       d="m -336.06196,-661.90168 c -4.52667,-18.89336 9.38974,-38.76813 29.4249,-36.78121 20.03516,1.98699 35.55983,26.83847 19.12592,44.13743 -16.43366,17.29903 -44.02441,11.53707 -48.55082,-7.35622 z"
       id="path831-6-7-3-6-1"
       inkscape:connector-curvature="0"
       sodipodi:nodetypes="zzzz" />
    <path
       style="fill:#000000;fill-opacity:1;fill-rule:evenodd;stroke:#ec1d56;stroke-width:54.4669075;stroke-linecap:butt;stroke-linejoin:miter;stroke-miterlimit:4;stroke-dasharray:none;stroke-opacity:1"
       d="m -1051.4208,-547.64413 c -4.5268,-18.89336 9.3897,-38.76813 29.4247,-36.78119 20.0353,1.98697 35.56004,26.83842 19.1261,44.13743 -16.4336,17.299 -44.0244,11.53705 -48.5508,-7.35624 z"
       id="path831-6-7-3-6-2-7"
       inkscape:connector-curvature="0"
       sodipodi:nodetypes="zzzz" />
    <g
       aria-label="Input layer"
       transform="translate(38.928845,-554.41013)"
       style="font-style:normal;font-weight:normal;font-size:40px;line-height:1.25;font-family:sans-serif;letter-spacing:0px;word-spacing:0px;fill:#000000;fill-opacity:1;stroke:none"
       id="flowRoot926">
      <path
         d="m -1289.6488,-111.99602 v -43.52 h 8.832 v 43.52 z"
         style="font-style:normal;font-variant:normal;font-weight:normal;font-stretch:normal;font-size:64px;font-family:'Titillium Web';-inkscape-font-specification:'Titillium Web'"
         id="path1021"
         inkscape:connector-curvature="0" />
      <path
         d="m -1263.5908,-111.99602 h -8.576 v -32 h 8.512 v 1.792 q 4.352,-2.56 8,-2.56 6.4,0 8.832,3.776 2.432,3.776 2.432,11.648 v 17.344 h -8.576 v -17.088 q 0,-4.096 -0.96,-6.016 -0.96,-1.984 -3.84,-1.984 -2.624,0 -5.056,0.896 l -0.768,0.256 z"
         style="font-style:normal;font-variant:normal;font-weight:normal;font-stretch:normal;font-size:64px;font-family:'Titillium Web';-inkscape-font-specification:'Titillium Web'"
         id="path1023"
         inkscape:connector-curvature="0" />
      <path
         d="m -1236.7918,-98.556023 v -45.439997 h 8.512 v 1.728 q 4.16,-2.496 7.296,-2.496 6.464,0 9.536,3.904 3.072,3.84 3.072,13.12 0,9.28 -3.392,12.928 -3.392,3.584 -11.136,3.584 -2.112,0 -4.544,-0.384 l -0.768,-0.128 v 13.183997 z m 14.144,-38.527997 q -2.368,0 -4.8,0.96 l -0.768,0.32 v 16.768 q 2.88,0.384 4.672,0.384 3.712,0 5.056,-2.176 1.408,-2.176 1.408,-7.424 0,-8.832 -5.568,-8.832 z"
         style="font-style:normal;font-variant:normal;font-weight:normal;font-stretch:normal;font-size:64px;font-family:'Titillium Web';-inkscape-font-specification:'Titillium Web'"
         id="path1025"
         inkscape:connector-curvature="0" />
      <path
         d="m -1183.0368,-143.99602 h 8.576 v 32 h -8.512 v -1.792 q -4.608,2.56 -8,2.56 -6.656,0 -8.96,-3.648 -2.304,-3.712 -2.304,-12.352 v -16.768 h 8.576 v 16.896 q 0,4.736 0.768,6.464 0.768,1.728 3.712,1.728 2.816,0 5.312,-0.896 l 0.832,-0.256 z"
         style="font-style:normal;font-variant:normal;font-weight:normal;font-stretch:normal;font-size:64px;font-family:'Titillium Web';-inkscape-font-specification:'Titillium Web'"
         id="path1027"
         inkscape:connector-curvature="0" />
      <path
         d="m -1148.8138,-136.70002 h -7.872 v 13.12 q 0,1.92 0.064,2.752 0.128,0.768 0.704,1.344 0.64,0.576 1.92,0.576 l 4.864,-0.128 0.384,6.848 q -4.288,0.96 -6.528,0.96 -5.76,0 -7.872,-2.56 -2.112,-2.624 -2.112,-9.6 v -13.312 h -3.776 v -7.296 h 3.776 v -8.896 h 8.576 v 8.896 h 7.872 z"
         style="font-style:normal;font-variant:normal;font-weight:normal;font-stretch:normal;font-size:64px;font-family:'Titillium Web';-inkscape-font-specification:'Titillium Web'"
         id="path1029"
         inkscape:connector-curvature="0" />
      <path
         d="m -1128.7828,-111.99602 v -44.8 h 8.576 v 44.8 z"
         style="font-style:normal;font-variant:normal;font-weight:normal;font-stretch:normal;font-size:64px;font-family:'Titillium Web';-inkscape-font-specification:'Titillium Web'"
         id="path1031"
         inkscape:connector-curvature="0" />
      <path
         d="m -1087.4048,-134.01202 v 13.312 q 0.128,1.536 0.512,2.176 0.384,0.576 1.6,0.832 l -0.256,6.464 q -3.264,0 -5.248,-0.448 -1.92,-0.448 -3.904,-1.792 -4.608,2.24 -9.408,2.24 -9.92,0 -9.92,-10.496 0,-5.12 2.752,-7.232 2.752,-2.176 8.448,-2.56 l 6.848,-0.512 v -1.984 q 0,-1.984 -0.896,-2.688 -0.896,-0.768 -2.88,-0.768 l -12.032,0.512 -0.256,-5.952 q 6.848,-1.856 12.992,-1.856 6.208,0 8.896,2.56 2.752,2.56 2.752,8.192 z m -14.4,8.448 q -3.584,0.32 -3.584,3.84 0,3.52 3.136,3.52 2.432,0 5.312,-0.768 l 0.96,-0.256 v -6.848 z"
         style="font-style:normal;font-variant:normal;font-weight:normal;font-stretch:normal;font-size:64px;font-family:'Titillium Web';-inkscape-font-specification:'Titillium Web'"
         id="path1033"
         inkscape:connector-curvature="0" />
      <path
         d="m -1082.6108,-143.99602 h 8.448 l 5.824,24.704 h 1.472 l 5.824,-24.704 h 8.448 l -11.264,45.439997 h -8.384 l 3.52,-13.439997 h -6.016 z"
         style="font-style:normal;font-variant:normal;font-weight:normal;font-stretch:normal;font-size:64px;font-family:'Titillium Web';-inkscape-font-specification:'Titillium Web'"
         id="path1035"
         inkscape:connector-curvature="0" />
      <path
         d="m -1041.1268,-124.34802 q 0.064,2.944 1.536,4.288 1.536,1.28 4.352,1.28 5.952,0 10.624,-0.384 l 1.792,-0.192 0.128,6.336 q -7.36,1.792 -13.312,1.792 -7.232,0 -10.496,-3.84 -3.264,-3.84 -3.264,-12.48 0,-17.216 14.144,-17.216 13.952,0 13.952,14.464 l -0.64,5.952 z m 11.008,-6.528 q 0,-3.84 -1.216,-5.312 -1.216,-1.536 -4.288,-1.536 -3.008,0 -4.288,1.6 -1.216,1.536 -1.28,5.248 z"
         style="font-style:normal;font-variant:normal;font-weight:normal;font-stretch:normal;font-size:64px;font-family:'Titillium Web';-inkscape-font-specification:'Titillium Web'"
         id="path1037"
         inkscape:connector-curvature="0" />
      <path
         d="m -1015.5418,-111.99602 v -32 h 8.512 v 3.392 q 5.376,-3.2 10.24003,-4.16 v 8.64 q -5.18403,1.088 -8.89603,2.24 l -1.28,0.448 v 21.44 z"
         style="font-style:normal;font-variant:normal;font-weight:normal;font-stretch:normal;font-size:64px;font-family:'Titillium Web';-inkscape-font-specification:'Titillium Web'"
         id="path1039"
         inkscape:connector-curvature="0" />
    </g>
    <g
       aria-label="Output layer"
       transform="translate(882.39601,-656.68972)"
       style="font-style:normal;font-weight:normal;font-size:40px;line-height:1.25;font-family:sans-serif;letter-spacing:0px;word-spacing:0px;fill:#000000;fill-opacity:1;fill-rule:evenodd;stroke:none"
       id="flowRoot926-3">
      <path
         d="m -1280.6248,-122.23602 q 1.92,3.328 7.104,3.328 5.184,0 7.04,-3.328 1.92,-3.392 1.92,-11.264 0,-7.936 -1.92,-11.52 -1.92,-3.584 -7.04,-3.584 -5.12,0 -7.04,3.584 -1.92,3.584 -1.92,11.52 0,7.872 1.856,11.264 z m 21.056,5.632 q -4.032,5.376 -13.952,5.376 -9.92,0 -14.016,-5.376 -4.032,-5.44 -4.032,-16.96 0,-11.52 4.032,-17.088 4.096,-5.632 14.016,-5.632 9.92,0 13.952,5.632 4.096,5.568 4.096,17.088 0,11.52 -4.096,16.96 z"
         style="font-style:normal;font-variant:normal;font-weight:normal;font-stretch:normal;font-size:64px;font-family:'Titillium Web';-inkscape-font-specification:'Titillium Web'"
         id="path998"
         inkscape:connector-curvature="0" />
      <path
         d="m -1229.7868,-143.99602 h 8.576 v 32 h -8.512 v -1.792 q -4.608,2.56 -8,2.56 -6.656,0 -8.96,-3.648 -2.304,-3.712 -2.304,-12.352 v -16.768 h 8.576 v 16.896 q 0,4.736 0.768,6.464 0.768,1.728 3.712,1.728 2.816,0 5.312,-0.896 l 0.832,-0.256 z"
         style="font-style:normal;font-variant:normal;font-weight:normal;font-stretch:normal;font-size:64px;font-family:'Titillium Web';-inkscape-font-specification:'Titillium Web'"
         id="path1000"
         inkscape:connector-curvature="0" />
      <path
         d="m -1195.5638,-136.70002 h -7.872 v 13.12 q 0,1.92 0.064,2.752 0.128,0.768 0.704,1.344 0.64,0.576 1.92,0.576 l 4.864,-0.128 0.384,6.848 q -4.288,0.96 -6.528,0.96 -5.76,0 -7.872,-2.56 -2.112,-2.624 -2.112,-9.6 v -13.312 h -3.776 v -7.296 h 3.776 v -8.896 h 8.576 v 8.896 h 7.872 z"
         style="font-style:normal;font-variant:normal;font-weight:normal;font-stretch:normal;font-size:64px;font-family:'Titillium Web';-inkscape-font-specification:'Titillium Web'"
         id="path1002"
         inkscape:connector-curvature="0" />
      <path
         d="m -1190.0418,-98.556023 v -45.439997 h 8.512 v 1.728 q 4.16,-2.496 7.296,-2.496 6.464,0 9.536,3.904 3.072,3.84 3.072,13.12 0,9.28 -3.392,12.928 -3.392,3.584 -11.136,3.584 -2.112,0 -4.544,-0.384 l -0.768,-0.128 v 13.183997 z m 14.144,-38.527997 q -2.368,0 -4.8,0.96 l -0.768,0.32 v 16.768 q 2.88,0.384 4.672,0.384 3.712,0 5.056,-2.176 1.408,-2.176 1.408,-7.424 0,-8.832 -5.568,-8.832 z"
         style="font-style:normal;font-variant:normal;font-weight:normal;font-stretch:normal;font-size:64px;font-family:'Titillium Web';-inkscape-font-specification:'Titillium Web'"
         id="path1004"
         inkscape:connector-curvature="0" />
      <path
         d="m -1136.2868,-143.99602 h 8.576 v 32 h -8.512 v -1.792 q -4.608,2.56 -8,2.56 -6.656,0 -8.96,-3.648 -2.304,-3.712 -2.304,-12.352 v -16.768 h 8.576 v 16.896 q 0,4.736 0.768,6.464 0.768,1.728 3.712,1.728 2.816,0 5.312,-0.896 l 0.832,-0.256 z"
         style="font-style:normal;font-variant:normal;font-weight:normal;font-stretch:normal;font-size:64px;font-family:'Titillium Web';-inkscape-font-specification:'Titillium Web'"
         id="path1006"
         inkscape:connector-curvature="0" />
      <path
         d="m -1102.0638,-136.70002 h -7.872 v 13.12 q 0,1.92 0.064,2.752 0.128,0.768 0.704,1.344 0.64,0.576 1.92,0.576 l 4.864,-0.128 0.384,6.848 q -4.288,0.96 -6.528,0.96 -5.76,0 -7.872,-2.56 -2.112,-2.624 -2.112,-9.6 v -13.312 h -3.776 v -7.296 h 3.776 v -8.896 h 8.576 v 8.896 h 7.872 z"
         style="font-style:normal;font-variant:normal;font-weight:normal;font-stretch:normal;font-size:64px;font-family:'Titillium Web';-inkscape-font-specification:'Titillium Web'"
         id="path1008"
         inkscape:connector-curvature="0" />
      <path
         d="m -1082.0328,-111.99602 v -44.8 h 8.576 v 44.8 z"
         style="font-style:normal;font-variant:normal;font-weight:normal;font-stretch:normal;font-size:64px;font-family:'Titillium Web';-inkscape-font-specification:'Titillium Web'"
         id="path1010"
         inkscape:connector-curvature="0" />
      <path
         d="m -1040.6548,-134.01202 v 13.312 q 0.128,1.536 0.512,2.176 0.384,0.576 1.6,0.832 l -0.256,6.464 q -3.264,0 -5.248,-0.448 -1.92,-0.448 -3.904,-1.792 -4.608,2.24 -9.408,2.24 -9.92,0 -9.92,-10.496 0,-5.12 2.752,-7.232 2.752,-2.176 8.448,-2.56 l 6.848,-0.512 v -1.984 q 0,-1.984 -0.896,-2.688 -0.896,-0.768 -2.88,-0.768 l -12.032,0.512 -0.256,-5.952 q 6.848,-1.856 12.992,-1.856 6.208,0 8.896,2.56 2.752,2.56 2.752,8.192 z m -14.4,8.448 q -3.584,0.32 -3.584,3.84 0,3.52 3.136,3.52 2.432,0 5.312,-0.768 l 0.96,-0.256 v -6.848 z"
         style="font-style:normal;font-variant:normal;font-weight:normal;font-stretch:normal;font-size:64px;font-family:'Titillium Web';-inkscape-font-specification:'Titillium Web'"
         id="path1012"
         inkscape:connector-curvature="0" />
      <path
         d="m -1035.8608,-143.99602 h 8.448 l 5.824,24.704 h 1.472 l 5.824,-24.704 h 8.448 l -11.264,45.439997 h -8.384 l 3.52,-13.439997 h -6.016 z"
         style="font-style:normal;font-variant:normal;font-weight:normal;font-stretch:normal;font-size:64px;font-family:'Titillium Web';-inkscape-font-specification:'Titillium Web'"
         id="path1014"
         inkscape:connector-curvature="0" />
      <path
         d="m -994.37677,-124.34802 q 0.064,2.944 1.536,4.288 1.536,1.28 4.352,1.28 5.952,0 10.624,-0.384 l 1.792,-0.192 0.128,6.336 q -7.36,1.792 -13.312,1.792 -7.232,0 -10.496,-3.84 -3.26403,-3.84 -3.26403,-12.48 0,-17.216 14.14403,-17.216 13.952,0 13.952,14.464 l -0.64,5.952 z m 11.008,-6.528 q 0,-3.84 -1.216,-5.312 -1.216,-1.536 -4.288,-1.536 -3.008,0 -4.288,1.6 -1.216,1.536 -1.28,5.248 z"
         style="font-style:normal;font-variant:normal;font-weight:normal;font-stretch:normal;font-size:64px;font-family:'Titillium Web';-inkscape-font-specification:'Titillium Web'"
         id="path1016"
         inkscape:connector-curvature="0" />
      <path
         d="m -968.79177,-111.99602 v -32 h 8.512 v 3.392 q 5.376,-3.2 10.24,-4.16 v 8.64 q -5.184,1.088 -8.896,2.24 l -1.28,0.448 v 21.44 z"
         style="font-style:normal;font-variant:normal;font-weight:normal;font-stretch:normal;font-size:64px;font-family:'Titillium Web';-inkscape-font-specification:'Titillium Web'"
         id="path1018"
         inkscape:connector-curvature="0" />
    </g>
    <g
       aria-label="Hidden layer"
       transform="translate(452.23227,-822.13732)"
       style="font-style:normal;font-weight:normal;font-size:40px;line-height:1.25;font-family:sans-serif;letter-spacing:0px;word-spacing:0px;fill:#000000;fill-opacity:1;fill-rule:evenodd;stroke:none"
       id="flowRoot926-35">
      <path
         d="m -1264.6248,-111.99602 v -18.048 h -16.192 v 18.048 h -8.832 v -43.52 h 8.832 v 17.792 h 16.192 v -17.792 h 8.832 v 43.52 z"
         style="font-style:normal;font-variant:normal;font-weight:normal;font-stretch:normal;font-size:64px;font-family:'Titillium Web';-inkscape-font-specification:'Titillium Web'"
         id="path975"
         inkscape:connector-curvature="0" />
      <path
         d="m -1247.0418,-111.99602 v -32 h 8.576 v 32 z m 0,-36.096 v -8.704 h 8.576 v 8.704 z"
         style="font-style:normal;font-variant:normal;font-weight:normal;font-stretch:normal;font-size:64px;font-family:'Titillium Web';-inkscape-font-specification:'Titillium Web'"
         id="path977"
         inkscape:connector-curvature="0" />
      <path
         d="m -1203.3418,-156.79602 v 44.8 h -8.512 v -1.344 q -4.48,2.112 -7.744,2.112 -6.976,0 -9.728,-4.032 -2.752,-4.032 -2.752,-12.736 0,-8.768 3.264,-12.736 3.328,-4.032 9.984,-4.032 2.048,0 5.696,0.64 l 1.216,0.256 v -12.928 z m -9.472,37.12 0.896,-0.192 v -16.832 q -3.52,-0.64 -6.272,-0.64 -5.184,0 -5.184,9.216 0,4.992 1.152,7.104 1.152,2.112 3.776,2.112 2.688,0 5.632,-0.768 z"
         style="font-style:normal;font-variant:normal;font-weight:normal;font-stretch:normal;font-size:64px;font-family:'Titillium Web';-inkscape-font-specification:'Titillium Web'"
         id="path979"
         inkscape:connector-curvature="0" />
      <path
         d="m -1168.2168,-156.79602 v 44.8 h -8.512 v -1.344 q -4.48,2.112 -7.744,2.112 -6.976,0 -9.728,-4.032 -2.752,-4.032 -2.752,-12.736 0,-8.768 3.264,-12.736 3.328,-4.032 9.984,-4.032 2.048,0 5.696,0.64 l 1.216,0.256 v -12.928 z m -9.472,37.12 0.896,-0.192 v -16.832 q -3.52,-0.64 -6.272,-0.64 -5.184,0 -5.184,9.216 0,4.992 1.152,7.104 1.152,2.112 3.776,2.112 2.688,0 5.632,-0.768 z"
         style="font-style:normal;font-variant:normal;font-weight:normal;font-stretch:normal;font-size:64px;font-family:'Titillium Web';-inkscape-font-specification:'Titillium Web'"
         id="path981"
         inkscape:connector-curvature="0" />
      <path
         d="m -1153.2518,-124.34802 q 0.064,2.944 1.536,4.288 1.536,1.28 4.352,1.28 5.952,0 10.624,-0.384 l 1.792,-0.192 0.128,6.336 q -7.36,1.792 -13.312,1.792 -7.232,0 -10.496,-3.84 -3.264,-3.84 -3.264,-12.48 0,-17.216 14.144,-17.216 13.952,0 13.952,14.464 l -0.64,5.952 z m 11.008,-6.528 q 0,-3.84 -1.216,-5.312 -1.216,-1.536 -4.288,-1.536 -3.008,0 -4.288,1.6 -1.216,1.536 -1.28,5.248 z"
         style="font-style:normal;font-variant:normal;font-weight:normal;font-stretch:normal;font-size:64px;font-family:'Titillium Web';-inkscape-font-specification:'Titillium Web'"
         id="path983"
         inkscape:connector-curvature="0" />
      <path
         d="m -1119.0908,-111.99602 h -8.576 v -32 h 8.512 v 1.792 q 4.352,-2.56 8,-2.56 6.4,0 8.832,3.776 2.432,3.776 2.432,11.648 v 17.344 h -8.576 v -17.088 q 0,-4.096 -0.96,-6.016 -0.96,-1.984 -3.84,-1.984 -2.624,0 -5.056,0.896 l -0.768,0.256 z"
         style="font-style:normal;font-variant:normal;font-weight:normal;font-stretch:normal;font-size:64px;font-family:'Titillium Web';-inkscape-font-specification:'Titillium Web'"
         id="path985"
         inkscape:connector-curvature="0" />
      <path
         d="m -1077.7828,-111.99602 v -44.8 h 8.576 v 44.8 z"
         style="font-style:normal;font-variant:normal;font-weight:normal;font-stretch:normal;font-size:64px;font-family:'Titillium Web';-inkscape-font-specification:'Titillium Web'"
         id="path987"
         inkscape:connector-curvature="0" />
      <path
         d="m -1036.4048,-134.01202 v 13.312 q 0.128,1.536 0.512,2.176 0.384,0.576 1.6,0.832 l -0.256,6.464 q -3.264,0 -5.248,-0.448 -1.92,-0.448 -3.904,-1.792 -4.608,2.24 -9.408,2.24 -9.92,0 -9.92,-10.496 0,-5.12 2.752,-7.232 2.752,-2.176 8.448,-2.56 l 6.848,-0.512 v -1.984 q 0,-1.984 -0.896,-2.688 -0.896,-0.768 -2.88,-0.768 l -12.032,0.512 -0.256,-5.952 q 6.848,-1.856 12.992,-1.856 6.208,0 8.896,2.56 2.752,2.56 2.752,8.192 z m -14.4,8.448 q -3.584,0.32 -3.584,3.84 0,3.52 3.136,3.52 2.432,0 5.312,-0.768 l 0.96,-0.256 v -6.848 z"
         style="font-style:normal;font-variant:normal;font-weight:normal;font-stretch:normal;font-size:64px;font-family:'Titillium Web';-inkscape-font-specification:'Titillium Web'"
         id="path989"
         inkscape:connector-curvature="0" />
      <path
         d="m -1031.6108,-143.99602 h 8.448 l 5.824,24.704 h 1.472 l 5.824,-24.704 h 8.448 l -11.264,45.439997 h -8.384 l 3.52,-13.439997 h -6.016 z"
         style="font-style:normal;font-variant:normal;font-weight:normal;font-stretch:normal;font-size:64px;font-family:'Titillium Web';-inkscape-font-specification:'Titillium Web'"
         id="path991"
         inkscape:connector-curvature="0" />
      <path
         d="m -990.12677,-124.34802 q 0.064,2.944 1.536,4.288 1.536,1.28 4.352,1.28 5.952,0 10.624,-0.384 l 1.792,-0.192 0.128,6.336 q -7.36,1.792 -13.312,1.792 -7.232,0 -10.496,-3.84 -3.264,-3.84 -3.264,-12.48 0,-17.216 14.144,-17.216 13.952,0 13.952,14.464 l -0.64,5.952 z m 11.008,-6.528 q 0,-3.84 -1.216,-5.312 -1.216,-1.536 -4.288,-1.536 -3.008,0 -4.288,1.6 -1.216,1.536 -1.28,5.248 z"
         style="font-style:normal;font-variant:normal;font-weight:normal;font-stretch:normal;font-size:64px;font-family:'Titillium Web';-inkscape-font-specification:'Titillium Web'"
         id="path993"
         inkscape:connector-curvature="0" />
      <path
         d="m -964.54177,-111.99602 v -32 h 8.512 v 3.392 q 5.376,-3.2 10.24,-4.16 v 8.64 q -5.184,1.088 -8.896,2.24 l -1.28,0.448 v 21.44 z"
         style="font-style:normal;font-variant:normal;font-weight:normal;font-stretch:normal;font-size:64px;font-family:'Titillium Web';-inkscape-font-specification:'Titillium Web'"
         id="path995"
         inkscape:connector-curvature="0" />
    </g>
  </g>
</svg>
