<?xml version="1.0" encoding="UTF-8" standalone="no"?>
<!-- Created with Inkscape (http://www.inkscape.org/) -->

<svg
   xmlns:dc="http://purl.org/dc/elements/1.1/"
   xmlns:cc="http://creativecommons.org/ns#"
   xmlns:rdf="http://www.w3.org/1999/02/22-rdf-syntax-ns#"
   xmlns:svg="http://www.w3.org/2000/svg"
   xmlns="http://www.w3.org/2000/svg"
   xmlns:sodipodi="http://sodipodi.sourceforge.net/DTD/sodipodi-0.dtd"
   xmlns:inkscape="http://www.inkscape.org/namespaces/inkscape"
   width="159.73021mm"
   height="87.246979mm"
   viewBox="0 0 159.73021 87.246979"
   version="1.1"
   id="svg8"
   inkscape:version="0.92.3 (2405546, 2018-03-11)"
   sodipodi:docname="neuron.svg">
  <defs
     id="defs2" />
  <sodipodi:namedview
     id="base"
     pagecolor="#ffffff"
     bordercolor="#666666"
     borderopacity="1.0"
     inkscape:pageopacity="0.0"
     inkscape:pageshadow="2"
     inkscape:zoom="1"
     inkscape:cx="508.02881"
     inkscape:cy="22.231524"
     inkscape:document-units="mm"
     inkscape:current-layer="layer1"
     showgrid="false"
     showguides="false"
     fit-margin-top="0"
     fit-margin-left="0"
     fit-margin-right="0"
     fit-margin-bottom="0"
     inkscape:window-width="1839"
     inkscape:window-height="1025"
     inkscape:window-x="81"
     inkscape:window-y="27"
     inkscape:window-maximized="1" />
  <metadata
     id="metadata5">
    <rdf:RDF>
      <cc:Work
         rdf:about="">
        <dc:format>image/svg+xml</dc:format>
        <dc:type
           rdf:resource="http://purl.org/dc/dcmitype/StillImage" />
        <dc:title></dc:title>
      </cc:Work>
    </rdf:RDF>
  </metadata>
  <g
     inkscape:label="Vrstva 1"
     inkscape:groupmode="layer"
     id="layer1"
     transform="translate(12.336468,-52.892987)">
    <g
       id="g1074"
       transform="matrix(1,0,0,-1,0.6693375,192.7622)">
      <path
         sodipodi:nodetypes="cssc"
         inkscape:connector-curvature="0"
         id="path884"
         d="m 50.544006,99.72502 c -0.440834,-0.09674 -4.092005,0.153526 -7.153853,-1.536166 -3.47043,-1.915171 -4.913753,-6.130348 -3.90108,-8.155696 2.036936,-4.073874 3.752161,-4.87054 6.875508,-5.940066"
         style="fill:none;stroke:#291639;stroke-width:0.87312502;stroke-linecap:butt;stroke-linejoin:miter;stroke-miterlimit:4;stroke-dasharray:none;stroke-opacity:1" />
      <path
         sodipodi:nodetypes="ccsc"
         inkscape:connector-curvature="0"
         id="path886"
         d="M 44.760963,82.389249 C 41.479566,85.556317 34.692867,89.509137 31.136899,87.059785 27.46326,84.435756 25.957414,78.987916 28.33057,75.032657 28.931547,74.03103 30.578107,71.973182 33.079196,71.574588"
         style="fill:none;stroke:#291639;stroke-width:0.87312502;stroke-linecap:butt;stroke-linejoin:miter;stroke-miterlimit:4;stroke-dasharray:none;stroke-opacity:1" />
      <path
         sodipodi:nodetypes="ccsc"
         inkscape:connector-curvature="0"
         id="path888"
         d="M 26.052759,70.132635 C 27.225336,79.580967 21.56253,84.117524 19.112553,85.526342 16.299366,87.214254 11.090156,85.044238 9.0885547,83.042636 8.1199622,82.074044 6.8329763,80.414111 6.8329763,78.939099"
         style="fill:none;stroke:#291639;stroke-width:0.87312502;stroke-linecap:butt;stroke-linejoin:miter;stroke-miterlimit:4;stroke-dasharray:none;stroke-opacity:1" />
      <path
         sodipodi:nodetypes="cc"
         inkscape:connector-curvature="0"
         id="path890"
         d="M 3.3556908,85.180792 C 16.454794,85.534225 15.262892,101.3736 6.4416647,103.87359"
         style="fill:none;stroke:#291639;stroke-width:0.87312502;stroke-linecap:butt;stroke-linejoin:miter;stroke-miterlimit:4;stroke-dasharray:none;stroke-opacity:1" />
      <path
         sodipodi:nodetypes="ccc"
         inkscape:connector-curvature="0"
         id="path892"
         d="m 6.7215265,106.64063 c 3.1828763,-3.75521 11.7353945,-0.0848 12.0588585,3.51161 0.14495,3.31505 -0.758365,6.27088 -4.520236,6.92109"
         style="fill:none;stroke:#291639;stroke-width:0.87312502;stroke-linecap:butt;stroke-linejoin:miter;stroke-miterlimit:4;stroke-dasharray:none;stroke-opacity:1" />
      <path
         sodipodi:nodetypes="csc"
         inkscape:connector-curvature="0"
         id="path894"
         d="m 19.259523,116.27039 c 3.049509,-6.05952 12.021341,-12.27419 15.789886,-2.85283 1.083128,2.70782 0.73807,6.19855 -1.674126,7.51863"
         style="fill:none;stroke:#291639;stroke-width:0.87312502;stroke-linecap:butt;stroke-linejoin:miter;stroke-miterlimit:4;stroke-dasharray:none;stroke-opacity:1" />
      <path
         sodipodi:nodetypes="czcczzcccczczccczcccccc"
         inkscape:connector-curvature="0"
         id="path896"
         d="m 50.544006,99.72502 c 17.019417,2.3811 26.912361,-13.017564 38.216339,-14.514345 11.303975,-1.496781 15.332595,3.274701 28.738855,-0.442152 m -0.8599,6.746875 c -1.98496,-3.96992 -12.00573,-1.431481 -22.881944,-2.520065 -10.876214,-1.088585 -28.404816,13.513617 -38.74147,14.423297 -10.336655,0.90968 -13.561671,-3.07814 -17.066395,-0.44959 -6.401535,4.80115 -0.615594,12.86286 2.733374,12.16215 3.348969,-0.7007 7.628101,1.8602 9.296537,4.00094 -2.117903,-1.09508 -9.302507,-3.27657 -10.958051,-1.60361 -1.915426,2.52336 4.717492,6.13613 6.374514,6.83297 1.657022,0.69683 3.984915,2.58827 5.385345,4.65961 -0.877432,-0.63315 -7.095418,-5.16176 -8.552625,-3.87541 -1.457207,1.28635 2.037593,6.59301 3.875409,9.08717 -3.675946,-1.70384 -4.62063,-4.67773 -5.838007,-7.72117 -0.410419,-1.02605 -0.517651,-1.98696 -1.013725,-2.97911 -0.822335,-2.09304 -3.088075,-2.56715 -3.847732,-0.43906 -0.759657,2.12809 3.078699,6.6179 3.082282,7.66483 -0.348326,0.34833 -2.951668,-4.04244 -3.942226,-4.04244 -2.537168,7.19743 -4.31802,8.33101 -2.472243,12.19416 -6.467806,-3.2339 4.413165,-12.46002 1.13532,-15.73787 -0.867323,-0.86732 -2.462391,1.25705 -4.275736,4.61278 0.09606,-2.9817 1.275171,-4.88847 4.443356,-6.84879"
         style="fill:none;stroke:#291639;stroke-width:0.87312502;stroke-linecap:butt;stroke-linejoin:miter;stroke-miterlimit:4;stroke-dasharray:none;stroke-opacity:1" />
      <path
         sodipodi:nodetypes="czczccczcccccc"
         inkscape:connector-curvature="0"
         id="path896-6-7"
         d="m 19.259523,116.27039 c -1.872877,3.80383 2.079648,8.84877 3.066137,10.35148 0.986495,1.50271 1.86335,4.37111 1.87011,6.87143 -0.375007,-1.01495 -3.009237,-8.24216 -4.936226,-7.98748 -1.926989,0.25468 -1.986874,6.60847 -1.852983,9.70371 -2.10031,-3.46473 -1.225336,-6.45987 -0.537882,-9.66486 0.231766,-1.08051 0.678819,-1.93783 0.820585,-3.03799 0.485128,-2.19584 -1.13081,-3.85327 -2.948446,-2.51087 -1.817635,1.3424 -1.136706,7.20992 -1.717768,8.0808 -0.483407,0.0948 -0.194602,-5.00158 -1.016703,-5.55417 -6.120821,4.55805 -8.231192,4.50539 -8.854393,8.74124 -3.563826,-6.29204 10.613549,-7.87913 9.721709,-12.42811 -0.235984,-1.20366 -2.744884,-0.33038 -6.121861,1.44308 1.743083,-2.42104 3.785374,-3.34577 7.508347,-3.20532"
         style="fill:none;stroke:#291639;stroke-width:0.87312502;stroke-linecap:butt;stroke-linejoin:miter;stroke-miterlimit:4;stroke-dasharray:none;stroke-opacity:1" />
      <path
         sodipodi:nodetypes="ccczczccczcccccc"
         inkscape:connector-curvature="0"
         id="path896-6-7-5"
         d="m 3.3556908,85.180792 c -1.2470423,0.7553 -7.333662,2.804581 -9.9230852,1.991356 2.3649841,-0.302595 9.5163269,-2.590768 9.927755,-4.908169 0.1419668,-3.164814 -7.3688623,-2.367845 -9.1283026,-1.9995 -1.7594339,0.368355 -4.749784,0.135036 -7.079249,-0.773397 1.08179,0.0223 8.7716954,0.21471 9.2396464,-1.671867 0.4679517,-1.886576 -5.4234653,-4.266799 -8.3531114,-5.27456 3.9929261,-0.687162 6.460332,1.222907 9.1916382,3.035226 0.9208171,0.610996 1.5551498,1.340702 2.52717888,1.875126 1.86613382,1.254828 3.99985212,0.357275 3.41547812,-1.825465 -0.5843741,-2.182739 -6.2942432,-3.695602 -6.8921785,-4.554991 0.088644,-0.484569 4.7260457,1.648681 5.541087,1.085731 -2.00280742,-7.364034 -1.18173452,-9.30884 -4.8959485,-11.438495 7.1596547,-1.014874 3.45003088,12.760306 8.0099298,13.594502 1.2065549,0.220722 1.3116791,-2.433731 0.8966033,-6.225413 2.1834564,3.276366 0.4381467,8.311452 0.999844,10.848223"
         style="fill:none;stroke:#291639;stroke-width:0.87312502;stroke-linecap:butt;stroke-linejoin:miter;stroke-miterlimit:4;stroke-dasharray:none;stroke-opacity:1" />
      <path
         sodipodi:nodetypes="ccczczccczcccccc"
         inkscape:connector-curvature="0"
         id="path896-6-7-3"
         d="m 33.079196,71.574588 c 2.827942,-0.2494 5.62175,-3.455995 6.440192,-5.660679 -1.423642,1.443007 -6.616709,5.056903 -8.329262,4.071741 -2.120766,-1.630946 2.294414,-6.303249 3.446181,-7.298601 1.151771,-0.995342 2.553472,-3.156118 3.17536,-5.235999 -0.547248,0.747784 -4.415461,6.0819 -5.878695,5.370334 -1.463233,-0.711568 0.05607,-6.016916 0.925329,-8.559136 -2.517628,2.340088 -2.563261,5.060502 -2.809139,7.907011 -0.08289,0.959656 0.05974,1.789302 -0.09927,2.741986 -0.157267,1.953896 -1.845665,2.914892 -2.954087,1.326094 -1.108421,-1.588798 0.877646,-6.297257 0.632232,-7.172939 -0.359451,-0.204223 -1.387408,4.1136 -2.17471,4.360543 -3.723309,-5.381483 -5.407552,-5.884712 -4.856598,-9.572807 -4.373789,4.314566 6.4623,9.311088 4.634334,12.867131 -0.483683,0.940931 -2.255213,-0.436493 -4.492227,-2.788395 0.78341,2.467486 5.071297,4.125163 5.313923,6.201763"
         style="fill:none;stroke:#291639;stroke-width:0.87312502;stroke-linecap:butt;stroke-linejoin:miter;stroke-miterlimit:4;stroke-dasharray:none;stroke-opacity:1" />
      <path
         sodipodi:nodetypes="ccczczccczcccccc"
         inkscape:connector-curvature="0"
         id="path896-6-7-3-5"
         d="m 6.4416647,103.87359 c -3.6395994,1.52432 -12.6614004,-3.48109 -14.6484503,-2.5149 2.2139175,1.37106 5.512225,1.5944 6.2148565,3.44094 0.610055,2.60489 -2.9541268,2.10583 -4.4758155,2.14769 -1.521685,0.0419 -3.9743924,0.82796 -5.7720874,2.0449 0.896939,-0.23271 7.2676011,-1.91514 7.9503118,-0.43822 0.68271,1.47692 -3.8509544,4.62347 -6.1327638,6.04186 3.4302424,-0.21877 5.1870754,-2.29634 7.1787512,-4.34483 0.6714552,-0.69062 1.0860232,-1.42328 1.8120082,-2.06033 1.35821384,-1.4134 3.2736845,-1.08908 3.126544,0.84256 -0.1471413,1.93164 -4.6645166,4.32065 -5.0286259,5.154 0.1490948,0.38559 3.67739644,-2.30725 4.4432775,-2.00024 -0.52243936,6.52306 0.4632398,7.97852 -2.2972227,10.48561 6.1169563,-0.57306 0.88829324,-11.29906 4.553997,-12.8958 0.9699471,-0.42249 1.4700141,1.7651 1.7138592,5.0018 0.9548412,-2.40635 0.515004,-6.37653 1.641222,-8.138"
         style="fill:none;stroke:#291639;stroke-width:0.87312502;stroke-linecap:butt;stroke-linejoin:miter;stroke-miterlimit:4;stroke-dasharray:none;stroke-opacity:1" />
      <path
         sodipodi:nodetypes="czczccczcccc"
         inkscape:connector-curvature="0"
         id="path896-6-7-3-6"
         d="m 46.364581,84.093092 c 2.274866,-0.944752 7.023923,-1.147607 8.516982,-0.850848 1.493054,0.296767 4.059035,0.07437 6.08191,-0.713431 -0.92622,0.02793 -7.511373,0.255136 -7.849427,-1.336435 -0.338051,-1.591572 4.780698,-3.653949 7.320314,-4.53079 -3.393307,-0.547656 -5.56726,1.088398 -7.963754,2.643996 -0.807939,0.524448 -1.374711,1.146882 -2.223935,1.607001 -1.637924,1.076869 -2.825675,0.335691 -2.253676,-1.515173 0.572004,-1.85086 4.898763,-3.178183 5.438675,-3.909989 -0.05984,-0.409062 -4.097614,1.433934 -4.776306,0.964677 1.956539,-6.244627 1.318308,-7.882484 4.566166,-9.714696 -6.091659,-0.79825 -4.999706,11.86793 -8.460567,15.651845"
         style="fill:none;stroke:#291639;stroke-width:0.87312502;stroke-linecap:butt;stroke-linejoin:miter;stroke-miterlimit:4;stroke-dasharray:none;stroke-opacity:1" />
      <ellipse
         ry="6.4822912"
         rx="9.260416"
         cy="96.578125"
         cx="25.4"
         id="path987"
         style="opacity:1;fill:none;fill-opacity:1;stroke:#291639;stroke-width:0.87312502;stroke-linecap:round;stroke-linejoin:round;stroke-miterlimit:4;stroke-dasharray:none;stroke-dashoffset:0;stroke-opacity:1" />
      <path
         sodipodi:nodetypes="czczccczcccccc"
         inkscape:connector-curvature="0"
         id="path896-6-7-2"
         d="m 119.44069,89.160323 c 1.04844,4.10823 11.29982,10.070474 13.02615,10.571544 1.72634,0.501063 4.25684,2.111393 5.88683,4.007383 -0.9446,-0.52772 -7.6434,-4.308953 -8.94252,-2.86312 -1.29912,1.44584 2.7844,6.31401 4.89762,8.57956 -3.84793,-1.2685 -5.1293,-4.11359 -6.68958,-6.99631 -0.52601,-0.97187 -0.74336,-1.914 -1.35055,-2.842313 -1.05825,-1.98423 -3.36355,-2.19385 -3.8727,0.008 -0.50914,2.201503 3.82145,6.218653 3.94575,7.258183 -0.30581,0.3862 -3.39821,-3.67503 -4.38216,-3.56078 -1.69011,7.44203 -3.32833,8.77344 -1.04931,12.39792 -6.79763,-2.46634 2.94662,-12.88587 -0.68741,-15.763793 -0.96157,-0.76149 -2.30097,4.906123 -3.71517,8.448593 1.14057,-6.80934 2.89925,-13.254232 0.13166,-16.889792"
         style="fill:none;stroke:#291639;stroke-width:0.87312502;stroke-linecap:butt;stroke-linejoin:miter;stroke-miterlimit:4;stroke-dasharray:none;stroke-opacity:1" />
      <path
         sodipodi:nodetypes="ccczczccczcccccc"
         inkscape:connector-curvature="0"
         id="path896-6-7-5-9"
         d="m 117.4992,84.768523 c 5.25427,-1.586545 4.54634,-9.207073 6.45095,-11.14068 -0.80924,2.242732 -2.96023,11.568853 -1.08547,12.991843 2.7518,1.569642 6.39384,-7.396358 6.86842,-9.130166 0.47455,-1.733806 2.04593,-4.288686 3.91674,-5.947529 -0.5132,0.95258 -4.19137,7.708522 -2.7258,8.985342 1.46557,1.276814 6.27061,-2.88081 8.50352,-5.028483 -1.20941,3.866907 -4.03453,5.19172 -6.89301,6.795964 -0.96369,0.540847 -1.90238,0.772597 -2.82129,1.39394 -1.96779,1.088531 -2.14207,3.396772 0.067,3.872126 2.20905,0.475358 6.15937,-3.916248 7.19689,-4.056473 0.39079,0.299925 -3.62255,3.454114 -3.49324,4.436194 7.46704,1.575909 8.82338,3.19355 12.41254,0.859271 -2.36192,6.834612 -12.92949,-2.748883 -15.75142,0.928808 -0.74666,0.973124 1.56774,2.27722 5.13148,3.636994 -3.91158,0.449018 -13.743,-8.295735 -15.83582,-4.205351"
         style="fill:none;stroke:#291639;stroke-width:0.87312502;stroke-linecap:butt;stroke-linejoin:miter;stroke-miterlimit:4;stroke-dasharray:none;stroke-opacity:1" />
    </g>
  </g>
</svg>
