<?xml version="1.0" encoding="UTF-8" standalone="no"?>
<svg
   xmlns:dc="http://purl.org/dc/elements/1.1/"
   xmlns:cc="http://creativecommons.org/ns#"
   xmlns:rdf="http://www.w3.org/1999/02/22-rdf-syntax-ns#"
   xmlns:svg="http://www.w3.org/2000/svg"
   xmlns="http://www.w3.org/2000/svg"
   xmlns:sodipodi="http://sodipodi.sourceforge.net/DTD/sodipodi-0.dtd"
   xmlns:inkscape="http://www.inkscape.org/namespaces/inkscape"
   width="1920"
   height="1080"
   viewBox="0 0 1920 1080"
   version="1.1"
   id="svg821"
   sodipodi:docname="web.svg"
   inkscape:version="0.92.3 (2405546, 2018-03-11)">
  <metadata
     id="metadata827">
    <rdf:RDF>
      <cc:Work
         rdf:about="">
        <dc:format>image/svg+xml</dc:format>
        <dc:type
           rdf:resource="http://purl.org/dc/dcmitype/StillImage" />
        <dc:title></dc:title>
      </cc:Work>
    </rdf:RDF>
  </metadata>
  <defs
     id="defs825" />
  <sodipodi:namedview
     pagecolor="#ffffff"
     bordercolor="#666666"
     borderopacity="1"
     objecttolerance="10"
     gridtolerance="10"
     guidetolerance="10"
     inkscape:pageopacity="0"
     inkscape:pageshadow="2"
     inkscape:window-width="1839"
     inkscape:window-height="1025"
     id="namedview823"
     showgrid="false"
     fit-margin-top="0"
     fit-margin-left="0"
     fit-margin-right="0"
     fit-margin-bottom="0"
     inkscape:zoom="0.51375786"
     inkscape:cx="-218.13895"
     inkscape:cy="516.76993"
     inkscape:window-x="81"
     inkscape:window-y="27"
     inkscape:window-maximized="1"
     inkscape:current-layer="g819"
     inkscape:measure-start="0,0"
     inkscape:measure-end="0,0" />
  <g
     id="g819"
     style="fill:none;fill-rule:evenodd"
     transform="translate(0,970.94876)">
    <path
       style="fill:none;stroke:#000000;stroke-width:21.276;stroke-linecap:butt;stroke-linejoin:miter;stroke-miterlimit:4;stroke-dasharray:none;stroke-opacity:1"
       d="m 334.36264,-164.48571 c -81.32036,-59.84081 -69.98981,-597.77254 -2.32278,-647.90488 67.66703,-50.13236 1221.50064,-43.15516 1280.18894,0.44947 58.6883,43.6046 77.6856,584.47532 -2.0713,643.56436 -79.7564,59.08904 -1194.47477,63.73186 -1275.79486,3.89105 z"
       id="path878"
       inkscape:connector-curvature="0"
       sodipodi:nodetypes="zzzzz" />
    <path
       style="fill:none;stroke:#000000;stroke-width:36.7358551;stroke-linecap:round;stroke-linejoin:miter;stroke-miterlimit:4;stroke-dasharray:none;stroke-opacity:1"
       d="m 855.17063,-112.80759 c -10.49086,68.544063 0.3411,147.749619 -55.01472,193.861213"
       id="path880"
       inkscape:connector-curvature="0"
       sodipodi:nodetypes="cc" />
    <path
       style="fill:none;fill-rule:evenodd;stroke:#000000;stroke-width:36.7358551;stroke-linecap:round;stroke-linejoin:miter;stroke-miterlimit:4;stroke-dasharray:none;stroke-opacity:1"
       d="m 1073.0803,-110.78914 c 10.4908,68.544066 -0.3411,147.749621 55.0147,193.861212"
       id="path880-5"
       inkscape:connector-curvature="0"
       sodipodi:nodetypes="cc" />
    <path
       style="fill:none;stroke:#000000;stroke-width:13.98226261;stroke-linecap:butt;stroke-linejoin:miter;stroke-miterlimit:4;stroke-dasharray:none;stroke-opacity:1"
       d="m -661.57183,-843.16613 -383.49347,289.16642 383.49347,-12.37074"
       id="path968"
       inkscape:connector-curvature="0" />
    <path
       style="fill:none;stroke:#000000;stroke-width:13.98226261;stroke-linecap:butt;stroke-linejoin:miter;stroke-miterlimit:4;stroke-dasharray:none;stroke-opacity:1"
       d="m -1045.0653,-553.99971 371.12261,270.61032"
       id="path970"
       inkscape:connector-curvature="0" />
    <path
       style="fill:none;stroke:#000000;stroke-width:13.98226261;stroke-linecap:butt;stroke-linejoin:miter;stroke-miterlimit:4;stroke-dasharray:none;stroke-opacity:1"
       d="m -661.57183,-843.16613 344.83495,463.90341"
       id="path972"
       inkscape:connector-curvature="0" />
    <path
       style="fill:none;stroke:#000000;stroke-width:13.98226261;stroke-linecap:butt;stroke-linejoin:miter;stroke-miterlimit:4;stroke-dasharray:none;stroke-opacity:1"
       d="m -673.94269,-283.38939 368.03035,-388.13248"
       id="path974"
       inkscape:connector-curvature="0" />
    <path
       style="fill:none;stroke:#000000;stroke-width:13.98226261;stroke-linecap:butt;stroke-linejoin:miter;stroke-miterlimit:4;stroke-dasharray:none;stroke-opacity:1"
       d="m -661.57183,-566.37045 355.65949,-105.15142"
       id="path976"
       inkscape:connector-curvature="0" />
    <path
       style="fill:none;stroke:#000000;stroke-width:13.98226261;stroke-linecap:butt;stroke-linejoin:miter;stroke-miterlimit:4;stroke-dasharray:none;stroke-opacity:1"
       d="m -661.57183,-566.37045 344.83495,187.10773"
       id="path978"
       inkscape:connector-curvature="0" />
    <path
       style="fill:none;stroke:#000000;stroke-width:13.98226261;stroke-linecap:butt;stroke-linejoin:miter;stroke-miterlimit:4;stroke-dasharray:none;stroke-opacity:1"
       d="m -661.57183,-843.16613 355.65949,171.64426"
       id="path980"
       inkscape:connector-curvature="0" />
    <path
       style="fill:none;stroke:#000000;stroke-width:13.98226261;stroke-linecap:butt;stroke-linejoin:miter;stroke-miterlimit:4;stroke-dasharray:none;stroke-opacity:1"
       d="m -673.94269,-283.38939 357.20581,-95.87333"
       id="path982"
       inkscape:connector-curvature="0" />
    <path
       style="fill:#000000;fill-rule:evenodd;stroke:#ec1d56;stroke-width:54.4669075;stroke-linecap:butt;stroke-linejoin:miter;stroke-miterlimit:4;stroke-dasharray:none;stroke-opacity:1;fill-opacity:1"
       d="m -694.81385,-284.59358 c -4.52667,-18.89336 9.38975,-38.76813 29.42491,-36.78119 20.03515,1.98697 35.56009,26.83845 19.12617,44.13743 -16.43366,17.29901 -44.0244,11.53705 -48.55108,-7.35624 z"
       id="path831-6-7-3-5"
       inkscape:connector-curvature="0"
       sodipodi:nodetypes="zzzz" />
    <path
       style="fill:#000000;fill-rule:evenodd;stroke:#ec1d56;stroke-width:54.4669075;stroke-linecap:butt;stroke-linejoin:miter;stroke-miterlimit:4;stroke-dasharray:none;stroke-opacity:1;fill-opacity:1"
       d="m -691.72119,-835.09226 c -4.52667,-18.89339 9.38974,-38.76816 29.4249,-36.7812 20.03515,1.98697 35.56009,26.83843 19.12617,44.13743 -16.43366,17.29901 -44.0244,11.53703 -48.55107,-7.35623 z"
       id="path831-6-7-3-6"
       inkscape:connector-curvature="0"
       sodipodi:nodetypes="zzzz" />
    <path
       style="fill:#000000;fill-rule:evenodd;stroke:#ec1d56;stroke-width:54.4669075;stroke-linecap:butt;stroke-linejoin:miter;stroke-miterlimit:4;stroke-dasharray:none;stroke-opacity:1;fill-opacity:1"
       d="m -697.9065,-569.12096 c -4.52667,-18.89339 9.38975,-38.76816 29.4249,-36.78122 20.03516,1.98697 35.56009,26.83845 19.12618,44.13743 -16.43366,17.299 -44.02441,11.53705 -48.55108,-7.35621 z"
       id="path831-6-7-3-6-2"
       inkscape:connector-curvature="0"
       sodipodi:nodetypes="zzzz" />
    <path
       style="fill:#000000;fill-rule:evenodd;stroke:#ec1d56;stroke-width:54.4669075;stroke-linecap:butt;stroke-linejoin:miter;stroke-miterlimit:4;stroke-dasharray:none;stroke-opacity:1;fill-opacity:1"
       d="m -345.34017,-380.46691 c -4.52667,-18.89339 9.38974,-38.76816 29.4249,-36.78122 20.03516,1.98696 35.55983,26.83845 19.12592,44.13743 -16.43366,17.29903 -44.02441,11.53705 -48.55082,-7.35621 z"
       id="path831-6-7-3-6-9"
       inkscape:connector-curvature="0"
       sodipodi:nodetypes="zzzz" />
    <path
       style="fill:#000000;fill-rule:evenodd;stroke:#ec1d56;stroke-width:54.4669075;stroke-linecap:butt;stroke-linejoin:miter;stroke-miterlimit:4;stroke-dasharray:none;stroke-opacity:1;fill-opacity:1"
       d="m -336.06196,-661.90168 c -4.52667,-18.89336 9.38974,-38.76813 29.4249,-36.78121 20.03516,1.98699 35.55983,26.83847 19.12592,44.13743 -16.43366,17.29903 -44.02441,11.53707 -48.55082,-7.35622 z"
       id="path831-6-7-3-6-1"
       inkscape:connector-curvature="0"
       sodipodi:nodetypes="zzzz" />
    <path
       style="fill:#000000;fill-rule:evenodd;stroke:#ec1d56;stroke-width:54.4669075;stroke-linecap:butt;stroke-linejoin:miter;stroke-miterlimit:4;stroke-dasharray:none;stroke-opacity:1;fill-opacity:1"
       d="m -1051.4208,-547.64413 c -4.5268,-18.89336 9.3897,-38.76813 29.4247,-36.78119 20.0353,1.98697 35.56004,26.83842 19.1261,44.13743 -16.4336,17.299 -44.0244,11.53705 -48.5508,-7.35624 z"
       id="path831-6-7-3-6-2-7"
       inkscape:connector-curvature="0"
       sodipodi:nodetypes="zzzz" />
    <g
       id="g1055"
       transform="matrix(5.657873,0,0,5.657873,1395.3403,-1307.4227)"
       inkscape:export-xdpi="600"
       inkscape:export-ydpi="600">
      <g
         transform="translate(1.9314275,3.6872706)"
         id="g1041"
         inkscape:export-xdpi="600"
         inkscape:export-ydpi="600"
         inkscape:export-filename="/home/zuzka/Plochasagitta_logo.png">
        <circle
           style="opacity:1;fill:none;fill-opacity:1;stroke:#ec1d56;stroke-width:2.31415153;stroke-linecap:round;stroke-linejoin:round;stroke-miterlimit:4;stroke-dasharray:none;stroke-dashoffset:0;stroke-opacity:1"
           id="path915"
           cx="66.875679"
           cy="88.923981"
           r="2.349772" />
        <circle
           style="opacity:1;fill:none;fill-opacity:1;stroke:#ec1d56;stroke-width:2.31415153;stroke-linecap:round;stroke-linejoin:round;stroke-miterlimit:4;stroke-dasharray:none;stroke-dashoffset:0;stroke-opacity:1"
           id="path915-7"
           cx="80.417618"
           cy="95.31086"
           r="2.349772" />
        <circle
           style="opacity:1;fill:none;fill-opacity:1;stroke:#ec1d56;stroke-width:2.31415153;stroke-linecap:round;stroke-linejoin:round;stroke-miterlimit:4;stroke-dasharray:none;stroke-dashoffset:0;stroke-opacity:1"
           id="path915-7-5"
           cx="75.150085"
           cy="101.45631"
           r="2.349772" />
        <circle
           style="opacity:1;fill:none;fill-opacity:1;stroke:#ec1d56;stroke-width:2.31415153;stroke-linecap:round;stroke-linejoin:round;stroke-miterlimit:4;stroke-dasharray:none;stroke-dashoffset:0;stroke-opacity:1"
           id="path915-7-5-3"
           cx="51.972961"
           cy="78.1036"
           r="2.349772" />
        <circle
           style="opacity:1;fill:none;fill-opacity:1;stroke:#ec1d56;stroke-width:2.31415153;stroke-linecap:round;stroke-linejoin:round;stroke-miterlimit:4;stroke-dasharray:none;stroke-dashoffset:0;stroke-opacity:1"
           id="path915-7-5-5"
           cx="42.666988"
           cy="70.202301"
           r="2.349772" />
        <path
           style="fill:none;stroke:#ec1d56;stroke-width:2.4000001;stroke-linecap:butt;stroke-linejoin:miter;stroke-miterlimit:4;stroke-dasharray:none;stroke-opacity:1"
           d="m 44.199842,71.753686 6.083687,4.842117"
           id="path968-3"
           inkscape:connector-curvature="0" />
        <path
           style="fill:none;stroke:#ec1d56;stroke-width:2.4000001;stroke-linecap:butt;stroke-linejoin:miter;stroke-miterlimit:4;stroke-dasharray:none;stroke-opacity:1"
           d="m 54.023059,79.325909 10.561087,8.178219"
           id="path968-2"
           inkscape:connector-curvature="0"
           sodipodi:nodetypes="cc" />
        <path
           style="fill:none;stroke:#ec1d56;stroke-width:2.4000001;stroke-linecap:butt;stroke-linejoin:miter;stroke-miterlimit:4;stroke-dasharray:none;stroke-opacity:1"
           d="m 68.229419,91.307084 5.193808,7.831957"
           id="path968-9"
           inkscape:connector-curvature="0"
           sodipodi:nodetypes="cc" />
        <path
           style="fill:none;stroke:#ec1d56;stroke-width:2.4000001;stroke-linecap:butt;stroke-linejoin:miter;stroke-miterlimit:4;stroke-dasharray:none;stroke-opacity:1"
           d="m 69.701322,90.214865 8.439348,4.134321"
           id="path968-9-1"
           inkscape:connector-curvature="0"
           sodipodi:nodetypes="cc" />
      </g>
    </g>
    <g
       transform="matrix(11.652496,0,0,11.652496,6.8601318,-2449.5455)"
       id="g91">
      <g
         transform="matrix(0.28222223,0,0,0.28222223,-21.49169,135.71215)"
         id="g5512">
        <path
           style="fill:none;fill-rule:evenodd;stroke:#331c47;stroke-width:1.60000002;stroke-linecap:round;stroke-linejoin:round;stroke-miterlimit:4;stroke-dasharray:none;stroke-opacity:1"
           d="m 342.37528,196.34587 5,-23.99999 c 0,0 0.95095,12.3335 5.5,12.99999 4.54905,0.66649 7.5,-11.99999 7.5,-11.99999 0,0 0.71835,22.84386 5.5,23.49999 5.76128,0.79055 10,-21.99999 10,-21.99999 0,0 2.72761,12.64953 8,11.99999 5.06374,-0.62383 6.5,-11.99999 6.5,-11.99999 0,0 1.11851,23.22952 9,22.99999 8.52921,-3.51027 7,-16.22945 7,-24.24999 0,0 2.43704,7.9178 6.25,11.24999 4.58643,4.00813 9.75,-10.99999 9.75,-10.99999 0,0 -1.89261,24.6694 6,24.99999 7.89261,0.33059 7.25,-25.49999 7.25,-25.49999 0,0 3.41191,12.67037 7.25,12.74999 3.83809,0.0796 6.5,-13.49999 6.5,-13.49999 0,0 -2.89847,26.04771 4.25,26.49999 7.14847,0.45228 10,-25.99999 10,-25.99999 0,0 2.37658,13.27355 6.25,13.49999 3.87342,0.22644 7.75,-13.74999 7.75,-13.74999 0,0 -1.53365,24.16348 5.5,24.74999 7.03365,0.58651 9.25,-24.74999 9.25,-24.74999 0,0 12.26076,14.92874 7.75,14.99999 -8.24056,0.13016 6.75,-14.24999 6.75,-14.24999 0,0 1.44498,22.07827 7.25,23.74999 5.80502,1.67172 5,-23.99999 5,-23.99999 0,0 13.70578,13.91178 9.25,13.74999 -9.04459,-0.32841 6.5,-14.49999 6.5,-14.49999 l 3.75,23.99999"
           id="path7611-3"
           inkscape:connector-curvature="0"
           sodipodi:nodetypes="cczcscscccsczczczczczcsczcscc" />
        <g
           transform="matrix(0.51601647,0,0,0.4697116,169.41703,120.16293)"
           id="g4593-2-6">
          <path
             inkscape:connector-curvature="0"
             id="path4545-9-1"
             d="m 349.5,176.3622 7,-15 2.25,15.75"
             style="fill:none;fill-rule:evenodd;stroke:#000000;stroke-width:2.03119946px;stroke-linecap:butt;stroke-linejoin:miter;stroke-opacity:1" />
          <path
             inkscape:connector-curvature="0"
             id="path4547-1-8"
             d="m 349.25,168.8622 11.75,0.25"
             style="fill:none;fill-rule:evenodd;stroke:#000000;stroke-width:2.03119946px;stroke-linecap:butt;stroke-linejoin:miter;stroke-opacity:1" />
        </g>
        <g
           transform="matrix(0.51601647,0,0,0.4697116,199.16703,120.91293)"
           id="g4593-2-7">
          <path
             inkscape:connector-curvature="0"
             id="path4545-9-9"
             d="m 349.5,176.3622 7,-15 2.25,15.75"
             style="fill:none;fill-rule:evenodd;stroke:#000000;stroke-width:2.03119946px;stroke-linecap:butt;stroke-linejoin:miter;stroke-opacity:1" />
          <path
             inkscape:connector-curvature="0"
             id="path4547-1-2"
             d="m 349.25,168.8622 11.75,0.25"
             style="fill:none;fill-rule:evenodd;stroke:#000000;stroke-width:2.03119946px;stroke-linecap:butt;stroke-linejoin:miter;stroke-opacity:1" />
        </g>
        <g
           transform="matrix(0.51601647,0,0,0.4697116,228.41703,120.41293)"
           id="g4593-2-0">
          <path
             inkscape:connector-curvature="0"
             id="path4545-9-2"
             d="m 349.5,176.3622 7,-15 2.25,15.75"
             style="fill:none;fill-rule:evenodd;stroke:#000000;stroke-width:2.03119946px;stroke-linecap:butt;stroke-linejoin:miter;stroke-opacity:1" />
          <path
             inkscape:connector-curvature="0"
             id="path4547-1-3"
             d="m 349.25,168.8622 11.75,0.25"
             style="fill:none;fill-rule:evenodd;stroke:#000000;stroke-width:2.03119946px;stroke-linecap:butt;stroke-linejoin:miter;stroke-opacity:1" />
        </g>
        <g
           transform="matrix(0.51601647,0,0,0.4697116,256.66703,120.66293)"
           id="g4593-2-75">
          <path
             inkscape:connector-curvature="0"
             id="path4545-9-92"
             d="m 349.5,176.3622 7,-15 2.25,15.75"
             style="fill:none;fill-rule:evenodd;stroke:#000000;stroke-width:2.03119946px;stroke-linecap:butt;stroke-linejoin:miter;stroke-opacity:1" />
          <path
             inkscape:connector-curvature="0"
             id="path4547-1-28"
             d="m 349.25,168.8622 11.75,0.25"
             style="fill:none;fill-rule:evenodd;stroke:#000000;stroke-width:2.03119946px;stroke-linecap:butt;stroke-linejoin:miter;stroke-opacity:1" />
        </g>
        <g
           transform="matrix(0.51601647,0,0,0.4697116,288.66703,120.16293)"
           id="g4593-2-9">
          <path
             inkscape:connector-curvature="0"
             id="path4545-9-7"
             d="m 349.5,176.3622 7,-15 2.25,15.75"
             style="fill:none;fill-rule:evenodd;stroke:#000000;stroke-width:2.03119946px;stroke-linecap:butt;stroke-linejoin:miter;stroke-opacity:1" />
          <path
             inkscape:connector-curvature="0"
             id="path4547-1-36"
             d="m 349.25,168.8622 11.75,0.25"
             style="fill:none;fill-rule:evenodd;stroke:#000000;stroke-width:2.03119946px;stroke-linecap:butt;stroke-linejoin:miter;stroke-opacity:1" />
        </g>
        <path
           style="fill:none;fill-rule:evenodd;stroke:#000000;stroke-width:0.99999994px;stroke-linecap:butt;stroke-linejoin:miter;stroke-opacity:1"
           d="m 498.30823,194.87771 -0.40125,7.44841 c 0,0 3.76787,-0.19332 3.7147,-2.15797 -0.0532,-1.96466 -2.91727,-1.74303 -2.91727,-1.74303 0,0 2.05931,-0.65394 2.06889,-2.07666 0.0111,-1.65751 -2.46507,-1.47075 -2.46507,-1.47075 z"
           id="path4549-5-6-4"
           inkscape:connector-curvature="0"
           sodipodi:nodetypes="cczcsc" />
        <path
           style="fill:none;fill-rule:evenodd;stroke:#000000;stroke-width:0.99999994px;stroke-linecap:butt;stroke-linejoin:miter;stroke-opacity:1"
           d="m 526.55823,195.12771 -0.40125,7.44841 c 0,0 3.76787,-0.19332 3.7147,-2.15797 -0.0532,-1.96466 -2.91727,-1.74303 -2.91727,-1.74303 0,0 2.05931,-0.65394 2.06889,-2.07666 0.0111,-1.65751 -2.46507,-1.47075 -2.46507,-1.47075 z"
           id="path4549-5-6-7"
           inkscape:connector-curvature="0"
           sodipodi:nodetypes="cczcsc" />
      </g>
      <g
         transform="matrix(0.28222223,0,0,0.28222223,-21.49169,104.10326)"
         id="g5492">
        <path
           style="fill:none;fill-rule:evenodd;stroke:#331c47;stroke-width:1.60000002;stroke-linecap:round;stroke-linejoin:round;stroke-miterlimit:4;stroke-dasharray:none;stroke-opacity:1"
           d="m 342.25,250.61221 5,-24 c 0,0 0.95095,12.33351 5.5,13 4.54905,0.66649 7.5,-12 7.5,-12 0,0 0.71835,22.84387 5.5,23.5 5.76128,0.79055 10,-22 10,-22 0,0 2.72761,12.64954 8,12 5.06374,-0.62383 6.5,-12 6.5,-12 0,0 1.11851,23.22953 9,23 7.88149,-0.22953 7,-21.5 7,-21.5 v -2.75 c 0,0 12.68772,14.62448 8.75,15 -9.79496,0.9341 7.25,-14.75 7.25,-14.75 0,0 -1.89261,24.66941 6,25 7.89261,0.33059 7.25,-25.5 7.25,-25.5 0,0 3.41191,12.67038 7.25,12.75 3.83809,0.0796 6.5,-13.5 6.5,-13.5 0,0 -2.89847,26.04772 4.25,26.5 7.14847,0.45228 10,-26 10,-26 0,0 2.37658,13.27356 6.25,13.5 3.87342,0.22644 7.75,-13.75 7.75,-13.75 0,0 -1.53365,24.16349 5.5,24.75 7.03365,0.58651 9.25,-24.75 9.25,-24.75 0,0 12.26076,14.92875 7.75,15 -8.24056,0.13016 6.75,-14.25 6.75,-14.25 0,0 1.44498,22.07828 7.25,23.75 5.80502,1.67172 5,-24 5,-24 0,0 4.04459,10.82841 8.5,11 4.45541,0.17159 7.25,-11.75 7.25,-11.75 l 3.75,24"
           id="path7611"
           inkscape:connector-curvature="0"
           sodipodi:nodetypes="cczcscsczccsczczczczczcsczczcc" />
        <g
           transform="matrix(0.51601647,0,0,0.4697116,168.41703,177.69326)"
           id="g4593-2-1">
          <path
             inkscape:connector-curvature="0"
             id="path4545-9-29"
             d="m 349.5,176.3622 7,-15 2.25,15.75"
             style="fill:none;fill-rule:evenodd;stroke:#000000;stroke-width:2.03119946px;stroke-linecap:butt;stroke-linejoin:miter;stroke-opacity:1" />
          <path
             inkscape:connector-curvature="0"
             id="path4547-1-31"
             d="m 349.25,168.8622 11.75,0.25"
             style="fill:none;fill-rule:evenodd;stroke:#000000;stroke-width:2.03119946px;stroke-linecap:butt;stroke-linejoin:miter;stroke-opacity:1" />
        </g>
        <g
           transform="matrix(0.51601647,0,0,0.4697116,199.66703,177.41293)"
           id="g4593-2-94">
          <path
             inkscape:connector-curvature="0"
             id="path4545-9-78"
             d="m 349.5,176.3622 7,-15 2.25,15.75"
             style="fill:none;fill-rule:evenodd;stroke:#000000;stroke-width:2.03119946px;stroke-linecap:butt;stroke-linejoin:miter;stroke-opacity:1" />
          <path
             inkscape:connector-curvature="0"
             id="path4547-1-4"
             d="m 349.25,168.8622 11.75,0.25"
             style="fill:none;fill-rule:evenodd;stroke:#000000;stroke-width:2.03119946px;stroke-linecap:butt;stroke-linejoin:miter;stroke-opacity:1" />
        </g>
        <g
           transform="matrix(0.51601647,0,0,0.4697116,258.66703,178.15037)"
           id="g4593-2-5">
          <path
             inkscape:connector-curvature="0"
             id="path4545-9-0"
             d="m 349.5,176.3622 7,-15 2.25,15.75"
             style="fill:none;fill-rule:evenodd;stroke:#000000;stroke-width:2.03119946px;stroke-linecap:butt;stroke-linejoin:miter;stroke-opacity:1" />
          <path
             inkscape:connector-curvature="0"
             id="path4547-1-361"
             d="m 349.25,168.8622 11.75,0.25"
             style="fill:none;fill-rule:evenodd;stroke:#000000;stroke-width:2.03119946px;stroke-linecap:butt;stroke-linejoin:miter;stroke-opacity:1" />
        </g>
        <g
           transform="matrix(0.51601647,0,0,0.4697116,287.24025,177.92549)"
           id="g4593-2-06">
          <path
             inkscape:connector-curvature="0"
             id="path4545-9-3"
             d="m 349.5,176.3622 7,-15 2.25,15.75"
             style="fill:none;fill-rule:evenodd;stroke:#000000;stroke-width:2.03119946px;stroke-linecap:butt;stroke-linejoin:miter;stroke-opacity:1" />
          <path
             inkscape:connector-curvature="0"
             id="path4547-1-20"
             d="m 349.25,168.8622 11.75,0.25"
             style="fill:none;fill-rule:evenodd;stroke:#000000;stroke-width:2.03119946px;stroke-linecap:butt;stroke-linejoin:miter;stroke-opacity:1" />
        </g>
        <g
           transform="matrix(0.51601647,0,0,0.4697116,345.74025,177.87004)"
           id="g4593-2-61">
          <path
             inkscape:connector-curvature="0"
             id="path4545-9-5"
             d="m 349.5,176.3622 7,-15 2.25,15.75"
             style="fill:none;fill-rule:evenodd;stroke:#000000;stroke-width:2.03119946px;stroke-linecap:butt;stroke-linejoin:miter;stroke-opacity:1" />
          <path
             inkscape:connector-curvature="0"
             id="path4547-1-5"
             d="m 349.25,168.8622 11.75,0.25"
             style="fill:none;fill-rule:evenodd;stroke:#000000;stroke-width:2.03119946px;stroke-linecap:butt;stroke-linejoin:miter;stroke-opacity:1" />
        </g>
        <path
           style="fill:none;fill-rule:evenodd;stroke:#000000;stroke-width:0.99999994px;stroke-linecap:butt;stroke-linejoin:miter;stroke-opacity:1"
           d="m 413.05823,253.37771 -0.40125,7.44841 c 0,0 3.76787,-0.19332 3.7147,-2.15797 -0.0532,-1.96466 -2.91727,-1.74303 -2.91727,-1.74303 0,0 2.05931,-0.65394 2.06889,-2.07666 0.0111,-1.65751 -2.46507,-1.47075 -2.46507,-1.47075 z"
           id="path4549-5-6-6"
           inkscape:connector-curvature="0"
           sodipodi:nodetypes="cczcsc" />
        <path
           style="fill:none;fill-rule:evenodd;stroke:#000000;stroke-width:0.99999994px;stroke-linecap:butt;stroke-linejoin:miter;stroke-opacity:1"
           d="m 497.80823,253.37771 -0.40125,7.44841 c 0,0 3.76787,-0.19332 3.7147,-2.15797 -0.0532,-1.96466 -2.91727,-1.74303 -2.91727,-1.74303 0,0 2.05931,-0.65394 2.06889,-2.07666 0.0111,-1.65751 -2.46507,-1.47075 -2.46507,-1.47075 z"
           id="path4549-5-6-5"
           inkscape:connector-curvature="0"
           sodipodi:nodetypes="cczcsc" />
      </g>
      <path
         inkscape:connector-curvature="0"
         id="path5074-8"
         d="m 95.31557,179.41702 0.13913,4.34518"
         style="fill:none;fill-rule:evenodd;stroke:#ec1d56;stroke-width:0.42333335;stroke-linecap:round;stroke-linejoin:round;stroke-miterlimit:4;stroke-dasharray:none;stroke-opacity:1" />
      <path
         inkscape:connector-curvature="0"
         id="path5076-6-3"
         d="m 94.53051,182.40486 0.93459,1.57837 0.83622,-1.6802"
         style="fill:none;fill-rule:evenodd;stroke:#ec1d56;stroke-width:0.42333335;stroke-linecap:round;stroke-linejoin:round;stroke-miterlimit:4;stroke-dasharray:none;stroke-opacity:1" />
      <path
         inkscape:connector-curvature="0"
         id="path5074-8-4"
         d="m 127.3316,179.06425 0.13912,4.34517"
         style="fill:none;fill-rule:evenodd;stroke:#ec1d56;stroke-width:0.42333335;stroke-linecap:round;stroke-linejoin:round;stroke-miterlimit:4;stroke-dasharray:none;stroke-opacity:1" />
      <path
         inkscape:connector-curvature="0"
         id="path5076-6-3-2"
         d="m 126.54653,182.05208 0.9346,1.57837 0.83622,-1.6802"
         style="fill:none;fill-rule:evenodd;stroke:#ec1d56;stroke-width:0.42333335;stroke-linecap:round;stroke-linejoin:round;stroke-miterlimit:4;stroke-dasharray:none;stroke-opacity:1" />
    </g>
    <g
       id="g1181"
       transform="translate(159.60826,747.43382)">
      <path
         sodipodi:nodetypes="cc"
         inkscape:connector-curvature="0"
         id="path1303-5"
         d="M 233.34955,-1370.2053 302.0477,-1489.194"
         style="fill:none;fill-rule:evenodd;stroke:#000000;stroke-width:25.65835571;stroke-linecap:butt;stroke-linejoin:miter;stroke-miterlimit:4;stroke-dasharray:none;stroke-opacity:1" />
      <path
         sodipodi:nodetypes="cc"
         inkscape:connector-curvature="0"
         id="path1303-5-6"
         d="m 300.10215,-1369.5171 68.69815,-118.9887"
         style="fill:none;fill-rule:evenodd;stroke:#000000;stroke-width:25.65835571;stroke-linecap:butt;stroke-linejoin:miter;stroke-miterlimit:4;stroke-dasharray:none;stroke-opacity:1" />
      <path
         sodipodi:nodetypes="ccc"
         inkscape:connector-curvature="0"
         id="path1365-8-6"
         d="m 492.09897,-1434.4179 c -21.15382,-34.0886 -63.41478,-13.4623 -58.82034,23.9787 7.54355,47.7896 64.62217,28.5154 69.52617,7.1734"
         style="fill:none;fill-rule:evenodd;stroke:#000000;stroke-width:25.65835571;stroke-linecap:butt;stroke-linejoin:miter;stroke-miterlimit:4;stroke-dasharray:none;stroke-opacity:1" />
      <path
         sodipodi:nodetypes="czc"
         inkscape:connector-curvature="0"
         id="path1365-8-7"
         d="m 602.45551,-1416.9 c -5.58228,-60.3655 -82.06919,-39.0943 -69.52577,9.3804 12.54342,48.4747 72.28132,18.6637 69.52577,-9.3804"
         style="fill:none;fill-rule:evenodd;stroke:#000000;stroke-width:25.65835571;stroke-linecap:butt;stroke-linejoin:miter;stroke-miterlimit:4;stroke-dasharray:none;stroke-opacity:1" />
      <path
         sodipodi:nodetypes="cc"
         inkscape:connector-curvature="0"
         id="path1303"
         d="m 706.61994,-1372.3143 v -137.3963"
         style="fill:none;fill-rule:evenodd;stroke:#000000;stroke-width:25.65835571;stroke-linecap:butt;stroke-linejoin:miter;stroke-miterlimit:4;stroke-dasharray:none;stroke-opacity:1" />
      <path
         sodipodi:nodetypes="ccc"
         inkscape:connector-curvature="0"
         id="path1365"
         d="m 707.17192,-1414.2506 c -20.18062,55.4993 -74.12026,28.0606 -69.52581,-9.3804 7.54356,-47.7893 64.62218,-28.5154 69.52613,-7.1731"
         style="fill:none;fill-rule:evenodd;stroke:#000000;stroke-width:25.65835571;stroke-linecap:butt;stroke-linejoin:miter;stroke-miterlimit:4;stroke-dasharray:none;stroke-opacity:1" />
      <path
         sodipodi:nodetypes="ccc"
         inkscape:connector-curvature="0"
         id="path1365-8-6-5"
         d="m 816.53532,-1425.8802 c -12.39483,-57.4459 -65.36122,-24.1677 -60.76678,13.2733 7.54355,47.7896 50.02385,24.6225 65.63329,25.6646"
         style="fill:none;fill-rule:evenodd;stroke:#000000;stroke-width:25.65835571;stroke-linecap:butt;stroke-linejoin:miter;stroke-miterlimit:4;stroke-dasharray:none;stroke-opacity:1" />
      <path
         sodipodi:nodetypes="cc"
         inkscape:connector-curvature="0"
         id="path1303-3"
         d="m 764.32558,-1423.0132 h 62.4583"
         style="fill:none;fill-rule:evenodd;stroke:#000000;stroke-width:24;stroke-linecap:butt;stroke-linejoin:miter;stroke-miterlimit:4;stroke-dasharray:none;stroke-opacity:1" />
    </g>
    <path
       sodipodi:type="star"
       style="opacity:1;fill:none;fill-opacity:1;stroke:#3a50dd;stroke-width:8.06429386;stroke-linecap:round;stroke-linejoin:round;stroke-miterlimit:4;stroke-dasharray:none;stroke-dashoffset:0;stroke-opacity:1"
       id="path1183"
       sodipodi:sides="14"
       sodipodi:cx="1479.1438"
       sodipodi:cy="-591.66799"
       sodipodi:r1="48.539314"
       sodipodi:r2="47.32233"
       sodipodi:arg1="0.24497866"
       sodipodi:arg2="0.46937814"
       inkscape:flatsided="true"
       inkscape:rounded="1.08"
       inkscape:randomized="0"
       d="m 1526.2339,-579.89546 c -5.6585,22.63361 5.1471,1.32868 -9.7713,19.26577 -14.9184,17.93708 4.0609,3.43034 -17.1628,13.11825 -21.2236,9.6879 2.1704,4.85259 -21.1548,4.37251 -23.3253,-0.48008 -0.1501,5.31372 -20.9571,-5.23926 -20.807,-10.55299 -2.4407,4.72241 -16.6084,-13.81334 -14.1677,-18.53574 -4.248,3.19577 -8.9703,-19.6515 -4.7223,-22.84726 -5.2139,1.03616 0.4445,-21.59745 5.6584,-22.63361 -5.1471,-1.32868 9.7713,-19.26576 14.9184,-17.93709 -4.0609,-3.43035 17.1628,-13.11826 21.2236,-9.6879 -2.1704,-4.85259 21.1548,-4.37251 23.3253,0.48009 0.15,-5.31372 20.9571,5.23927 20.807,10.55298 2.4407,-4.72241 16.6084,13.81333 14.1677,18.53574 4.248,-3.19576 8.9703,19.6515 4.7223,22.84727 5.2139,-1.03615 -0.4445,21.59745 z" />
    <path
       sodipodi:type="star"
       style="opacity:1;fill:none;fill-opacity:1;stroke:#3a50dd;stroke-width:9.02648449;stroke-linecap:round;stroke-linejoin:round;stroke-miterlimit:4;stroke-dasharray:none;stroke-dashoffset:0;stroke-opacity:1"
       id="path1185"
       sodipodi:sides="14"
       sodipodi:cx="1384.0442"
       sodipodi:cy="-714.46991"
       sodipodi:r1="44.625877"
       sodipodi:r2="43.507011"
       sodipodi:arg1="0.71574359"
       sodipodi:arg2="0.94014306"
       inkscape:flatsided="true"
       inkscape:rounded="10"
       inkscape:randomized="0"
       d="m 1417.7191,-685.18736 c -130.3196,149.86755 166.3989,-66.77132 -16.0401,11.71112 -182.439,78.48244 178.8913,12.03891 -19.5329,3.59183 -198.4241,-8.44709 155.952,88.46467 -19.1569,-5.23889 -175.1089,-93.70356 102.1245,147.36894 -14.9868,-13.03196 -117.1112,-160.40089 28.07,177.08497 -7.8482,-18.2439 -35.9182,-195.32886 -51.5441,171.72715 0.8447,-19.84241 52.3888,-191.56956 -120.9493,132.35666 9.3704,-17.51089 130.3196,-149.86755 -166.399,66.77132 16.04,-11.71112 182.4391,-78.48244 -178.8912,-12.03891 19.5329,-3.59182 198.4242,8.44708 -155.9519,-88.46468 19.157,5.23888 175.1089,93.70356 -102.1245,-147.36894 14.9867,13.03196 117.1113,160.40089 -28.0699,-177.08497 7.8483,18.2439 35.9182,195.32886 51.5441,-171.72715 -0.8447,19.84241 -52.3888,191.56956 120.9492,-132.35666 -9.3704,17.51089 z" />
    <path
       sodipodi:type="star"
       style="opacity:1;fill:none;fill-opacity:1;stroke:#3a50dd;stroke-width:3;stroke-linecap:round;stroke-linejoin:round;stroke-miterlimit:4;stroke-dasharray:none;stroke-dashoffset:0;stroke-opacity:1"
       id="path1187"
       sodipodi:sides="9"
       sodipodi:cx="1246.1285"
       sodipodi:cy="-588.33767"
       sodipodi:r1="24.431641"
       sodipodi:r2="23.81909"
       sodipodi:arg1="0.82297445"
       sodipodi:arg2="1.1720403"
       inkscape:flatsided="true"
       inkscape:rounded="10"
       inkscape:randomized="0"
       d="m 1262.7431,-570.42506 c -122.5293,113.6504 151.5149,-1.81202 -15.401,6.4889 -166.916,8.30092 117.2319,96.00382 -15.9689,-4.92883 -133.2008,-100.93266 28.0948,148.89841 -9.0647,-14.04031 -37.1595,-162.93871 -74.1882,132.12179 2.081,-16.58216 76.2692,-148.70394 -141.7577,53.5239 12.2529,-11.36504 154.0106,-64.88894 -142.9972,-50.11841 16.6916,-0.83009 159.6888,49.28832 -77.3267,-130.30976 13.3201,10.09327 90.6468,140.40302 24.5258,-149.52773 3.7159,16.29387 -20.8098,165.8216 114.9025,-98.78 -7.6269,14.87039 z" />
    <path
       sodipodi:type="star"
       style="opacity:1;fill:none;fill-opacity:1;stroke:#3a50dd;stroke-width:5.01610565;stroke-linecap:round;stroke-linejoin:round;stroke-miterlimit:4;stroke-dasharray:none;stroke-dashoffset:0;stroke-opacity:1"
       id="path1193"
       sodipodi:sides="5"
       sodipodi:cx="1189.7269"
       sodipodi:cy="-742.34222"
       sodipodi:r1="53.327564"
       sodipodi:r2="43.142906"
       sodipodi:arg1="0.36717383"
       sodipodi:arg2="0.99549236"
       inkscape:flatsided="true"
       inkscape:rounded="-0.37"
       inkscape:randomized="0"
       d="m 1239.5,-723.19874 c 8.3266,-21.64934 -75.7617,32.88004 -52.5989,34.10916 23.1628,1.22912 -54.6824,-61.89316 -48.6937,-39.48418 5.9888,22.40898 41.9661,-71.13212 22.5045,-58.51173 -19.4615,12.62039 80.6189,17.93109 62.6023,3.32194 -18.0167,-14.60914 7.8591,82.21414 16.1858,60.56481 z"
       inkscape:transform-center-x="29.436649"
       inkscape:transform-center-y="-115.68729" />
  </g>
</svg>
